SymPub-Thin.ufo
<glyph name="periodcentered" format="2">
  <advance width="220"/>
  <unicode hex="00B7"/>
  <outline>
    <contour>
      <point x="85" y="314" type="curve" smooth="yes"/>
      <point x="85" y="297"/>
      <point x="90" y="283"/>
      <point x="110" y="283" type="curve" smooth="yes"/>
      <point x="134" y="283"/>
      <point x="137" y="297"/>
      <point x="137" y="314" type="curve" smooth="yes"/>
      <point x="137" y="330"/>
      <point x="134" y="345"/>
      <point x="110" y="345" type="curve" smooth="yes"/>
      <point x="90" y="345"/>
      <point x="85" y="330"/>
    </contour>
  </outline>
</glyph>
<glyph name="triangularbullet" format="2">
  <advance width="381"/>
  <unicode hex="2023"/>
  <outline>
    <contour>
      <point x="84" y="258" type="line"/>
      <point x="280" y="373" type="line"/>
      <point x="84" y="487" type="line"/>
    </contour>
  </outline>
</glyph>
<glyph name="leftCeiling" format="2">
  <advance width="404"/>
  <unicode hex="2308"/>
  <note>
uni2308
</note>
  <anchor x="202" y="0" name="center"/>
  <outline>
    <contour>
      <point x="65" y="-70" type="line"/>
      <point x="91" y="-70" type="line"/>
      <point x="91" y="748" type="line"/>
      <point x="339" y="748" type="line"/>
      <point x="339" y="774" type="line"/>
      <point x="65" y="774" type="line"/>
    </contour>
  </outline>
</glyph>
<glyph name="leftFloor" format="2">
  <advance width="404"/>
  <unicode hex="230A"/>
  <note>
uni230A
</note>
  <anchor x="202" y="0" name="center"/>
  <outline>
    <contour>
      <point x="65" y="-60" type="line"/>
      <point x="339" y="-60" type="line"/>
      <point x="339" y="-35" type="line"/>
      <point x="91" y="-35" type="line"/>
      <point x="91" y="774" type="line"/>
      <point x="65" y="774" type="line"/>
    </contour>
  </outline>
</glyph>
<glyph name="rightFloor" format="2">
  <advance width="404"/>
  <unicode hex="230B"/>
  <note>
uni230B
</note>
  <anchor x="202" y="0" name="center"/>
  <outline>
    <contour>
      <point x="65" y="-60" type="line"/>
      <point x="339" y="-60" type="line"/>
      <point x="339" y="774" type="line"/>
      <point x="313" y="774" type="line"/>
      <point x="313" y="-35" type="line"/>
      <point x="65" y="-35" type="line"/>
    </contour>
  </outline>
</glyph>
<glyph name="topLeftCorner" format="2">
  <advance width="442"/>
  <unicode hex="231C"/>
  <note>
uni231C
</note>
  <anchor x="220" y="0" name="center"/>
  <outline>
    <contour>
      <point x="64" y="373" type="line"/>
      <point x="91" y="373" type="line"/>
      <point x="91" y="688" type="line"/>
      <point x="377" y="688" type="line"/>
      <point x="377" y="714" type="line"/>
      <point x="64" y="714" type="line"/>
    </contour>
  </outline>
</glyph>
<glyph name="topRightCorner" format="2">
  <advance width="442"/>
  <unicode hex="231D"/>
  <note>
uni231D
</note>
  <anchor x="221" y="0" name="center"/>
  <outline>
    <contour>
      <point x="351" y="373" type="line"/>
      <point x="377" y="373" type="line"/>
      <point x="377" y="714" type="line"/>
      <point x="65" y="714" type="line"/>
      <point x="65" y="688" type="line"/>
      <point x="351" y="688" type="line"/>
    </contour>
  </outline>
</glyph>
<glyph name="bottomLeftCorner" format="2">
  <advance width="442"/>
  <unicode hex="231E"/>
  <note>
uni231E
</note>
  <anchor x="220" y="0" name="center"/>
  <outline>
    <contour>
      <point x="64" y="0" type="line"/>
      <point x="377" y="0" type="line"/>
      <point x="377" y="25" type="line"/>
      <point x="91" y="25" type="line"/>
      <point x="91" y="341" type="line"/>
      <point x="64" y="341" type="line"/>
    </contour>
  </outline>
</glyph>
<glyph name="bottomRightCorner" format="2">
  <advance width="442"/>
  <unicode hex="231F"/>
  <note>
uni231F
</note>
  <anchor x="221" y="0" name="center"/>
  <outline>
    <contour>
      <point x="65" y="0" type="line"/>
      <point x="377" y="0" type="line"/>
      <point x="377" y="341" type="line"/>
      <point x="351" y="341" type="line"/>
      <point x="351" y="25" type="line"/>
      <point x="65" y="25" type="line"/>
    </contour>
  </outline>
</glyph>
<glyph name="onecircle" format="2">
  <advance width="1000"/>
  <unicode hex="2460"/>
  <note>
uni2460
</note>
  <anchor x="500" y="0" name="center"/>
  <outline>
    <component base="_circledComp"/>
    <contour>
      <point x="496" y="144" type="line"/>
      <point x="524" y="144" type="line"/>
      <point x="524" y="572" type="line"/>
      <point x="485" y="572" type="line"/>
      <point x="370" y="485" type="line"/>
      <point x="386" y="463" type="line"/>
      <point x="417" y="486"/>
      <point x="462" y="519"/>
      <point x="473" y="528" type="curve" smooth="yes"/>
      <point x="486" y="538"/>
      <point x="494" y="545"/>
      <point x="499" y="550" type="curve"/>
      <point x="497" y="529"/>
      <point x="496" y="505"/>
      <point x="496" y="484" type="curve" smooth="yes"/>
    </contour>
  </outline>
</glyph>
<glyph name="threecircle" format="2">
  <advance width="1000"/>
  <unicode hex="2462"/>
  <note>
uni2462
</note>
  <anchor x="500" y="0" name="center"/>
  <outline>
    <component base="_circledComp"/>
    <contour>
      <point x="506" y="135" type="curve" smooth="yes"/>
      <point x="611" y="135"/>
      <point x="658" y="186"/>
      <point x="658" y="261" type="curve" smooth="yes"/>
      <point x="658" y="333"/>
      <point x="614" y="361"/>
      <point x="560" y="368" type="curve"/>
      <point x="560" y="359" type="line"/>
      <point x="623" y="377"/>
      <point x="644" y="414"/>
      <point x="644" y="463" type="curve" smooth="yes"/>
      <point x="644" y="528"/>
      <point x="615" y="579"/>
      <point x="528" y="579" type="curve" smooth="yes"/>
      <point x="481" y="579"/>
      <point x="425" y="564"/>
      <point x="378" y="526" type="curve"/>
      <point x="395" y="505" type="line"/>
      <point x="446" y="546"/>
      <point x="497" y="553"/>
      <point x="524" y="553" type="curve" smooth="yes"/>
      <point x="575" y="553"/>
      <point x="614" y="529"/>
      <point x="614" y="467" type="curve" smooth="yes"/>
      <point x="614" y="405"/>
      <point x="576" y="376"/>
      <point x="508" y="376" type="curve" smooth="yes"/>
      <point x="433" y="376" type="line"/>
      <point x="433" y="351" type="line"/>
      <point x="507" y="351" type="line" smooth="yes"/>
      <point x="580" y="351"/>
      <point x="627" y="326"/>
      <point x="627" y="260" type="curve" smooth="yes"/>
      <point x="627" y="196"/>
      <point x="584" y="161"/>
      <point x="506" y="161" type="curve" smooth="yes"/>
      <point x="464" y="161"/>
      <point x="419" y="171"/>
      <point x="368" y="198" type="curve"/>
      <point x="368" y="168" type="line"/>
      <point x="403" y="146"/>
      <point x="457" y="135"/>
    </contour>
  </outline>
</glyph>
<glyph name="fourcircle" format="2">
  <advance width="1000"/>
  <unicode hex="2463"/>
  <note>
uni2463
</note>
  <anchor x="500" y="0" name="center"/>
  <outline>
    <component base="_circledComp"/>
    <contour>
      <point x="532" y="144" type="line"/>
      <point x="561" y="144" type="line"/>
      <point x="561" y="251" type="line"/>
      <point x="632" y="251" type="line"/>
      <point x="632" y="278" type="line"/>
      <point x="561" y="278" type="line"/>
      <point x="561" y="572" type="line"/>
      <point x="521" y="572" type="line"/>
      <point x="330" y="273" type="line"/>
      <point x="330" y="251" type="line"/>
      <point x="532" y="251" type="line"/>
    </contour>
    <contour>
      <point x="364" y="278" type="line"/>
      <point x="490" y="474" type="line" smooth="yes"/>
      <point x="509" y="503"/>
      <point x="525" y="530"/>
      <point x="533" y="548" type="curve"/>
      <point x="534" y="548" type="line"/>
      <point x="533" y="528"/>
      <point x="532" y="496"/>
      <point x="532" y="464" type="curve" smooth="yes"/>
      <point x="532" y="278" type="line"/>
    </contour>
  </outline>
</glyph>
<glyph name="fivecircle" format="2">
  <advance width="1000"/>
  <unicode hex="2464"/>
  <note>
uni2464
</note>
  <anchor x="500" y="0" name="center"/>
  <outline>
    <component base="_circledComp"/>
    <contour>
      <point x="500" y="135" type="curve" smooth="yes"/>
      <point x="590" y="135"/>
      <point x="645" y="182"/>
      <point x="645" y="272" type="curve" smooth="yes"/>
      <point x="645" y="371"/>
      <point x="577" y="406"/>
      <point x="497" y="406" type="curve" smooth="yes"/>
      <point x="466" y="406"/>
      <point x="435" y="400"/>
      <point x="417" y="393" type="curve"/>
      <point x="427" y="545" type="line"/>
      <point x="630" y="545" type="line"/>
      <point x="630" y="572" type="line"/>
      <point x="401" y="572" type="line"/>
      <point x="387" y="375" type="line"/>
      <point x="407" y="362" type="line"/>
      <point x="435" y="375"/>
      <point x="464" y="379"/>
      <point x="491" y="379" type="curve" smooth="yes"/>
      <point x="570" y="379"/>
      <point x="614" y="341"/>
      <point x="614" y="269" type="curve" smooth="yes"/>
      <point x="614" y="199"/>
      <point x="572" y="161"/>
      <point x="499" y="161" type="curve" smooth="yes"/>
      <point x="457" y="161"/>
      <point x="411" y="173"/>
      <point x="372" y="196" type="curve"/>
      <point x="372" y="165" type="line"/>
      <point x="396" y="152"/>
      <point x="444" y="135"/>
    </contour>
  </outline>
</glyph>
<glyph name="sixcircle" format="2">
  <advance width="1000"/>
  <unicode hex="2465"/>
  <note>
uni2465
</note>
  <anchor x="500" y="0" name="center"/>
  <outline>
    <component base="_circledComp"/>
    <contour>
      <point x="499" y="134" type="curve" smooth="yes"/>
      <point x="589" y="134"/>
      <point x="643" y="193"/>
      <point x="643" y="281" type="curve" smooth="yes"/>
      <point x="643" y="366"/>
      <point x="590" y="412"/>
      <point x="504" y="412" type="curve" smooth="yes"/>
      <point x="462" y="412"/>
      <point x="406" y="401"/>
      <point x="378" y="351" type="curve"/>
      <point x="377" y="351" type="line"/>
      <point x="380" y="515"/>
      <point x="454" y="552"/>
      <point x="534" y="552" type="curve" smooth="yes"/>
      <point x="560" y="552"/>
      <point x="585" y="548"/>
      <point x="603" y="542" type="curve"/>
      <point x="603" y="571" type="line"/>
      <point x="588" y="575"/>
      <point x="563" y="579"/>
      <point x="536" y="579" type="curve" smooth="yes"/>
      <point x="432" y="579"/>
      <point x="346" y="522"/>
      <point x="346" y="339" type="curve" smooth="yes"/>
      <point x="346" y="192"/>
      <point x="409" y="134"/>
    </contour>
    <contour>
      <point x="501" y="161" type="curve" smooth="yes"/>
      <point x="429" y="161"/>
      <point x="379" y="213"/>
      <point x="379" y="284" type="curve" smooth="yes"/>
      <point x="379" y="345"/>
      <point x="417" y="385"/>
      <point x="500" y="385" type="curve" smooth="yes"/>
      <point x="574" y="385"/>
      <point x="611" y="353"/>
      <point x="611" y="281" type="curve" smooth="yes"/>
      <point x="611" y="201"/>
      <point x="565" y="161"/>
    </contour>
  </outline>
</glyph>
<glyph name="sevencircle" format="2">
  <advance width="1000"/>
  <unicode hex="2466"/>
  <note>
uni2466
</note>
  <anchor x="500" y="0" name="center"/>
  <outline>
    <component base="_circledComp"/>
    <contour>
      <point x="433" y="144" type="line"/>
      <point x="464" y="144" type="line"/>
      <point x="651" y="550" type="line"/>
      <point x="651" y="572" type="line"/>
      <point x="376" y="572" type="line"/>
      <point x="376" y="545" type="line"/>
      <point x="619" y="545" type="line"/>
    </contour>
  </outline>
</glyph>
<glyph name="ninecircle" format="2">
  <advance width="1000"/>
  <unicode hex="2468"/>
  <note>
uni2468
</note>
  <anchor x="500" y="0" name="center"/>
  <outline>
    <component base="_circledComp"/>
    <contour>
      <point x="470" y="134" type="curve" smooth="yes"/>
      <point x="576" y="134"/>
      <point x="657" y="189"/>
      <point x="657" y="374" type="curve" smooth="yes"/>
      <point x="657" y="527"/>
      <point x="598" y="579"/>
      <point x="509" y="579" type="curve" smooth="yes"/>
      <point x="415" y="579"/>
      <point x="361" y="520"/>
      <point x="361" y="436" type="curve" smooth="yes"/>
      <point x="361" y="351"/>
      <point x="417" y="301"/>
      <point x="501" y="301" type="curve" smooth="yes"/>
      <point x="542" y="301"/>
      <point x="598" y="313"/>
      <point x="625" y="363" type="curve"/>
      <point x="627" y="363" type="line"/>
      <point x="624" y="197"/>
      <point x="552" y="161"/>
      <point x="469" y="161" type="curve" smooth="yes"/>
      <point x="442" y="161"/>
      <point x="418" y="165"/>
      <point x="400" y="171" type="curve"/>
      <point x="400" y="143" type="line"/>
      <point x="415" y="138"/>
      <point x="442" y="134"/>
    </contour>
    <contour>
      <point x="507" y="328" type="curve" smooth="yes"/>
      <point x="432" y="328"/>
      <point x="392" y="363"/>
      <point x="392" y="436" type="curve" smooth="yes"/>
      <point x="392" y="513"/>
      <point x="438" y="553"/>
      <point x="506" y="553" type="curve" smooth="yes"/>
      <point x="579" y="553"/>
      <point x="624" y="506"/>
      <point x="624" y="432" type="curve" smooth="yes"/>
      <point x="624" y="368"/>
      <point x="587" y="328"/>
    </contour>
  </outline>
</glyph>
<glyph name="tencircle" format="2">
  <advance width="1000"/>
  <unicode hex="2469"/>
  <note>
uni2469
</note>
  <anchor x="500" y="0" name="center"/>
  <outline>
    <component base="_circledComp"/>
    <contour>
      <point x="613" y="135" type="curve" smooth="yes"/>
      <point x="699" y="135"/>
      <point x="745" y="204"/>
      <point x="745" y="359" type="curve" smooth="yes"/>
      <point x="745" y="512"/>
      <point x="695" y="579"/>
      <point x="613" y="579" type="curve" smooth="yes"/>
      <point x="532" y="579"/>
      <point x="481" y="512"/>
      <point x="481" y="359" type="curve" smooth="yes"/>
      <point x="481" y="204"/>
      <point x="528" y="135"/>
    </contour>
    <contour>
      <point x="372" y="144" type="line"/>
      <point x="400" y="144" type="line"/>
      <point x="400" y="572" type="line"/>
      <point x="361" y="572" type="line"/>
      <point x="257" y="494" type="line"/>
      <point x="273" y="471" type="line"/>
      <point x="304" y="494"/>
      <point x="337" y="519"/>
      <point x="349" y="528" type="curve" smooth="yes"/>
      <point x="361" y="537"/>
      <point x="370" y="545"/>
      <point x="374" y="550" type="curve"/>
      <point x="372" y="529"/>
      <point x="372" y="505"/>
      <point x="372" y="484" type="curve" smooth="yes"/>
    </contour>
    <contour>
      <point x="613" y="161" type="curve" smooth="yes"/>
      <point x="549" y="161"/>
      <point x="512" y="226"/>
      <point x="512" y="357" type="curve" smooth="yes"/>
      <point x="512" y="488"/>
      <point x="544" y="553"/>
      <point x="613" y="553" type="curve" smooth="yes"/>
      <point x="683" y="553"/>
      <point x="715" y="488"/>
      <point x="715" y="357" type="curve" smooth="yes"/>
      <point x="715" y="226"/>
      <point x="677" y="161"/>
    </contour>
  </outline>
</glyph>
<glyph name="elevencircle" format="2">
  <advance width="1000"/>
  <unicode hex="246A"/>
  <note>
uni246A
</note>
  <anchor x="500" y="0" name="center"/>
  <outline>
    <component base="_circledComp"/>
    <contour>
      <point x="633" y="144" type="line"/>
      <point x="661" y="144" type="line"/>
      <point x="661" y="572" type="line"/>
      <point x="622" y="572" type="line"/>
      <point x="518" y="494" type="line"/>
      <point x="534" y="471" type="line"/>
      <point x="565" y="494"/>
      <point x="599" y="519"/>
      <point x="610" y="528" type="curve" smooth="yes"/>
      <point x="623" y="538"/>
      <point x="631" y="545"/>
      <point x="635" y="550" type="curve"/>
      <point x="633" y="529"/>
      <point x="633" y="505"/>
      <point x="633" y="484" type="curve" smooth="yes"/>
    </contour>
    <contour>
      <point x="394" y="144" type="line"/>
      <point x="422" y="144" type="line"/>
      <point x="422" y="572" type="line"/>
      <point x="383" y="572" type="line"/>
      <point x="279" y="494" type="line"/>
      <point x="295" y="471" type="line"/>
      <point x="327" y="494"/>
      <point x="360" y="519"/>
      <point x="371" y="528" type="curve" smooth="yes"/>
      <point x="384" y="538"/>
      <point x="392" y="545"/>
      <point x="396" y="550" type="curve"/>
      <point x="395" y="529"/>
      <point x="394" y="505"/>
      <point x="394" y="484" type="curve" smooth="yes"/>
    </contour>
  </outline>
</glyph>
<glyph name="fourteencircle" format="2">
  <advance width="1000"/>
  <unicode hex="246D"/>
  <note>
uni246D
</note>
  <anchor x="500" y="0" name="center"/>
  <outline>
    <component base="_circledComp"/>
    <contour>
      <point x="650" y="144" type="line"/>
      <point x="678" y="144" type="line"/>
      <point x="678" y="251" type="line"/>
      <point x="750" y="251" type="line"/>
      <point x="750" y="278" type="line"/>
      <point x="678" y="278" type="line"/>
      <point x="678" y="572" type="line"/>
      <point x="639" y="572" type="line"/>
      <point x="457" y="273" type="line"/>
      <point x="457" y="251" type="line"/>
      <point x="650" y="251" type="line"/>
    </contour>
    <contour>
      <point x="371" y="144" type="line"/>
      <point x="399" y="144" type="line"/>
      <point x="399" y="572" type="line"/>
      <point x="360" y="572" type="line"/>
      <point x="256" y="494" type="line"/>
      <point x="272" y="471" type="line"/>
      <point x="304" y="494"/>
      <point x="337" y="519"/>
      <point x="348" y="528" type="curve" smooth="yes"/>
      <point x="361" y="538"/>
      <point x="369" y="545"/>
      <point x="374" y="550" type="curve"/>
      <point x="372" y="529"/>
      <point x="371" y="505"/>
      <point x="371" y="484" type="curve" smooth="yes"/>
    </contour>
    <contour>
      <point x="491" y="278" type="line"/>
      <point x="610" y="474" type="line" smooth="yes"/>
      <point x="629" y="504"/>
      <point x="643" y="530"/>
      <point x="650" y="548" type="curve"/>
      <point x="652" y="548" type="line"/>
      <point x="650" y="528"/>
      <point x="650" y="496"/>
      <point x="650" y="464" type="curve" smooth="yes"/>
      <point x="650" y="278" type="line"/>
    </contour>
  </outline>
</glyph>
<glyph name="thirteenblackcircle" format="2">
  <advance width="1000"/>
  <unicode hex="24ED"/>
  <note>
uni24ED
</note>
  <anchor x="500" y="0" name="center"/>
  <outline>
    <component base="_blackCircledComp"/>
    <contour>
      <point x="606" y="135" type="curve" smooth="yes"/>
      <point x="564" y="135"/>
      <point x="520" y="146"/>
      <point x="484" y="168" type="curve"/>
      <point x="484" y="198" type="line"/>
      <point x="536" y="171"/>
      <point x="570" y="161"/>
      <point x="604" y="161" type="curve" smooth="yes"/>
      <point x="666" y="161"/>
      <point x="710" y="196"/>
      <point x="710" y="260" type="curve" smooth="yes"/>
      <point x="710" y="326"/>
      <point x="662" y="351"/>
      <point x="599" y="351" type="curve" smooth="yes"/>
      <point x="549" y="351" type="line"/>
      <point x="549" y="376" type="line"/>
      <point x="600" y="376" type="line" smooth="yes"/>
      <point x="658" y="376"/>
      <point x="696" y="405"/>
      <point x="696" y="469" type="curve" smooth="yes"/>
      <point x="696" y="529"/>
      <point x="661" y="553"/>
      <point x="612" y="553" type="curve" smooth="yes"/>
      <point x="568" y="553"/>
      <point x="530" y="534"/>
      <point x="500" y="510" type="curve"/>
      <point x="483" y="533" type="line"/>
      <point x="525" y="568"/>
      <point x="576" y="579"/>
      <point x="615" y="579" type="curve" smooth="yes"/>
      <point x="698" y="579"/>
      <point x="726" y="528"/>
      <point x="726" y="468" type="curve" smooth="yes"/>
      <point x="726" y="418"/>
      <point x="706" y="385"/>
      <point x="657" y="366" type="curve"/>
      <point x="657" y="365" type="line"/>
      <point x="704" y="354"/>
      <point x="740" y="326"/>
      <point x="740" y="260" type="curve" smooth="yes"/>
      <point x="740" y="186"/>
      <point x="694" y="135"/>
    </contour>
    <contour>
      <point x="369" y="144" type="line"/>
      <point x="369" y="484" type="line" smooth="yes"/>
      <point x="369" y="505"/>
      <point x="370" y="529"/>
      <point x="372" y="550" type="curve"/>
      <point x="367" y="545"/>
      <point x="359" y="538"/>
      <point x="346" y="528" type="curve" smooth="yes"/>
      <point x="335" y="519"/>
      <point x="302" y="494"/>
      <point x="271" y="471" type="curve"/>
      <point x="254" y="494" type="line"/>
      <point x="358" y="572" type="line"/>
      <point x="397" y="572" type="line"/>
      <point x="397" y="144" type="line"/>
    </contour>
  </outline>
</glyph>
<glyph name="circlednumrev14" format="2">
  <advance width="1000"/>
  <unicode hex="24EE"/>
  <anchor x="500" y="357" name="C"/>
  <anchor x="357" y="357" name="L"/>
  <anchor x="643" y="357" name="R"/>
  <anchor x="663" y="357" name="_L"/>
  <anchor x="367" y="357" name="_R"/>
  <anchor x="500" y="0" name="center"/>
  <outline>
    <contour>
      <point x="500" y="-55" type="curve" smooth="yes"/>
      <point x="728" y="-55"/>
      <point x="912" y="129"/>
      <point x="912" y="357" type="curve" smooth="yes"/>
      <point x="912" y="584"/>
      <point x="728" y="769"/>
      <point x="500" y="769" type="curve" smooth="yes"/>
      <point x="272" y="769"/>
      <point x="88" y="584"/>
      <point x="88" y="357" type="curve" smooth="yes"/>
      <point x="88" y="129"/>
      <point x="272" y="-55"/>
    </contour>
    <contour>
      <point x="258" y="144" type="line"/>
      <point x="258" y="171" type="line"/>
      <point x="364" y="171" type="line"/>
      <point x="364" y="484" type="line" smooth="yes"/>
      <point x="364" y="505"/>
      <point x="364" y="529"/>
      <point x="365" y="550" type="curve"/>
      <point x="362" y="545"/>
      <point x="354" y="538"/>
      <point x="341" y="528" type="curve" smooth="yes"/>
      <point x="331" y="519"/>
      <point x="298" y="494"/>
      <point x="269" y="471" type="curve"/>
      <point x="253" y="494" type="line"/>
      <point x="353" y="572" type="line"/>
      <point x="390" y="572" type="line"/>
      <point x="390" y="171" type="line"/>
      <point x="496" y="171" type="line"/>
      <point x="496" y="144" type="line"/>
    </contour>
    <contour>
      <point x="699" y="144" type="line"/>
      <point x="699" y="251" type="line"/>
      <point x="513" y="251" type="line"/>
      <point x="513" y="273" type="line"/>
      <point x="688" y="572" type="line"/>
      <point x="725" y="572" type="line"/>
      <point x="725" y="278" type="line"/>
      <point x="795" y="278" type="line"/>
      <point x="795" y="251" type="line"/>
      <point x="725" y="251" type="line"/>
      <point x="725" y="144" type="line"/>
    </contour>
    <contour>
      <point x="546" y="278" type="line"/>
      <point x="699" y="278" type="line"/>
      <point x="699" y="464" type="line" smooth="yes"/>
      <point x="699" y="496"/>
      <point x="699" y="528"/>
      <point x="700" y="548" type="curve"/>
      <point x="699" y="548" type="line"/>
      <point x="692" y="530"/>
      <point x="678" y="504"/>
      <point x="660" y="474" type="curve" smooth="yes"/>
    </contour>
  </outline>
</glyph>
<glyph name="fourteenblackcircle" format="2">
  <advance width="1000"/>
  <unicode hex="24EE"/>
  <note>
uni24EE
</note>
  <anchor x="500" y="0" name="center"/>
  <outline>
    <component base="_blackCircledComp"/>
    <contour>
      <point x="653" y="144" type="line"/>
      <point x="653" y="251" type="line"/>
      <point x="460" y="251" type="line"/>
      <point x="460" y="273" type="line"/>
      <point x="642" y="572" type="line"/>
      <point x="682" y="572" type="line"/>
      <point x="682" y="279" type="line"/>
      <point x="753" y="279" type="line"/>
      <point x="753" y="251" type="line"/>
      <point x="682" y="251" type="line"/>
      <point x="682" y="144" type="line"/>
    </contour>
    <contour>
      <point x="368" y="144" type="line"/>
      <point x="368" y="484" type="line" smooth="yes"/>
      <point x="368" y="505"/>
      <point x="369" y="529"/>
      <point x="371" y="550" type="curve"/>
      <point x="366" y="545"/>
      <point x="352" y="534"/>
      <point x="335" y="521" type="curve" smooth="yes"/>
      <point x="269" y="471" type="line"/>
      <point x="253" y="494" type="line"/>
      <point x="357" y="572" type="line"/>
      <point x="396" y="572" type="line"/>
      <point x="396" y="144" type="line"/>
    </contour>
    <contour>
      <point x="495" y="279" type="line"/>
      <point x="653" y="279" type="line"/>
      <point x="653" y="464" type="line" smooth="yes"/>
      <point x="653" y="496"/>
      <point x="653" y="528"/>
      <point x="655" y="548" type="curve"/>
      <point x="653" y="548" type="line"/>
      <point x="646" y="530"/>
      <point x="631" y="504"/>
      <point x="613" y="474" type="curve" smooth="yes"/>
    </contour>
  </outline>
</glyph>
<glyph name="seventeenblackcircle" format="2">
  <advance width="1000"/>
  <unicode hex="24F1"/>
  <note>
uni24F1
</note>
  <anchor x="500" y="0" name="center"/>
  <outline>
    <component base="_blackCircledComp"/>
    <contour>
      <point x="533" y="144" type="line"/>
      <point x="703" y="544" type="line"/>
      <point x="483" y="544" type="line"/>
      <point x="483" y="572" type="line"/>
      <point x="737" y="572" type="line"/>
      <point x="737" y="550" type="line"/>
      <point x="565" y="144" type="line"/>
    </contour>
    <contour>
      <point x="374" y="144" type="line"/>
      <point x="374" y="484" type="line" smooth="yes"/>
      <point x="374" y="505"/>
      <point x="375" y="529"/>
      <point x="377" y="550" type="curve"/>
      <point x="372" y="545"/>
      <point x="364" y="538"/>
      <point x="351" y="528" type="curve" smooth="yes"/>
      <point x="340" y="519"/>
      <point x="307" y="494"/>
      <point x="275" y="471" type="curve"/>
      <point x="259" y="494" type="line"/>
      <point x="363" y="572" type="line"/>
      <point x="402" y="572" type="line"/>
      <point x="402" y="144" type="line"/>
    </contour>
  </outline>
</glyph>
<glyph name="circlednumrev20" format="2">
  <advance width="1000"/>
  <unicode hex="24F4"/>
  <anchor x="500" y="357" name="C"/>
  <anchor x="357" y="357" name="L"/>
  <anchor x="643" y="357" name="R"/>
  <anchor x="663" y="357" name="_L"/>
  <anchor x="377" y="357" name="_R"/>
  <anchor x="500" y="0" name="center"/>
  <outline>
    <contour>
      <point x="500" y="-55" type="curve" smooth="yes"/>
      <point x="728" y="-55"/>
      <point x="912" y="129"/>
      <point x="912" y="357" type="curve" smooth="yes"/>
      <point x="912" y="584"/>
      <point x="728" y="769"/>
      <point x="500" y="769" type="curve" smooth="yes"/>
      <point x="272" y="769"/>
      <point x="88" y="584"/>
      <point x="88" y="357" type="curve" smooth="yes"/>
      <point x="88" y="129"/>
      <point x="272" y="-55"/>
    </contour>
    <contour>
      <point x="248" y="144" type="line"/>
      <point x="248" y="166" type="line"/>
      <point x="367" y="297" type="line" smooth="yes"/>
      <point x="427" y="363"/>
      <point x="453" y="402"/>
      <point x="453" y="462" type="curve" smooth="yes"/>
      <point x="453" y="526"/>
      <point x="423" y="553"/>
      <point x="379" y="553" type="curve" smooth="yes"/>
      <point x="344" y="553"/>
      <point x="304" y="537"/>
      <point x="266" y="502" type="curve"/>
      <point x="252" y="525" type="line"/>
      <point x="297" y="566"/>
      <point x="345" y="579"/>
      <point x="380" y="579" type="curve" smooth="yes"/>
      <point x="448" y="579"/>
      <point x="482" y="537"/>
      <point x="482" y="466" type="curve" smooth="yes"/>
      <point x="482" y="400"/>
      <point x="451" y="354"/>
      <point x="397" y="292" type="curve" smooth="yes"/>
      <point x="267" y="146" type="line"/>
      <point x="267" y="171" type="line"/>
      <point x="486" y="171" type="line"/>
      <point x="486" y="144" type="line"/>
    </contour>
    <contour>
      <point x="653" y="135" type="curve" smooth="yes"/>
      <point x="568" y="135"/>
      <point x="521" y="204"/>
      <point x="521" y="359" type="curve" smooth="yes"/>
      <point x="521" y="512"/>
      <point x="571" y="579"/>
      <point x="653" y="579" type="curve" smooth="yes"/>
      <point x="736" y="579"/>
      <point x="785" y="512"/>
      <point x="785" y="359" type="curve" smooth="yes"/>
      <point x="785" y="204"/>
      <point x="739" y="135"/>
    </contour>
    <contour>
      <point x="653" y="161" type="curve" smooth="yes"/>
      <point x="718" y="161"/>
      <point x="757" y="226"/>
      <point x="757" y="357" type="curve" smooth="yes"/>
      <point x="757" y="488"/>
      <point x="724" y="553"/>
      <point x="653" y="553" type="curve" smooth="yes"/>
      <point x="583" y="553"/>
      <point x="550" y="488"/>
      <point x="550" y="357" type="curve" smooth="yes"/>
      <point x="550" y="226"/>
      <point x="588" y="161"/>
    </contour>
  </outline>
</glyph>
<glyph name="circlednumrev0" format="2">
  <advance width="1000"/>
  <unicode hex="24FF"/>
  <anchor x="500" y="357" name="C"/>
  <anchor x="357" y="357" name="L"/>
  <anchor x="643" y="357" name="R"/>
  <anchor x="500" y="0" name="center"/>
  <outline>
    <contour>
      <point x="500" y="-55" type="curve" smooth="yes"/>
      <point x="728" y="-55"/>
      <point x="912" y="129"/>
      <point x="912" y="357" type="curve" smooth="yes"/>
      <point x="912" y="584"/>
      <point x="728" y="769"/>
      <point x="500" y="769" type="curve" smooth="yes"/>
      <point x="272" y="769"/>
      <point x="88" y="584"/>
      <point x="88" y="357" type="curve" smooth="yes"/>
      <point x="88" y="129"/>
      <point x="272" y="-55"/>
    </contour>
    <contour>
      <point x="500" y="135" type="curve" smooth="yes"/>
      <point x="417" y="135"/>
      <point x="344" y="190"/>
      <point x="344" y="357" type="curve" smooth="yes"/>
      <point x="344" y="524"/>
      <point x="417" y="579"/>
      <point x="500" y="579" type="curve" smooth="yes"/>
      <point x="583" y="579"/>
      <point x="656" y="524"/>
      <point x="656" y="357" type="curve" smooth="yes"/>
      <point x="656" y="190"/>
      <point x="583" y="135"/>
    </contour>
    <contour>
      <point x="500" y="162" type="curve" smooth="yes"/>
      <point x="574" y="162"/>
      <point x="624" y="218"/>
      <point x="624" y="357" type="curve" smooth="yes"/>
      <point x="624" y="496"/>
      <point x="574" y="552"/>
      <point x="500" y="552" type="curve" smooth="yes"/>
      <point x="426" y="552"/>
      <point x="376" y="496"/>
      <point x="376" y="357" type="curve" smooth="yes"/>
      <point x="376" y="218"/>
      <point x="428" y="162"/>
    </contour>
  </outline>
</glyph>
<glyph name="zeroblackcircle" format="2">
  <advance width="1000"/>
  <unicode hex="24FF"/>
  <anchor x="500" y="0" name="center"/>
  <outline>
    <component base="_blackCircledComp"/>
    <contour>
      <point x="500" y="95" type="curve" smooth="yes"/>
      <point x="415" y="95"/>
      <point x="348" y="183"/>
      <point x="348" y="357" type="curve" smooth="yes"/>
      <point x="348" y="531"/>
      <point x="415" y="619"/>
      <point x="500" y="619" type="curve" smooth="yes"/>
      <point x="585" y="619"/>
      <point x="652" y="531"/>
      <point x="652" y="357" type="curve" smooth="yes"/>
      <point x="652" y="183"/>
      <point x="585" y="95"/>
    </contour>
    <contour>
      <point x="500" y="115" type="curve" smooth="yes"/>
      <point x="589" y="115"/>
      <point x="622" y="239"/>
      <point x="622" y="357" type="curve" smooth="yes"/>
      <point x="622" y="475"/>
      <point x="589" y="598"/>
      <point x="500" y="598" type="curve" smooth="yes"/>
      <point x="411" y="598"/>
      <point x="378" y="475"/>
      <point x="378" y="357" type="curve" smooth="yes"/>
      <point x="378" y="239"/>
      <point x="411" y="115"/>
    </contour>
  </outline>
</glyph>
<glyph name="circlednumrev4" format="2">
  <advance width="1000"/>
  <unicode hex="2779"/>
  <anchor x="500" y="357" name="C"/>
  <anchor x="357" y="357" name="L"/>
  <anchor x="643" y="357" name="R"/>
  <anchor x="500" y="0" name="center"/>
  <outline>
    <contour>
      <point x="500" y="-55" type="curve" smooth="yes"/>
      <point x="728" y="-55"/>
      <point x="912" y="129"/>
      <point x="912" y="357" type="curve" smooth="yes"/>
      <point x="912" y="584"/>
      <point x="728" y="769"/>
      <point x="500" y="769" type="curve" smooth="yes"/>
      <point x="272" y="769"/>
      <point x="88" y="584"/>
      <point x="88" y="357" type="curve" smooth="yes"/>
      <point x="88" y="129"/>
      <point x="272" y="-55"/>
    </contour>
    <contour>
      <point x="542" y="144" type="line"/>
      <point x="542" y="251" type="line"/>
      <point x="340" y="251" type="line"/>
      <point x="340" y="273" type="line"/>
      <point x="531" y="572" type="line"/>
      <point x="571" y="572" type="line"/>
      <point x="571" y="278" type="line"/>
      <point x="642" y="278" type="line"/>
      <point x="642" y="251" type="line"/>
      <point x="571" y="251" type="line"/>
      <point x="571" y="144" type="line"/>
    </contour>
    <contour>
      <point x="374" y="278" type="line"/>
      <point x="542" y="278" type="line"/>
      <point x="542" y="464" type="line" smooth="yes"/>
      <point x="542" y="496"/>
      <point x="543" y="528"/>
      <point x="544" y="548" type="curve"/>
      <point x="543" y="548" type="line"/>
      <point x="535" y="530"/>
      <point x="519" y="503"/>
      <point x="500" y="474" type="curve" smooth="yes"/>
    </contour>
  </outline>
</glyph>
<glyph name="fourblackcircle" format="2">
  <advance width="1000"/>
  <unicode hex="2779"/>
  <note>
uni2779
</note>
  <anchor x="500" y="0" name="center"/>
  <outline>
    <component base="_blackCircledComp"/>
    <contour>
      <point x="464" y="105" type="line"/>
      <point x="464" y="124" type="line"/>
      <point x="535" y="124"/>
      <point x="547" y="128"/>
      <point x="547" y="169" type="curve" smooth="yes"/>
      <point x="547" y="238" type="line"/>
      <point x="288" y="238" type="line"/>
      <point x="288" y="268" type="line"/>
      <point x="547" y="619" type="line"/>
      <point x="577" y="619" type="line"/>
      <point x="577" y="266" type="line"/>
      <point x="661" y="266" type="line"/>
      <point x="661" y="238" type="line"/>
      <point x="577" y="238" type="line"/>
      <point x="577" y="170" type="line" smooth="yes"/>
      <point x="577" y="130"/>
      <point x="586" y="124"/>
      <point x="652" y="124" type="curve"/>
      <point x="652" y="105" type="line"/>
    </contour>
    <contour>
      <point x="314" y="266" type="line"/>
      <point x="547" y="266" type="line"/>
      <point x="547" y="581" type="line"/>
    </contour>
  </outline>
</glyph>
<glyph name="circlednumrev6" format="2">
  <advance width="1000"/>
  <unicode hex="277B"/>
  <anchor x="500" y="357" name="C"/>
  <anchor x="357" y="357" name="L"/>
  <anchor x="643" y="357" name="R"/>
  <anchor x="500" y="0" name="center"/>
  <outline>
    <contour>
      <point x="500" y="-55" type="curve" smooth="yes"/>
      <point x="728" y="-55"/>
      <point x="912" y="129"/>
      <point x="912" y="357" type="curve" smooth="yes"/>
      <point x="912" y="584"/>
      <point x="728" y="769"/>
      <point x="500" y="769" type="curve" smooth="yes"/>
      <point x="272" y="769"/>
      <point x="88" y="584"/>
      <point x="88" y="357" type="curve" smooth="yes"/>
      <point x="88" y="129"/>
      <point x="272" y="-55"/>
    </contour>
    <contour>
      <point x="497" y="134" type="curve" smooth="yes"/>
      <point x="407" y="134"/>
      <point x="344" y="192"/>
      <point x="344" y="339" type="curve" smooth="yes"/>
      <point x="344" y="522"/>
      <point x="430" y="579"/>
      <point x="534" y="579" type="curve" smooth="yes"/>
      <point x="561" y="579"/>
      <point x="586" y="575"/>
      <point x="601" y="571" type="curve"/>
      <point x="601" y="542" type="line"/>
      <point x="583" y="548"/>
      <point x="558" y="552"/>
      <point x="532" y="552" type="curve" smooth="yes"/>
      <point x="452" y="552"/>
      <point x="378" y="515"/>
      <point x="375" y="351" type="curve"/>
      <point x="376" y="351" type="line"/>
      <point x="404" y="401"/>
      <point x="460" y="412"/>
      <point x="502" y="412" type="curve" smooth="yes"/>
      <point x="588" y="412"/>
      <point x="641" y="366"/>
      <point x="641" y="281" type="curve" smooth="yes"/>
      <point x="641" y="193"/>
      <point x="587" y="134"/>
    </contour>
    <contour>
      <point x="499" y="161" type="curve" smooth="yes"/>
      <point x="563" y="161"/>
      <point x="609" y="201"/>
      <point x="609" y="281" type="curve" smooth="yes"/>
      <point x="609" y="353"/>
      <point x="572" y="385"/>
      <point x="498" y="385" type="curve" smooth="yes"/>
      <point x="415" y="385"/>
      <point x="377" y="345"/>
      <point x="377" y="284" type="curve" smooth="yes"/>
      <point x="377" y="213"/>
      <point x="427" y="161"/>
    </contour>
  </outline>
</glyph>
<glyph name="sixblackcircle" format="2">
  <advance width="1000"/>
  <unicode hex="277B"/>
  <note>
uni277B
</note>
  <anchor x="500" y="0" name="center"/>
  <outline>
    <component base="_blackCircledComp"/>
    <contour>
      <point x="491" y="95" type="curve" smooth="yes"/>
      <point x="398" y="95"/>
      <point x="336" y="179"/>
      <point x="336" y="345" type="curve" smooth="yes"/>
      <point x="336" y="519"/>
      <point x="402" y="619"/>
      <point x="512" y="619" type="curve" smooth="yes"/>
      <point x="565" y="619"/>
      <point x="622" y="596"/>
      <point x="622" y="546" type="curve" smooth="yes"/>
      <point x="622" y="527"/>
      <point x="614" y="509"/>
      <point x="593" y="509" type="curve" smooth="yes"/>
      <point x="577" y="509"/>
      <point x="563" y="519"/>
      <point x="563" y="541" type="curve" smooth="yes"/>
      <point x="563" y="554"/>
      <point x="568" y="565"/>
      <point x="577" y="574" type="curve"/>
      <point x="567" y="592"/>
      <point x="539" y="599"/>
      <point x="513" y="599" type="curve" smooth="yes"/>
      <point x="425" y="599"/>
      <point x="372" y="523"/>
      <point x="372" y="355" type="curve" smooth="yes"/>
      <point x="372" y="342" type="line"/>
      <point x="418" y="394"/>
      <point x="467" y="411"/>
      <point x="511" y="411" type="curve" smooth="yes"/>
      <point x="593" y="411"/>
      <point x="641" y="357"/>
      <point x="641" y="270" type="curve" smooth="yes"/>
      <point x="641" y="173"/>
      <point x="582" y="95"/>
    </contour>
    <contour>
      <point x="495" y="116" type="curve" smooth="yes"/>
      <point x="569" y="116"/>
      <point x="605" y="170"/>
      <point x="605" y="254" type="curve" smooth="yes"/>
      <point x="605" y="341"/>
      <point x="567" y="385"/>
      <point x="501" y="385" type="curve" smooth="yes"/>
      <point x="454" y="385"/>
      <point x="408" y="358"/>
      <point x="372" y="318" type="curve"/>
      <point x="377" y="143"/>
      <point x="434" y="116"/>
    </contour>
  </outline>
</glyph>
<glyph name="nineblackcircle" format="2">
  <advance width="1000"/>
  <unicode hex="277E"/>
  <note>
uni277E
</note>
  <anchor x="500" y="0" name="center"/>
  <outline>
    <component base="_blackCircledComp"/>
    <contour>
      <point x="491" y="95" type="curve" smooth="yes"/>
      <point x="438" y="95"/>
      <point x="377" y="118"/>
      <point x="377" y="168" type="curve" smooth="yes"/>
      <point x="377" y="187"/>
      <point x="385" y="205"/>
      <point x="406" y="205" type="curve" smooth="yes"/>
      <point x="422" y="205"/>
      <point x="436" y="195"/>
      <point x="436" y="173" type="curve" smooth="yes"/>
      <point x="436" y="160"/>
      <point x="431" y="149"/>
      <point x="422" y="140" type="curve"/>
      <point x="433" y="122"/>
      <point x="463" y="115"/>
      <point x="489" y="115" type="curve" smooth="yes"/>
      <point x="575" y="115"/>
      <point x="621" y="182"/>
      <point x="621" y="349" type="curve" smooth="yes"/>
      <point x="621" y="362" type="line"/>
      <point x="575" y="318"/>
      <point x="526" y="304"/>
      <point x="482" y="304" type="curve" smooth="yes"/>
      <point x="400" y="304"/>
      <point x="352" y="365"/>
      <point x="352" y="451" type="curve" smooth="yes"/>
      <point x="352" y="548"/>
      <point x="413" y="619"/>
      <point x="501" y="619" type="curve" smooth="yes"/>
      <point x="597" y="619"/>
      <point x="657" y="535"/>
      <point x="657" y="369" type="curve" smooth="yes"/>
      <point x="657" y="189"/>
      <point x="598" y="95"/>
    </contour>
    <contour>
      <point x="492" y="329" type="curve" smooth="yes"/>
      <point x="539" y="329"/>
      <point x="585" y="352"/>
      <point x="621" y="386" type="curve"/>
      <point x="616" y="565"/>
      <point x="561" y="598"/>
      <point x="504" y="598" type="curve" smooth="yes"/>
      <point x="430" y="598"/>
      <point x="388" y="544"/>
      <point x="388" y="457" type="curve" smooth="yes"/>
      <point x="388" y="373"/>
      <point x="426" y="329"/>
    </contour>
  </outline>
</glyph>
<glyph name="tenblackcircle" format="2">
  <advance width="1000"/>
  <unicode hex="277F"/>
  <note>
uni277F
</note>
  <anchor x="500" y="0" name="center"/>
  <outline>
    <component base="_blackCircledComp"/>
    <contour>
      <point x="625" y="95" type="curve" smooth="yes"/>
      <point x="540" y="95"/>
      <point x="473" y="183"/>
      <point x="473" y="357" type="curve" smooth="yes"/>
      <point x="473" y="531"/>
      <point x="540" y="619"/>
      <point x="625" y="619" type="curve" smooth="yes"/>
      <point x="710" y="619"/>
      <point x="777" y="531"/>
      <point x="777" y="357" type="curve" smooth="yes"/>
      <point x="777" y="183"/>
      <point x="710" y="95"/>
    </contour>
    <contour>
      <point x="267" y="105" type="line"/>
      <point x="267" y="124" type="line"/>
      <point x="337" y="124"/>
      <point x="353" y="127"/>
      <point x="353" y="170" type="curve" smooth="yes"/>
      <point x="353" y="559" type="line"/>
      <point x="277" y="559" type="line"/>
      <point x="277" y="575" type="line"/>
      <point x="308" y="581"/>
      <point x="343" y="596"/>
      <point x="361" y="611" type="curve"/>
      <point x="381" y="611" type="line"/>
      <point x="381" y="170" type="line" smooth="yes"/>
      <point x="381" y="127"/>
      <point x="397" y="124"/>
      <point x="467" y="124" type="curve"/>
      <point x="467" y="105" type="line"/>
    </contour>
    <contour>
      <point x="625" y="115" type="curve" smooth="yes"/>
      <point x="714" y="115"/>
      <point x="747" y="239"/>
      <point x="747" y="357" type="curve" smooth="yes"/>
      <point x="747" y="475"/>
      <point x="714" y="598"/>
      <point x="625" y="598" type="curve" smooth="yes"/>
      <point x="536" y="598"/>
      <point x="503" y="475"/>
      <point x="503" y="357" type="curve" smooth="yes"/>
      <point x="503" y="239"/>
      <point x="536" y="115"/>
    </contour>
  </outline>
</glyph>
<glyph name="topleftHalfBracket" format="2">
  <advance width="327"/>
  <unicode hex="2E22"/>
  <outline>
    <contour>
      <point x="113" y="280" type="line"/>
      <point x="113" y="689" type="line"/>
      <point x="288" y="689" type="line"/>
      <point x="288" y="714" type="line"/>
      <point x="88" y="714" type="line"/>
      <point x="88" y="280" type="line"/>
    </contour>
  </outline>
</glyph>
<glyph name="toprightHalfBracket" format="2">
  <advance width="327"/>
  <unicode hex="2E23"/>
  <outline>
    <contour>
      <point x="222" y="280" type="line"/>
      <point x="247" y="280" type="line"/>
      <point x="247" y="714" type="line"/>
      <point x="47" y="714" type="line"/>
      <point x="47" y="689" type="line"/>
      <point x="222" y="689" type="line"/>
    </contour>
  </outline>
</glyph>
<glyph name="bottomrightHalfBracket" format="2">
  <advance width="327"/>
  <unicode hex="2E25"/>
  <outline>
    <contour>
      <point x="222" y="276" type="line"/>
      <point x="222" y="-133" type="line"/>
      <point x="47" y="-133" type="line"/>
      <point x="47" y="-158" type="line"/>
      <point x="247" y="-158" type="line"/>
      <point x="247" y="276" type="line"/>
    </contour>
  </outline>
</glyph>
<glyph name="_eightdouble" format="2">
  <advance width="1000"/>
  <anchor x="510" y="357" name="_L"/>
  <anchor x="490" y="357" name="_R"/>
  <outline>
    <contour>
      <point x="498" y="135" type="curve" smooth="yes"/>
      <point x="578" y="135"/>
      <point x="630" y="179"/>
      <point x="630" y="246" type="curve" smooth="yes"/>
      <point x="630" y="298"/>
      <point x="601" y="338"/>
      <point x="529" y="365" type="curve"/>
      <point x="594" y="394"/>
      <point x="617" y="436"/>
      <point x="617" y="478" type="curve" smooth="yes"/>
      <point x="617" y="534"/>
      <point x="576" y="579"/>
      <point x="500" y="579" type="curve" smooth="yes"/>
      <point x="428" y="579"/>
      <point x="384" y="537"/>
      <point x="384" y="473" type="curve" smooth="yes"/>
      <point x="384" y="421"/>
      <point x="411" y="389"/>
      <point x="455" y="365" type="curve"/>
      <point x="395" y="343"/>
      <point x="370" y="297"/>
      <point x="370" y="246" type="curve" smooth="yes"/>
      <point x="370" y="165"/>
      <point x="432" y="135"/>
    </contour>
    <contour>
      <point x="498" y="161" type="curve" smooth="yes"/>
      <point x="433" y="161"/>
      <point x="400" y="193"/>
      <point x="400" y="247" type="curve" smooth="yes"/>
      <point x="400" y="298"/>
      <point x="428" y="333"/>
      <point x="485" y="351" type="curve"/>
      <point x="495" y="347" type="line" smooth="yes"/>
      <point x="574" y="319"/>
      <point x="600" y="287"/>
      <point x="600" y="245" type="curve" smooth="yes"/>
      <point x="600" y="197"/>
      <point x="566" y="161"/>
    </contour>
    <contour>
      <point x="497" y="378" type="curve"/>
      <point x="435" y="403"/>
      <point x="414" y="436"/>
      <point x="414" y="474" type="curve" smooth="yes"/>
      <point x="414" y="520"/>
      <point x="444" y="553"/>
      <point x="500" y="553" type="curve" smooth="yes"/>
      <point x="557" y="553"/>
      <point x="586" y="521"/>
      <point x="586" y="477" type="curve" smooth="yes"/>
      <point x="586" y="434"/>
      <point x="558" y="400"/>
    </contour>
  </outline>
</glyph>
<glyph name="_fivedouble" format="2">
  <advance width="1000"/>
  <anchor x="510" y="357" name="_L"/>
  <anchor x="490" y="357" name="_R"/>
  <outline>
    <contour>
      <point x="496" y="135" type="curve" smooth="yes"/>
      <point x="582" y="135"/>
      <point x="636" y="184"/>
      <point x="636" y="274" type="curve" smooth="yes"/>
      <point x="636" y="373"/>
      <point x="568" y="406"/>
      <point x="495" y="406" type="curve" smooth="yes"/>
      <point x="467" y="406"/>
      <point x="438" y="400"/>
      <point x="420" y="393" type="curve"/>
      <point x="430" y="545" type="line"/>
      <point x="615" y="545" type="line"/>
      <point x="615" y="572" type="line"/>
      <point x="404" y="572" type="line"/>
      <point x="390" y="375" type="line"/>
      <point x="410" y="362" type="line"/>
      <point x="438" y="375"/>
      <point x="467" y="379"/>
      <point x="491" y="379" type="curve" smooth="yes"/>
      <point x="561" y="379"/>
      <point x="605" y="343"/>
      <point x="605" y="271" type="curve" smooth="yes"/>
      <point x="605" y="201"/>
      <point x="565" y="161"/>
      <point x="496" y="161" type="curve" smooth="yes"/>
      <point x="457" y="161"/>
      <point x="419" y="173"/>
      <point x="380" y="196" type="curve"/>
      <point x="380" y="165" type="line"/>
      <point x="403" y="152"/>
      <point x="445" y="135"/>
    </contour>
  </outline>
</glyph>
<glyph name="_four" format="2">
  <advance width="1000"/>
  <anchor x="500" y="357" name="_C"/>
  <outline>
    <contour>
      <point x="532" y="144" type="line"/>
      <point x="561" y="144" type="line"/>
      <point x="561" y="251" type="line"/>
      <point x="632" y="251" type="line"/>
      <point x="632" y="278" type="line"/>
      <point x="561" y="278" type="line"/>
      <point x="561" y="572" type="line"/>
      <point x="521" y="572" type="line"/>
      <point x="330" y="273" type="line"/>
      <point x="330" y="251" type="line"/>
      <point x="532" y="251" type="line"/>
    </contour>
    <contour>
      <point x="364" y="278" type="line"/>
      <point x="490" y="474" type="line" smooth="yes"/>
      <point x="509" y="503"/>
      <point x="525" y="530"/>
      <point x="533" y="548" type="curve"/>
      <point x="534" y="548" type="line"/>
      <point x="533" y="528"/>
      <point x="532" y="496"/>
      <point x="532" y="464" type="curve" smooth="yes"/>
      <point x="532" y="278" type="line"/>
    </contour>
  </outline>
</glyph>
<glyph name="_fourdouble" format="2">
  <advance width="1000"/>
  <anchor x="510" y="357" name="_L"/>
  <anchor x="490" y="357" name="_R"/>
  <outline>
    <contour>
      <point x="546" y="144" type="line"/>
      <point x="572" y="144" type="line"/>
      <point x="572" y="251" type="line"/>
      <point x="642" y="251" type="line"/>
      <point x="642" y="278" type="line"/>
      <point x="572" y="278" type="line"/>
      <point x="572" y="572" type="line"/>
      <point x="535" y="572" type="line"/>
      <point x="360" y="273" type="line"/>
      <point x="360" y="251" type="line"/>
      <point x="546" y="251" type="line"/>
    </contour>
    <contour>
      <point x="393" y="278" type="line"/>
      <point x="507" y="474" type="line" smooth="yes"/>
      <point x="525" y="504"/>
      <point x="539" y="530"/>
      <point x="546" y="548" type="curve"/>
      <point x="547" y="548" type="line"/>
      <point x="546" y="528"/>
      <point x="546" y="496"/>
      <point x="546" y="464" type="curve" smooth="yes"/>
      <point x="546" y="278" type="line"/>
    </contour>
  </outline>
</glyph>
<glyph name="_nine" format="2">
  <advance width="1000"/>
  <anchor x="500" y="357" name="_C"/>
  <outline>
    <contour>
      <point x="469" y="134" type="curve" smooth="yes"/>
      <point x="575" y="134"/>
      <point x="656" y="189"/>
      <point x="656" y="374" type="curve" smooth="yes"/>
      <point x="656" y="527"/>
      <point x="597" y="579"/>
      <point x="508" y="579" type="curve" smooth="yes"/>
      <point x="414" y="579"/>
      <point x="360" y="520"/>
      <point x="360" y="436" type="curve" smooth="yes"/>
      <point x="360" y="351"/>
      <point x="416" y="301"/>
      <point x="500" y="301" type="curve" smooth="yes"/>
      <point x="541" y="301"/>
      <point x="597" y="313"/>
      <point x="624" y="363" type="curve"/>
      <point x="626" y="363" type="line"/>
      <point x="623" y="197"/>
      <point x="551" y="161"/>
      <point x="468" y="161" type="curve" smooth="yes"/>
      <point x="441" y="161"/>
      <point x="417" y="165"/>
      <point x="399" y="171" type="curve"/>
      <point x="399" y="143" type="line"/>
      <point x="414" y="138"/>
      <point x="441" y="134"/>
    </contour>
    <contour>
      <point x="506" y="328" type="curve" smooth="yes"/>
      <point x="431" y="328"/>
      <point x="391" y="363"/>
      <point x="391" y="436" type="curve" smooth="yes"/>
      <point x="391" y="513"/>
      <point x="437" y="553"/>
      <point x="505" y="553" type="curve" smooth="yes"/>
      <point x="578" y="553"/>
      <point x="623" y="506"/>
      <point x="623" y="432" type="curve" smooth="yes"/>
      <point x="623" y="368"/>
      <point x="586" y="328"/>
    </contour>
  </outline>
</glyph>
<glyph name="_ninedouble" format="2">
  <advance width="1000"/>
  <anchor x="510" y="357" name="_L"/>
  <anchor x="490" y="357" name="_R"/>
  <outline>
    <contour>
      <point x="466" y="134" type="curve" smooth="yes"/>
      <point x="562" y="134"/>
      <point x="638" y="187"/>
      <point x="638" y="372" type="curve" smooth="yes"/>
      <point x="638" y="528"/>
      <point x="583" y="579"/>
      <point x="499" y="579" type="curve" smooth="yes"/>
      <point x="409" y="579"/>
      <point x="362" y="519"/>
      <point x="362" y="437" type="curve" smooth="yes"/>
      <point x="362" y="352"/>
      <point x="413" y="301"/>
      <point x="491" y="301" type="curve" smooth="yes"/>
      <point x="527" y="301"/>
      <point x="581" y="313"/>
      <point x="606" y="362" type="curve"/>
      <point x="608" y="362" type="line"/>
      <point x="605" y="193"/>
      <point x="542" y="161"/>
      <point x="468" y="161" type="curve" smooth="yes"/>
      <point x="443" y="161"/>
      <point x="414" y="165"/>
      <point x="398" y="171" type="curve"/>
      <point x="398" y="143" type="line"/>
      <point x="411" y="138"/>
      <point x="440" y="134"/>
    </contour>
    <contour>
      <point x="494" y="327" type="curve" smooth="yes"/>
      <point x="427" y="327"/>
      <point x="392" y="363"/>
      <point x="392" y="436" type="curve" smooth="yes"/>
      <point x="392" y="512"/>
      <point x="432" y="553"/>
      <point x="496" y="553" type="curve" smooth="yes"/>
      <point x="564" y="553"/>
      <point x="604" y="506"/>
      <point x="604" y="430" type="curve" smooth="yes"/>
      <point x="604" y="367"/>
      <point x="564" y="327"/>
    </contour>
  </outline>
</glyph>
<glyph name="_one" format="2">
  <advance width="1000"/>
  <anchor x="500" y="357" name="_C"/>
  <outline>
    <contour>
      <point x="486" y="144" type="line"/>
      <point x="514" y="144" type="line"/>
      <point x="514" y="572" type="line"/>
      <point x="475" y="572" type="line"/>
      <point x="355" y="480" type="line"/>
      <point x="371" y="458" type="line"/>
      <point x="402" y="481"/>
      <point x="452" y="519"/>
      <point x="463" y="528" type="curve" smooth="yes"/>
      <point x="476" y="538"/>
      <point x="484" y="545"/>
      <point x="489" y="550" type="curve"/>
      <point x="487" y="529"/>
      <point x="486" y="505"/>
      <point x="486" y="484" type="curve" smooth="yes"/>
    </contour>
    <contour>
      <point x="355" y="144" type="line"/>
      <point x="645" y="144" type="line"/>
      <point x="645" y="171" type="line"/>
      <point x="355" y="171" type="line"/>
    </contour>
  </outline>
</glyph>
<glyph name="_onedouble" format="2">
  <advance width="1000"/>
  <anchor x="510" y="357" name="_L"/>
  <anchor x="490" y="357" name="_R"/>
  <outline>
    <contour>
      <point x="486" y="144" type="line"/>
      <point x="514" y="144" type="line"/>
      <point x="514" y="572" type="line"/>
      <point x="475" y="572" type="line"/>
      <point x="371" y="494" type="line"/>
      <point x="387" y="471" type="line"/>
      <point x="418" y="494"/>
      <point x="452" y="519"/>
      <point x="463" y="528" type="curve" smooth="yes"/>
      <point x="476" y="538"/>
      <point x="484" y="545"/>
      <point x="488" y="550" type="curve"/>
      <point x="486" y="529"/>
      <point x="486" y="505"/>
      <point x="486" y="484" type="curve" smooth="yes"/>
    </contour>
    <contour>
      <point x="376" y="144" type="line"/>
      <point x="624" y="144" type="line"/>
      <point x="624" y="171" type="line"/>
      <point x="376" y="171" type="line"/>
    </contour>
  </outline>
</glyph>
<glyph name="_seven" format="2">
  <advance width="1000"/>
  <anchor x="500" y="357" name="_C"/>
  <outline>
    <contour>
      <point x="433" y="144" type="line"/>
      <point x="464" y="144" type="line"/>
      <point x="651" y="550" type="line"/>
      <point x="651" y="572" type="line"/>
      <point x="376" y="572" type="line"/>
      <point x="376" y="545" type="line"/>
      <point x="619" y="545" type="line"/>
    </contour>
  </outline>
</glyph>
<glyph name="_sevendouble" format="2">
  <advance width="1000"/>
  <anchor x="510" y="357" name="_L"/>
  <anchor x="490" y="357" name="_R"/>
  <outline>
    <contour>
      <point x="412" y="144" type="line"/>
      <point x="444" y="144" type="line"/>
      <point x="616" y="550" type="line"/>
      <point x="616" y="572" type="line"/>
      <point x="362" y="572" type="line"/>
      <point x="362" y="545" type="line"/>
      <point x="583" y="545" type="line"/>
    </contour>
  </outline>
</glyph>
<glyph name="_six" format="2">
  <advance width="1000"/>
  <anchor x="500" y="357" name="_C"/>
  <outline>
    <contour>
      <point x="497" y="134" type="curve" smooth="yes"/>
      <point x="587" y="134"/>
      <point x="641" y="193"/>
      <point x="641" y="281" type="curve" smooth="yes"/>
      <point x="641" y="366"/>
      <point x="588" y="412"/>
      <point x="502" y="412" type="curve" smooth="yes"/>
      <point x="460" y="412"/>
      <point x="404" y="401"/>
      <point x="376" y="351" type="curve"/>
      <point x="375" y="351" type="line"/>
      <point x="378" y="515"/>
      <point x="452" y="552"/>
      <point x="532" y="552" type="curve" smooth="yes"/>
      <point x="558" y="552"/>
      <point x="583" y="548"/>
      <point x="601" y="542" type="curve"/>
      <point x="601" y="571" type="line"/>
      <point x="586" y="575"/>
      <point x="561" y="579"/>
      <point x="534" y="579" type="curve" smooth="yes"/>
      <point x="430" y="579"/>
      <point x="344" y="522"/>
      <point x="344" y="339" type="curve" smooth="yes"/>
      <point x="344" y="192"/>
      <point x="407" y="134"/>
    </contour>
    <contour>
      <point x="499" y="161" type="curve" smooth="yes"/>
      <point x="427" y="161"/>
      <point x="377" y="213"/>
      <point x="377" y="284" type="curve" smooth="yes"/>
      <point x="377" y="345"/>
      <point x="415" y="385"/>
      <point x="498" y="385" type="curve" smooth="yes"/>
      <point x="572" y="385"/>
      <point x="609" y="353"/>
      <point x="609" y="281" type="curve" smooth="yes"/>
      <point x="609" y="201"/>
      <point x="563" y="161"/>
    </contour>
  </outline>
</glyph>
<glyph name="_sixdouble" format="2">
  <advance width="1000"/>
  <anchor x="510" y="357" name="_L"/>
  <anchor x="490" y="357" name="_R"/>
  <outline>
    <contour>
      <point x="504" y="134" type="curve" smooth="yes"/>
      <point x="584" y="134"/>
      <point x="632" y="193"/>
      <point x="632" y="281" type="curve" smooth="yes"/>
      <point x="632" y="366"/>
      <point x="585" y="412"/>
      <point x="509" y="412" type="curve" smooth="yes"/>
      <point x="471" y="412"/>
      <point x="421" y="401"/>
      <point x="397" y="351" type="curve"/>
      <point x="396" y="351" type="line"/>
      <point x="399" y="515"/>
      <point x="464" y="553"/>
      <point x="536" y="553" type="curve" smooth="yes"/>
      <point x="560" y="553"/>
      <point x="582" y="549"/>
      <point x="598" y="542" type="curve"/>
      <point x="598" y="571" type="line"/>
      <point x="584" y="575"/>
      <point x="561" y="579"/>
      <point x="537" y="579" type="curve" smooth="yes"/>
      <point x="444" y="579"/>
      <point x="368" y="522"/>
      <point x="368" y="341" type="curve" smooth="yes"/>
      <point x="368" y="191"/>
      <point x="423" y="134"/>
    </contour>
    <contour>
      <point x="507" y="161" type="curve" smooth="yes"/>
      <point x="442" y="161"/>
      <point x="399" y="213"/>
      <point x="399" y="283" type="curve" smooth="yes"/>
      <point x="399" y="347"/>
      <point x="435" y="386"/>
      <point x="506" y="386" type="curve" smooth="yes"/>
      <point x="571" y="386"/>
      <point x="603" y="354"/>
      <point x="603" y="281" type="curve" smooth="yes"/>
      <point x="603" y="201"/>
      <point x="563" y="161"/>
    </contour>
  </outline>
</glyph>
<glyph name="_threedouble" format="2">
  <advance width="1000"/>
  <anchor x="510" y="357" name="_L"/>
  <anchor x="490" y="357" name="_R"/>
  <outline>
    <contour>
      <point x="497" y="135" type="curve" smooth="yes"/>
      <point x="581" y="135"/>
      <point x="635" y="186"/>
      <point x="635" y="260" type="curve" smooth="yes"/>
      <point x="635" y="334"/>
      <point x="581" y="361"/>
      <point x="528" y="368" type="curve"/>
      <point x="528" y="359" type="line"/>
      <point x="590" y="377"/>
      <point x="622" y="412"/>
      <point x="622" y="468" type="curve" smooth="yes"/>
      <point x="622" y="528"/>
      <point x="585" y="579"/>
      <point x="505" y="579" type="curve" smooth="yes"/>
      <point x="468" y="579"/>
      <point x="419" y="568"/>
      <point x="379" y="533" type="curve"/>
      <point x="395" y="510" type="line"/>
      <point x="424" y="534"/>
      <point x="460" y="553"/>
      <point x="502" y="553" type="curve" smooth="yes"/>
      <point x="550" y="553"/>
      <point x="593" y="529"/>
      <point x="593" y="469" type="curve" smooth="yes"/>
      <point x="593" y="405"/>
      <point x="547" y="376"/>
      <point x="491" y="376" type="curve" smooth="yes"/>
      <point x="442" y="376" type="line"/>
      <point x="442" y="351" type="line"/>
      <point x="490" y="351" type="line" smooth="yes"/>
      <point x="550" y="351"/>
      <point x="607" y="326"/>
      <point x="607" y="260" type="curve" smooth="yes"/>
      <point x="607" y="196"/>
      <point x="554" y="161"/>
      <point x="495" y="161" type="curve" smooth="yes"/>
      <point x="462" y="161"/>
      <point x="430" y="171"/>
      <point x="380" y="198" type="curve"/>
      <point x="380" y="168" type="line"/>
      <point x="414" y="146"/>
      <point x="456" y="135"/>
    </contour>
  </outline>
</glyph>
<glyph name="_twodouble" format="2">
  <advance width="1000"/>
  <anchor x="510" y="357" name="_L"/>
  <anchor x="490" y="357" name="_R"/>
  <outline>
    <contour>
      <point x="376" y="144" type="line"/>
      <point x="624" y="144" type="line"/>
      <point x="624" y="171" type="line"/>
      <point x="396" y="171" type="line"/>
      <point x="396" y="146" type="line"/>
      <point x="531" y="292" type="line" smooth="yes"/>
      <point x="588" y="354"/>
      <point x="620" y="400"/>
      <point x="620" y="466" type="curve" smooth="yes"/>
      <point x="620" y="537"/>
      <point x="584" y="579"/>
      <point x="514" y="579" type="curve" smooth="yes"/>
      <point x="477" y="579"/>
      <point x="427" y="566"/>
      <point x="380" y="525" type="curve"/>
      <point x="395" y="502" type="line"/>
      <point x="434" y="537"/>
      <point x="476" y="553"/>
      <point x="512" y="553" type="curve" smooth="yes"/>
      <point x="558" y="553"/>
      <point x="590" y="526"/>
      <point x="590" y="462" type="curve" smooth="yes"/>
      <point x="590" y="402"/>
      <point x="562" y="363"/>
      <point x="500" y="297" type="curve" smooth="yes"/>
      <point x="376" y="166" type="line"/>
    </contour>
  </outline>
</glyph>
<glyph name="_zero" format="2">
  <advance width="1000"/>
  <anchor x="500" y="357" name="_C"/>
  <outline>
    <contour>
      <point x="500" y="135" type="curve" smooth="yes"/>
      <point x="583" y="135"/>
      <point x="656" y="190"/>
      <point x="656" y="357" type="curve" smooth="yes"/>
      <point x="656" y="524"/>
      <point x="583" y="579"/>
      <point x="500" y="579" type="curve" smooth="yes"/>
      <point x="417" y="579"/>
      <point x="344" y="524"/>
      <point x="344" y="357" type="curve" smooth="yes"/>
      <point x="344" y="190"/>
      <point x="417" y="135"/>
    </contour>
    <contour>
      <point x="500" y="162" type="curve" smooth="yes"/>
      <point x="428" y="162"/>
      <point x="376" y="218"/>
      <point x="376" y="357" type="curve" smooth="yes"/>
      <point x="376" y="496"/>
      <point x="426" y="552"/>
      <point x="500" y="552" type="curve" smooth="yes"/>
      <point x="574" y="552"/>
      <point x="624" y="496"/>
      <point x="624" y="357" type="curve" smooth="yes"/>
      <point x="624" y="218"/>
      <point x="574" y="162"/>
    </contour>
  </outline>
</glyph>
<glyph name="_zerodouble" format="2">
  <advance width="1000"/>
  <anchor x="510" y="357" name="_L"/>
  <anchor x="490" y="357" name="_R"/>
  <outline>
    <contour>
      <point x="500" y="135" type="curve" smooth="yes"/>
      <point x="586" y="135"/>
      <point x="632" y="204"/>
      <point x="632" y="359" type="curve" smooth="yes"/>
      <point x="632" y="512"/>
      <point x="583" y="579"/>
      <point x="500" y="579" type="curve" smooth="yes"/>
      <point x="418" y="579"/>
      <point x="368" y="512"/>
      <point x="368" y="359" type="curve" smooth="yes"/>
      <point x="368" y="204"/>
      <point x="415" y="135"/>
    </contour>
    <contour>
      <point x="500" y="161" type="curve" smooth="yes"/>
      <point x="435" y="161"/>
      <point x="397" y="226"/>
      <point x="397" y="357" type="curve" smooth="yes"/>
      <point x="397" y="488"/>
      <point x="430" y="553"/>
      <point x="500" y="553" type="curve" smooth="yes"/>
      <point x="571" y="553"/>
      <point x="604" y="488"/>
      <point x="604" y="357" type="curve" smooth="yes"/>
      <point x="604" y="226"/>
      <point x="565" y="161"/>
    </contour>
  </outline>
</glyph>
<glyph name="circledblack00" format="2">
  <advance width="1000"/>
  <anchor x="500" y="357" name="C"/>
  <anchor x="357" y="357" name="L"/>
  <anchor x="643" y="357" name="R"/>
  <anchor x="663" y="357" name="_L"/>
  <anchor x="337" y="357" name="_R"/>
  <anchor x="500" y="0" name="center"/>
  <outline>
    <contour>
      <point x="500" y="-55" type="curve" smooth="yes"/>
      <point x="728" y="-55"/>
      <point x="912" y="129"/>
      <point x="912" y="357" type="curve" smooth="yes"/>
      <point x="912" y="584"/>
      <point x="728" y="769"/>
      <point x="500" y="769" type="curve" smooth="yes"/>
      <point x="272" y="769"/>
      <point x="88" y="584"/>
      <point x="88" y="357" type="curve" smooth="yes"/>
      <point x="88" y="129"/>
      <point x="272" y="-55"/>
    </contour>
    <contour>
      <point x="347" y="135" type="curve" smooth="yes"/>
      <point x="262" y="135"/>
      <point x="215" y="204"/>
      <point x="215" y="359" type="curve" smooth="yes"/>
      <point x="215" y="512"/>
      <point x="265" y="579"/>
      <point x="347" y="579" type="curve" smooth="yes"/>
      <point x="430" y="579"/>
      <point x="479" y="512"/>
      <point x="479" y="359" type="curve" smooth="yes"/>
      <point x="479" y="204"/>
      <point x="433" y="135"/>
    </contour>
    <contour>
      <point x="347" y="161" type="curve" smooth="yes"/>
      <point x="412" y="161"/>
      <point x="451" y="226"/>
      <point x="451" y="357" type="curve" smooth="yes"/>
      <point x="451" y="488"/>
      <point x="418" y="553"/>
      <point x="347" y="553" type="curve" smooth="yes"/>
      <point x="277" y="553"/>
      <point x="244" y="488"/>
      <point x="244" y="357" type="curve" smooth="yes"/>
      <point x="244" y="226"/>
      <point x="282" y="161"/>
    </contour>
    <contour>
      <point x="653" y="135" type="curve" smooth="yes"/>
      <point x="568" y="135"/>
      <point x="521" y="204"/>
      <point x="521" y="359" type="curve" smooth="yes"/>
      <point x="521" y="512"/>
      <point x="571" y="579"/>
      <point x="653" y="579" type="curve" smooth="yes"/>
      <point x="736" y="579"/>
      <point x="785" y="512"/>
      <point x="785" y="359" type="curve" smooth="yes"/>
      <point x="785" y="204"/>
      <point x="739" y="135"/>
    </contour>
    <contour>
      <point x="653" y="161" type="curve" smooth="yes"/>
      <point x="718" y="161"/>
      <point x="757" y="226"/>
      <point x="757" y="357" type="curve" smooth="yes"/>
      <point x="757" y="488"/>
      <point x="724" y="553"/>
      <point x="653" y="553" type="curve" smooth="yes"/>
      <point x="583" y="553"/>
      <point x="550" y="488"/>
      <point x="550" y="357" type="curve" smooth="yes"/>
      <point x="550" y="226"/>
      <point x="588" y="161"/>
    </contour>
  </outline>
</glyph>
<glyph name="circledblack1" format="2">
  <advance width="1000"/>
  <anchor x="500" y="357" name="C"/>
  <anchor x="357" y="357" name="L"/>
  <anchor x="643" y="357" name="R"/>
  <anchor x="500" y="0" name="center"/>
  <outline>
    <contour>
      <point x="500" y="-55" type="curve" smooth="yes"/>
      <point x="728" y="-55"/>
      <point x="912" y="129"/>
      <point x="912" y="357" type="curve" smooth="yes"/>
      <point x="912" y="584"/>
      <point x="728" y="769"/>
      <point x="500" y="769" type="curve" smooth="yes"/>
      <point x="272" y="769"/>
      <point x="88" y="584"/>
      <point x="88" y="357" type="curve" smooth="yes"/>
      <point x="88" y="129"/>
      <point x="272" y="-55"/>
    </contour>
    <contour>
      <point x="355" y="144" type="line"/>
      <point x="355" y="171" type="line"/>
      <point x="486" y="171" type="line"/>
      <point x="486" y="484" type="line" smooth="yes"/>
      <point x="486" y="505"/>
      <point x="487" y="529"/>
      <point x="489" y="550" type="curve"/>
      <point x="484" y="545"/>
      <point x="476" y="538"/>
      <point x="463" y="528" type="curve" smooth="yes"/>
      <point x="452" y="519"/>
      <point x="402" y="481"/>
      <point x="371" y="458" type="curve"/>
      <point x="355" y="480" type="line"/>
      <point x="475" y="572" type="line"/>
      <point x="514" y="572" type="line"/>
      <point x="514" y="171" type="line"/>
      <point x="645" y="171" type="line"/>
      <point x="645" y="144" type="line"/>
    </contour>
  </outline>
</glyph>
<glyph name="circledblack15" format="2">
  <advance width="1000"/>
  <anchor x="500" y="357" name="C"/>
  <anchor x="357" y="357" name="L"/>
  <anchor x="643" y="357" name="R"/>
  <anchor x="663" y="357" name="_L"/>
  <anchor x="367" y="357" name="_R"/>
  <anchor x="500" y="0" name="center"/>
  <outline>
    <contour>
      <point x="500" y="-55" type="curve" smooth="yes"/>
      <point x="728" y="-55"/>
      <point x="912" y="129"/>
      <point x="912" y="357" type="curve" smooth="yes"/>
      <point x="912" y="584"/>
      <point x="728" y="769"/>
      <point x="500" y="769" type="curve" smooth="yes"/>
      <point x="272" y="769"/>
      <point x="88" y="584"/>
      <point x="88" y="357" type="curve" smooth="yes"/>
      <point x="88" y="129"/>
      <point x="272" y="-55"/>
    </contour>
    <contour>
      <point x="258" y="144" type="line"/>
      <point x="258" y="171" type="line"/>
      <point x="364" y="171" type="line"/>
      <point x="364" y="484" type="line" smooth="yes"/>
      <point x="364" y="505"/>
      <point x="364" y="529"/>
      <point x="365" y="550" type="curve"/>
      <point x="362" y="545"/>
      <point x="354" y="538"/>
      <point x="341" y="528" type="curve" smooth="yes"/>
      <point x="331" y="519"/>
      <point x="298" y="494"/>
      <point x="269" y="471" type="curve"/>
      <point x="253" y="494" type="line"/>
      <point x="353" y="572" type="line"/>
      <point x="390" y="572" type="line"/>
      <point x="390" y="171" type="line"/>
      <point x="496" y="171" type="line"/>
      <point x="496" y="144" type="line"/>
    </contour>
    <contour>
      <point x="649" y="135" type="curve" smooth="yes"/>
      <point x="600" y="135"/>
      <point x="560" y="152"/>
      <point x="538" y="165" type="curve"/>
      <point x="538" y="196" type="line"/>
      <point x="575" y="173"/>
      <point x="612" y="161"/>
      <point x="649" y="161" type="curve" smooth="yes"/>
      <point x="715" y="161"/>
      <point x="754" y="201"/>
      <point x="754" y="271" type="curve" smooth="yes"/>
      <point x="754" y="343"/>
      <point x="712" y="379"/>
      <point x="644" y="379" type="curve" smooth="yes"/>
      <point x="621" y="379"/>
      <point x="593" y="375"/>
      <point x="567" y="362" type="curve"/>
      <point x="547" y="375" type="line"/>
      <point x="561" y="572" type="line"/>
      <point x="763" y="572" type="line"/>
      <point x="763" y="545" type="line"/>
      <point x="586" y="545" type="line"/>
      <point x="576" y="393" type="line"/>
      <point x="593" y="400"/>
      <point x="621" y="406"/>
      <point x="648" y="406" type="curve" smooth="yes"/>
      <point x="718" y="406"/>
      <point x="784" y="373"/>
      <point x="784" y="274" type="curve" smooth="yes"/>
      <point x="784" y="184"/>
      <point x="732" y="135"/>
    </contour>
  </outline>
</glyph>
<glyph name="circledblack17" format="2">
  <advance width="1000"/>
  <anchor x="500" y="357" name="C"/>
  <anchor x="357" y="357" name="L"/>
  <anchor x="643" y="357" name="R"/>
  <anchor x="623" y="357" name="_L"/>
  <anchor x="367" y="357" name="_R"/>
  <anchor x="500" y="0" name="center"/>
  <outline>
    <contour>
      <point x="500" y="-55" type="curve" smooth="yes"/>
      <point x="728" y="-55"/>
      <point x="912" y="129"/>
      <point x="912" y="357" type="curve" smooth="yes"/>
      <point x="912" y="584"/>
      <point x="728" y="769"/>
      <point x="500" y="769" type="curve" smooth="yes"/>
      <point x="272" y="769"/>
      <point x="88" y="584"/>
      <point x="88" y="357" type="curve" smooth="yes"/>
      <point x="88" y="129"/>
      <point x="272" y="-55"/>
    </contour>
    <contour>
      <point x="258" y="144" type="line"/>
      <point x="258" y="171" type="line"/>
      <point x="364" y="171" type="line"/>
      <point x="364" y="484" type="line" smooth="yes"/>
      <point x="364" y="505"/>
      <point x="364" y="529"/>
      <point x="365" y="550" type="curve"/>
      <point x="362" y="545"/>
      <point x="354" y="538"/>
      <point x="341" y="528" type="curve" smooth="yes"/>
      <point x="331" y="519"/>
      <point x="298" y="494"/>
      <point x="269" y="471" type="curve"/>
      <point x="253" y="494" type="line"/>
      <point x="353" y="572" type="line"/>
      <point x="390" y="572" type="line"/>
      <point x="390" y="171" type="line"/>
      <point x="496" y="171" type="line"/>
      <point x="496" y="144" type="line"/>
    </contour>
    <contour>
      <point x="569" y="144" type="line"/>
      <point x="733" y="545" type="line"/>
      <point x="521" y="545" type="line"/>
      <point x="521" y="572" type="line"/>
      <point x="764" y="572" type="line"/>
      <point x="764" y="550" type="line"/>
      <point x="599" y="144" type="line"/>
    </contour>
  </outline>
</glyph>
<glyph name="circledblack25" format="2">
  <advance width="1000"/>
  <anchor x="500" y="357" name="C"/>
  <anchor x="357" y="357" name="L"/>
  <anchor x="643" y="357" name="R"/>
  <anchor x="663" y="357" name="_L"/>
  <anchor x="377" y="357" name="_R"/>
  <anchor x="500" y="0" name="center"/>
  <outline>
    <contour>
      <point x="500" y="-55" type="curve" smooth="yes"/>
      <point x="728" y="-55"/>
      <point x="912" y="129"/>
      <point x="912" y="357" type="curve" smooth="yes"/>
      <point x="912" y="584"/>
      <point x="728" y="769"/>
      <point x="500" y="769" type="curve" smooth="yes"/>
      <point x="272" y="769"/>
      <point x="88" y="584"/>
      <point x="88" y="357" type="curve" smooth="yes"/>
      <point x="88" y="129"/>
      <point x="272" y="-55"/>
    </contour>
    <contour>
      <point x="248" y="144" type="line"/>
      <point x="248" y="166" type="line"/>
      <point x="367" y="297" type="line" smooth="yes"/>
      <point x="427" y="363"/>
      <point x="453" y="402"/>
      <point x="453" y="462" type="curve" smooth="yes"/>
      <point x="453" y="526"/>
      <point x="423" y="553"/>
      <point x="379" y="553" type="curve" smooth="yes"/>
      <point x="344" y="553"/>
      <point x="304" y="537"/>
      <point x="266" y="502" type="curve"/>
      <point x="252" y="525" type="line"/>
      <point x="297" y="566"/>
      <point x="345" y="579"/>
      <point x="380" y="579" type="curve" smooth="yes"/>
      <point x="448" y="579"/>
      <point x="482" y="537"/>
      <point x="482" y="466" type="curve" smooth="yes"/>
      <point x="482" y="400"/>
      <point x="451" y="354"/>
      <point x="397" y="292" type="curve" smooth="yes"/>
      <point x="267" y="146" type="line"/>
      <point x="267" y="171" type="line"/>
      <point x="486" y="171" type="line"/>
      <point x="486" y="144" type="line"/>
    </contour>
    <contour>
      <point x="649" y="135" type="curve" smooth="yes"/>
      <point x="600" y="135"/>
      <point x="560" y="152"/>
      <point x="538" y="165" type="curve"/>
      <point x="538" y="196" type="line"/>
      <point x="575" y="173"/>
      <point x="612" y="161"/>
      <point x="649" y="161" type="curve" smooth="yes"/>
      <point x="715" y="161"/>
      <point x="754" y="201"/>
      <point x="754" y="271" type="curve" smooth="yes"/>
      <point x="754" y="343"/>
      <point x="712" y="379"/>
      <point x="644" y="379" type="curve" smooth="yes"/>
      <point x="621" y="379"/>
      <point x="593" y="375"/>
      <point x="567" y="362" type="curve"/>
      <point x="547" y="375" type="line"/>
      <point x="561" y="572" type="line"/>
      <point x="763" y="572" type="line"/>
      <point x="763" y="545" type="line"/>
      <point x="586" y="545" type="line"/>
      <point x="576" y="393" type="line"/>
      <point x="593" y="400"/>
      <point x="621" y="406"/>
      <point x="648" y="406" type="curve" smooth="yes"/>
      <point x="718" y="406"/>
      <point x="784" y="373"/>
      <point x="784" y="274" type="curve" smooth="yes"/>
      <point x="784" y="184"/>
      <point x="732" y="135"/>
    </contour>
  </outline>
</glyph>
<glyph name="circledblack31" format="2">
  <advance width="1000"/>
  <anchor x="500" y="357" name="C"/>
  <anchor x="357" y="357" name="L"/>
  <anchor x="643" y="357" name="R"/>
  <anchor x="633" y="357" name="_L"/>
  <anchor x="337" y="357" name="_R"/>
  <anchor x="500" y="0" name="center"/>
  <outline>
    <contour>
      <point x="500" y="-55" type="curve" smooth="yes"/>
      <point x="728" y="-55"/>
      <point x="912" y="129"/>
      <point x="912" y="357" type="curve" smooth="yes"/>
      <point x="912" y="584"/>
      <point x="728" y="769"/>
      <point x="500" y="769" type="curve" smooth="yes"/>
      <point x="272" y="769"/>
      <point x="88" y="584"/>
      <point x="88" y="357" type="curve" smooth="yes"/>
      <point x="88" y="129"/>
      <point x="272" y="-55"/>
    </contour>
    <contour>
      <point x="344" y="135" type="curve" smooth="yes"/>
      <point x="303" y="135"/>
      <point x="261" y="146"/>
      <point x="227" y="168" type="curve"/>
      <point x="227" y="198" type="line"/>
      <point x="277" y="171"/>
      <point x="309" y="161"/>
      <point x="342" y="161" type="curve" smooth="yes"/>
      <point x="401" y="161"/>
      <point x="454" y="196"/>
      <point x="454" y="260" type="curve" smooth="yes"/>
      <point x="454" y="326"/>
      <point x="397" y="351"/>
      <point x="337" y="351" type="curve" smooth="yes"/>
      <point x="289" y="351" type="line"/>
      <point x="289" y="376" type="line"/>
      <point x="338" y="376" type="line" smooth="yes"/>
      <point x="394" y="376"/>
      <point x="440" y="405"/>
      <point x="440" y="469" type="curve" smooth="yes"/>
      <point x="440" y="529"/>
      <point x="397" y="553"/>
      <point x="349" y="553" type="curve" smooth="yes"/>
      <point x="307" y="553"/>
      <point x="271" y="534"/>
      <point x="242" y="510" type="curve"/>
      <point x="226" y="533" type="line"/>
      <point x="266" y="568"/>
      <point x="315" y="579"/>
      <point x="352" y="579" type="curve" smooth="yes"/>
      <point x="432" y="579"/>
      <point x="469" y="528"/>
      <point x="469" y="468" type="curve" smooth="yes"/>
      <point x="469" y="412"/>
      <point x="437" y="377"/>
      <point x="375" y="359" type="curve"/>
      <point x="375" y="368" type="line"/>
      <point x="428" y="361"/>
      <point x="482" y="334"/>
      <point x="482" y="260" type="curve" smooth="yes"/>
      <point x="482" y="186"/>
      <point x="428" y="135"/>
    </contour>
    <contour>
      <point x="534" y="144" type="line"/>
      <point x="534" y="171" type="line"/>
      <point x="640" y="171" type="line"/>
      <point x="640" y="484" type="line" smooth="yes"/>
      <point x="640" y="505"/>
      <point x="640" y="529"/>
      <point x="641" y="550" type="curve"/>
      <point x="638" y="545"/>
      <point x="630" y="538"/>
      <point x="617" y="528" type="curve" smooth="yes"/>
      <point x="607" y="519"/>
      <point x="574" y="494"/>
      <point x="545" y="471" type="curve"/>
      <point x="529" y="494" type="line"/>
      <point x="629" y="572" type="line"/>
      <point x="666" y="572" type="line"/>
      <point x="666" y="171" type="line"/>
      <point x="772" y="171" type="line"/>
      <point x="772" y="144" type="line"/>
    </contour>
  </outline>
</glyph>
<glyph name="circledblack35" format="2">
  <advance width="1000"/>
  <anchor x="500" y="357" name="C"/>
  <anchor x="357" y="357" name="L"/>
  <anchor x="643" y="357" name="R"/>
  <anchor x="663" y="357" name="_L"/>
  <anchor x="337" y="357" name="_R"/>
  <anchor x="500" y="0" name="center"/>
  <outline>
    <contour>
      <point x="500" y="-55" type="curve" smooth="yes"/>
      <point x="728" y="-55"/>
      <point x="912" y="129"/>
      <point x="912" y="357" type="curve" smooth="yes"/>
      <point x="912" y="584"/>
      <point x="728" y="769"/>
      <point x="500" y="769" type="curve" smooth="yes"/>
      <point x="272" y="769"/>
      <point x="88" y="584"/>
      <point x="88" y="357" type="curve" smooth="yes"/>
      <point x="88" y="129"/>
      <point x="272" y="-55"/>
    </contour>
    <contour>
      <point x="344" y="135" type="curve" smooth="yes"/>
      <point x="303" y="135"/>
      <point x="261" y="146"/>
      <point x="227" y="168" type="curve"/>
      <point x="227" y="198" type="line"/>
      <point x="277" y="171"/>
      <point x="309" y="161"/>
      <point x="342" y="161" type="curve" smooth="yes"/>
      <point x="401" y="161"/>
      <point x="454" y="196"/>
      <point x="454" y="260" type="curve" smooth="yes"/>
      <point x="454" y="326"/>
      <point x="397" y="351"/>
      <point x="337" y="351" type="curve" smooth="yes"/>
      <point x="289" y="351" type="line"/>
      <point x="289" y="376" type="line"/>
      <point x="338" y="376" type="line" smooth="yes"/>
      <point x="394" y="376"/>
      <point x="440" y="405"/>
      <point x="440" y="469" type="curve" smooth="yes"/>
      <point x="440" y="529"/>
      <point x="397" y="553"/>
      <point x="349" y="553" type="curve" smooth="yes"/>
      <point x="307" y="553"/>
      <point x="271" y="534"/>
      <point x="242" y="510" type="curve"/>
      <point x="226" y="533" type="line"/>
      <point x="266" y="568"/>
      <point x="315" y="579"/>
      <point x="352" y="579" type="curve" smooth="yes"/>
      <point x="432" y="579"/>
      <point x="469" y="528"/>
      <point x="469" y="468" type="curve" smooth="yes"/>
      <point x="469" y="412"/>
      <point x="437" y="377"/>
      <point x="375" y="359" type="curve"/>
      <point x="375" y="368" type="line"/>
      <point x="428" y="361"/>
      <point x="482" y="334"/>
      <point x="482" y="260" type="curve" smooth="yes"/>
      <point x="482" y="186"/>
      <point x="428" y="135"/>
    </contour>
    <contour>
      <point x="649" y="135" type="curve" smooth="yes"/>
      <point x="600" y="135"/>
      <point x="560" y="152"/>
      <point x="538" y="165" type="curve"/>
      <point x="538" y="196" type="line"/>
      <point x="575" y="173"/>
      <point x="612" y="161"/>
      <point x="649" y="161" type="curve" smooth="yes"/>
      <point x="715" y="161"/>
      <point x="754" y="201"/>
      <point x="754" y="271" type="curve" smooth="yes"/>
      <point x="754" y="343"/>
      <point x="712" y="379"/>
      <point x="644" y="379" type="curve" smooth="yes"/>
      <point x="621" y="379"/>
      <point x="593" y="375"/>
      <point x="567" y="362" type="curve"/>
      <point x="547" y="375" type="line"/>
      <point x="561" y="572" type="line"/>
      <point x="763" y="572" type="line"/>
      <point x="763" y="545" type="line"/>
      <point x="586" y="545" type="line"/>
      <point x="576" y="393" type="line"/>
      <point x="593" y="400"/>
      <point x="621" y="406"/>
      <point x="648" y="406" type="curve" smooth="yes"/>
      <point x="718" y="406"/>
      <point x="784" y="373"/>
      <point x="784" y="274" type="curve" smooth="yes"/>
      <point x="784" y="184"/>
      <point x="732" y="135"/>
    </contour>
  </outline>
</glyph>
<glyph name="circledblack39" format="2">
  <advance width="1000"/>
  <anchor x="500" y="357" name="C"/>
  <anchor x="357" y="357" name="L"/>
  <anchor x="643" y="357" name="R"/>
  <anchor x="663" y="357" name="_L"/>
  <anchor x="337" y="357" name="_R"/>
  <anchor x="500" y="0" name="center"/>
  <outline>
    <contour>
      <point x="500" y="-55" type="curve" smooth="yes"/>
      <point x="728" y="-55"/>
      <point x="912" y="129"/>
      <point x="912" y="357" type="curve" smooth="yes"/>
      <point x="912" y="584"/>
      <point x="728" y="769"/>
      <point x="500" y="769" type="curve" smooth="yes"/>
      <point x="272" y="769"/>
      <point x="88" y="584"/>
      <point x="88" y="357" type="curve" smooth="yes"/>
      <point x="88" y="129"/>
      <point x="272" y="-55"/>
    </contour>
    <contour>
      <point x="344" y="135" type="curve" smooth="yes"/>
      <point x="303" y="135"/>
      <point x="261" y="146"/>
      <point x="227" y="168" type="curve"/>
      <point x="227" y="198" type="line"/>
      <point x="277" y="171"/>
      <point x="309" y="161"/>
      <point x="342" y="161" type="curve" smooth="yes"/>
      <point x="401" y="161"/>
      <point x="454" y="196"/>
      <point x="454" y="260" type="curve" smooth="yes"/>
      <point x="454" y="326"/>
      <point x="397" y="351"/>
      <point x="337" y="351" type="curve" smooth="yes"/>
      <point x="289" y="351" type="line"/>
      <point x="289" y="376" type="line"/>
      <point x="338" y="376" type="line" smooth="yes"/>
      <point x="394" y="376"/>
      <point x="440" y="405"/>
      <point x="440" y="469" type="curve" smooth="yes"/>
      <point x="440" y="529"/>
      <point x="397" y="553"/>
      <point x="349" y="553" type="curve" smooth="yes"/>
      <point x="307" y="553"/>
      <point x="271" y="534"/>
      <point x="242" y="510" type="curve"/>
      <point x="226" y="533" type="line"/>
      <point x="266" y="568"/>
      <point x="315" y="579"/>
      <point x="352" y="579" type="curve" smooth="yes"/>
      <point x="432" y="579"/>
      <point x="469" y="528"/>
      <point x="469" y="468" type="curve" smooth="yes"/>
      <point x="469" y="412"/>
      <point x="437" y="377"/>
      <point x="375" y="359" type="curve"/>
      <point x="375" y="368" type="line"/>
      <point x="428" y="361"/>
      <point x="482" y="334"/>
      <point x="482" y="260" type="curve" smooth="yes"/>
      <point x="482" y="186"/>
      <point x="428" y="135"/>
    </contour>
    <contour>
      <point x="620" y="134" type="curve" smooth="yes"/>
      <point x="595" y="134"/>
      <point x="568" y="138"/>
      <point x="555" y="143" type="curve"/>
      <point x="555" y="171" type="line"/>
      <point x="570" y="165"/>
      <point x="598" y="161"/>
      <point x="622" y="161" type="curve" smooth="yes"/>
      <point x="693" y="161"/>
      <point x="754" y="193"/>
      <point x="757" y="362" type="curve"/>
      <point x="755" y="362" type="line"/>
      <point x="731" y="313"/>
      <point x="679" y="301"/>
      <point x="644" y="301" type="curve" smooth="yes"/>
      <point x="569" y="301"/>
      <point x="521" y="352"/>
      <point x="521" y="437" type="curve" smooth="yes"/>
      <point x="521" y="519"/>
      <point x="566" y="579"/>
      <point x="652" y="579" type="curve" smooth="yes"/>
      <point x="733" y="579"/>
      <point x="785" y="528"/>
      <point x="785" y="372" type="curve" smooth="yes"/>
      <point x="785" y="187"/>
      <point x="713" y="134"/>
    </contour>
    <contour>
      <point x="647" y="327" type="curve" smooth="yes"/>
      <point x="714" y="327"/>
      <point x="753" y="367"/>
      <point x="753" y="430" type="curve" smooth="yes"/>
      <point x="753" y="506"/>
      <point x="714" y="553"/>
      <point x="649" y="553" type="curve" smooth="yes"/>
      <point x="588" y="553"/>
      <point x="549" y="512"/>
      <point x="549" y="436" type="curve" smooth="yes"/>
      <point x="549" y="363"/>
      <point x="583" y="327"/>
    </contour>
  </outline>
</glyph>
<glyph name="circledblack52" format="2">
  <advance width="1000"/>
  <anchor x="500" y="357" name="C"/>
  <anchor x="357" y="357" name="L"/>
  <anchor x="643" y="357" name="R"/>
  <anchor x="623" y="357" name="_L"/>
  <anchor x="337" y="357" name="_R"/>
  <anchor x="500" y="0" name="center"/>
  <outline>
    <contour>
      <point x="500" y="-55" type="curve" smooth="yes"/>
      <point x="728" y="-55"/>
      <point x="912" y="129"/>
      <point x="912" y="357" type="curve" smooth="yes"/>
      <point x="912" y="584"/>
      <point x="728" y="769"/>
      <point x="500" y="769" type="curve" smooth="yes"/>
      <point x="272" y="769"/>
      <point x="88" y="584"/>
      <point x="88" y="357" type="curve" smooth="yes"/>
      <point x="88" y="129"/>
      <point x="272" y="-55"/>
    </contour>
    <contour>
      <point x="343" y="135" type="curve" smooth="yes"/>
      <point x="294" y="135"/>
      <point x="254" y="152"/>
      <point x="232" y="165" type="curve"/>
      <point x="232" y="196" type="line"/>
      <point x="269" y="173"/>
      <point x="306" y="161"/>
      <point x="343" y="161" type="curve" smooth="yes"/>
      <point x="409" y="161"/>
      <point x="448" y="201"/>
      <point x="448" y="271" type="curve" smooth="yes"/>
      <point x="448" y="343"/>
      <point x="406" y="379"/>
      <point x="338" y="379" type="curve" smooth="yes"/>
      <point x="315" y="379"/>
      <point x="287" y="375"/>
      <point x="261" y="362" type="curve"/>
      <point x="241" y="375" type="line"/>
      <point x="255" y="572" type="line"/>
      <point x="457" y="572" type="line"/>
      <point x="457" y="545" type="line"/>
      <point x="280" y="545" type="line"/>
      <point x="270" y="393" type="line"/>
      <point x="287" y="400"/>
      <point x="315" y="406"/>
      <point x="342" y="406" type="curve" smooth="yes"/>
      <point x="412" y="406"/>
      <point x="478" y="373"/>
      <point x="478" y="274" type="curve" smooth="yes"/>
      <point x="478" y="184"/>
      <point x="426" y="135"/>
    </contour>
    <contour>
      <point x="514" y="144" type="line"/>
      <point x="514" y="166" type="line"/>
      <point x="633" y="297" type="line" smooth="yes"/>
      <point x="693" y="363"/>
      <point x="719" y="402"/>
      <point x="719" y="462" type="curve" smooth="yes"/>
      <point x="719" y="526"/>
      <point x="689" y="553"/>
      <point x="645" y="553" type="curve" smooth="yes"/>
      <point x="610" y="553"/>
      <point x="570" y="537"/>
      <point x="532" y="502" type="curve"/>
      <point x="518" y="525" type="line"/>
      <point x="563" y="566"/>
      <point x="611" y="579"/>
      <point x="646" y="579" type="curve" smooth="yes"/>
      <point x="714" y="579"/>
      <point x="748" y="537"/>
      <point x="748" y="466" type="curve" smooth="yes"/>
      <point x="748" y="400"/>
      <point x="717" y="354"/>
      <point x="663" y="292" type="curve" smooth="yes"/>
      <point x="533" y="146" type="line"/>
      <point x="533" y="171" type="line"/>
      <point x="752" y="171" type="line"/>
      <point x="752" y="144" type="line"/>
    </contour>
  </outline>
</glyph>
<glyph name="circledblack53" format="2">
  <advance width="1000"/>
  <anchor x="500" y="357" name="C"/>
  <anchor x="357" y="357" name="L"/>
  <anchor x="643" y="357" name="R"/>
  <anchor x="663" y="357" name="_L"/>
  <anchor x="337" y="357" name="_R"/>
  <anchor x="500" y="0" name="center"/>
  <outline>
    <contour>
      <point x="500" y="-55" type="curve" smooth="yes"/>
      <point x="728" y="-55"/>
      <point x="912" y="129"/>
      <point x="912" y="357" type="curve" smooth="yes"/>
      <point x="912" y="584"/>
      <point x="728" y="769"/>
      <point x="500" y="769" type="curve" smooth="yes"/>
      <point x="272" y="769"/>
      <point x="88" y="584"/>
      <point x="88" y="357" type="curve" smooth="yes"/>
      <point x="88" y="129"/>
      <point x="272" y="-55"/>
    </contour>
    <contour>
      <point x="343" y="135" type="curve" smooth="yes"/>
      <point x="294" y="135"/>
      <point x="254" y="152"/>
      <point x="232" y="165" type="curve"/>
      <point x="232" y="196" type="line"/>
      <point x="269" y="173"/>
      <point x="306" y="161"/>
      <point x="343" y="161" type="curve" smooth="yes"/>
      <point x="409" y="161"/>
      <point x="448" y="201"/>
      <point x="448" y="271" type="curve" smooth="yes"/>
      <point x="448" y="343"/>
      <point x="406" y="379"/>
      <point x="338" y="379" type="curve" smooth="yes"/>
      <point x="315" y="379"/>
      <point x="287" y="375"/>
      <point x="261" y="362" type="curve"/>
      <point x="241" y="375" type="line"/>
      <point x="255" y="572" type="line"/>
      <point x="457" y="572" type="line"/>
      <point x="457" y="545" type="line"/>
      <point x="280" y="545" type="line"/>
      <point x="270" y="393" type="line"/>
      <point x="287" y="400"/>
      <point x="315" y="406"/>
      <point x="342" y="406" type="curve" smooth="yes"/>
      <point x="412" y="406"/>
      <point x="478" y="373"/>
      <point x="478" y="274" type="curve" smooth="yes"/>
      <point x="478" y="184"/>
      <point x="426" y="135"/>
    </contour>
    <contour>
      <point x="650" y="135" type="curve" smooth="yes"/>
      <point x="609" y="135"/>
      <point x="567" y="146"/>
      <point x="533" y="168" type="curve"/>
      <point x="533" y="198" type="line"/>
      <point x="583" y="171"/>
      <point x="615" y="161"/>
      <point x="648" y="161" type="curve" smooth="yes"/>
      <point x="707" y="161"/>
      <point x="760" y="196"/>
      <point x="760" y="260" type="curve" smooth="yes"/>
      <point x="760" y="326"/>
      <point x="703" y="351"/>
      <point x="643" y="351" type="curve" smooth="yes"/>
      <point x="595" y="351" type="line"/>
      <point x="595" y="376" type="line"/>
      <point x="644" y="376" type="line" smooth="yes"/>
      <point x="700" y="376"/>
      <point x="746" y="405"/>
      <point x="746" y="469" type="curve" smooth="yes"/>
      <point x="746" y="529"/>
      <point x="703" y="553"/>
      <point x="655" y="553" type="curve" smooth="yes"/>
      <point x="613" y="553"/>
      <point x="577" y="534"/>
      <point x="548" y="510" type="curve"/>
      <point x="532" y="533" type="line"/>
      <point x="572" y="568"/>
      <point x="621" y="579"/>
      <point x="658" y="579" type="curve" smooth="yes"/>
      <point x="738" y="579"/>
      <point x="775" y="528"/>
      <point x="775" y="468" type="curve" smooth="yes"/>
      <point x="775" y="412"/>
      <point x="743" y="377"/>
      <point x="681" y="359" type="curve"/>
      <point x="681" y="368" type="line"/>
      <point x="734" y="361"/>
      <point x="788" y="334"/>
      <point x="788" y="260" type="curve" smooth="yes"/>
      <point x="788" y="186"/>
      <point x="734" y="135"/>
    </contour>
  </outline>
</glyph>
<glyph name="circledblack54" format="2">
  <advance width="1000"/>
  <anchor x="500" y="357" name="C"/>
  <anchor x="357" y="357" name="L"/>
  <anchor x="643" y="357" name="R"/>
  <anchor x="663" y="357" name="_L"/>
  <anchor x="337" y="357" name="_R"/>
  <anchor x="500" y="0" name="center"/>
  <outline>
    <contour>
      <point x="500" y="-55" type="curve" smooth="yes"/>
      <point x="728" y="-55"/>
      <point x="912" y="129"/>
      <point x="912" y="357" type="curve" smooth="yes"/>
      <point x="912" y="584"/>
      <point x="728" y="769"/>
      <point x="500" y="769" type="curve" smooth="yes"/>
      <point x="272" y="769"/>
      <point x="88" y="584"/>
      <point x="88" y="357" type="curve" smooth="yes"/>
      <point x="88" y="129"/>
      <point x="272" y="-55"/>
    </contour>
    <contour>
      <point x="343" y="135" type="curve" smooth="yes"/>
      <point x="294" y="135"/>
      <point x="254" y="152"/>
      <point x="232" y="165" type="curve"/>
      <point x="232" y="196" type="line"/>
      <point x="269" y="173"/>
      <point x="306" y="161"/>
      <point x="343" y="161" type="curve" smooth="yes"/>
      <point x="409" y="161"/>
      <point x="448" y="201"/>
      <point x="448" y="271" type="curve" smooth="yes"/>
      <point x="448" y="343"/>
      <point x="406" y="379"/>
      <point x="338" y="379" type="curve" smooth="yes"/>
      <point x="315" y="379"/>
      <point x="287" y="375"/>
      <point x="261" y="362" type="curve"/>
      <point x="241" y="375" type="line"/>
      <point x="255" y="572" type="line"/>
      <point x="457" y="572" type="line"/>
      <point x="457" y="545" type="line"/>
      <point x="280" y="545" type="line"/>
      <point x="270" y="393" type="line"/>
      <point x="287" y="400"/>
      <point x="315" y="406"/>
      <point x="342" y="406" type="curve" smooth="yes"/>
      <point x="412" y="406"/>
      <point x="478" y="373"/>
      <point x="478" y="274" type="curve" smooth="yes"/>
      <point x="478" y="184"/>
      <point x="426" y="135"/>
    </contour>
    <contour>
      <point x="699" y="144" type="line"/>
      <point x="699" y="251" type="line"/>
      <point x="513" y="251" type="line"/>
      <point x="513" y="273" type="line"/>
      <point x="688" y="572" type="line"/>
      <point x="725" y="572" type="line"/>
      <point x="725" y="278" type="line"/>
      <point x="795" y="278" type="line"/>
      <point x="795" y="251" type="line"/>
      <point x="725" y="251" type="line"/>
      <point x="725" y="144" type="line"/>
    </contour>
    <contour>
      <point x="546" y="278" type="line"/>
      <point x="699" y="278" type="line"/>
      <point x="699" y="464" type="line" smooth="yes"/>
      <point x="699" y="496"/>
      <point x="699" y="528"/>
      <point x="700" y="548" type="curve"/>
      <point x="699" y="548" type="line"/>
      <point x="692" y="530"/>
      <point x="678" y="504"/>
      <point x="660" y="474" type="curve" smooth="yes"/>
    </contour>
  </outline>
</glyph>
<glyph name="circledblack59" format="2">
  <advance width="1000"/>
  <anchor x="500" y="357" name="C"/>
  <anchor x="357" y="357" name="L"/>
  <anchor x="643" y="357" name="R"/>
  <anchor x="663" y="357" name="_L"/>
  <anchor x="337" y="357" name="_R"/>
  <anchor x="500" y="0" name="center"/>
  <outline>
    <contour>
      <point x="500" y="-55" type="curve" smooth="yes"/>
      <point x="728" y="-55"/>
      <point x="912" y="129"/>
      <point x="912" y="357" type="curve" smooth="yes"/>
      <point x="912" y="584"/>
      <point x="728" y="769"/>
      <point x="500" y="769" type="curve" smooth="yes"/>
      <point x="272" y="769"/>
      <point x="88" y="584"/>
      <point x="88" y="357" type="curve" smooth="yes"/>
      <point x="88" y="129"/>
      <point x="272" y="-55"/>
    </contour>
    <contour>
      <point x="343" y="135" type="curve" smooth="yes"/>
      <point x="294" y="135"/>
      <point x="254" y="152"/>
      <point x="232" y="165" type="curve"/>
      <point x="232" y="196" type="line"/>
      <point x="269" y="173"/>
      <point x="306" y="161"/>
      <point x="343" y="161" type="curve" smooth="yes"/>
      <point x="409" y="161"/>
      <point x="448" y="201"/>
      <point x="448" y="271" type="curve" smooth="yes"/>
      <point x="448" y="343"/>
      <point x="406" y="379"/>
      <point x="338" y="379" type="curve" smooth="yes"/>
      <point x="315" y="379"/>
      <point x="287" y="375"/>
      <point x="261" y="362" type="curve"/>
      <point x="241" y="375" type="line"/>
      <point x="255" y="572" type="line"/>
      <point x="457" y="572" type="line"/>
      <point x="457" y="545" type="line"/>
      <point x="280" y="545" type="line"/>
      <point x="270" y="393" type="line"/>
      <point x="287" y="400"/>
      <point x="315" y="406"/>
      <point x="342" y="406" type="curve" smooth="yes"/>
      <point x="412" y="406"/>
      <point x="478" y="373"/>
      <point x="478" y="274" type="curve" smooth="yes"/>
      <point x="478" y="184"/>
      <point x="426" y="135"/>
    </contour>
    <contour>
      <point x="620" y="134" type="curve" smooth="yes"/>
      <point x="595" y="134"/>
      <point x="568" y="138"/>
      <point x="555" y="143" type="curve"/>
      <point x="555" y="171" type="line"/>
      <point x="570" y="165"/>
      <point x="598" y="161"/>
      <point x="622" y="161" type="curve" smooth="yes"/>
      <point x="693" y="161"/>
      <point x="754" y="193"/>
      <point x="757" y="362" type="curve"/>
      <point x="755" y="362" type="line"/>
      <point x="731" y="313"/>
      <point x="679" y="301"/>
      <point x="644" y="301" type="curve" smooth="yes"/>
      <point x="569" y="301"/>
      <point x="521" y="352"/>
      <point x="521" y="437" type="curve" smooth="yes"/>
      <point x="521" y="519"/>
      <point x="566" y="579"/>
      <point x="652" y="579" type="curve" smooth="yes"/>
      <point x="733" y="579"/>
      <point x="785" y="528"/>
      <point x="785" y="372" type="curve" smooth="yes"/>
      <point x="785" y="187"/>
      <point x="713" y="134"/>
    </contour>
    <contour>
      <point x="647" y="327" type="curve" smooth="yes"/>
      <point x="714" y="327"/>
      <point x="753" y="367"/>
      <point x="753" y="430" type="curve" smooth="yes"/>
      <point x="753" y="506"/>
      <point x="714" y="553"/>
      <point x="649" y="553" type="curve" smooth="yes"/>
      <point x="588" y="553"/>
      <point x="549" y="512"/>
      <point x="549" y="436" type="curve" smooth="yes"/>
      <point x="549" y="363"/>
      <point x="583" y="327"/>
    </contour>
  </outline>
</glyph>
<glyph name="circledblack66" format="2">
  <advance width="1000"/>
  <anchor x="500" y="357" name="C"/>
  <anchor x="357" y="357" name="L"/>
  <anchor x="643" y="357" name="R"/>
  <anchor x="663" y="357" name="_L"/>
  <anchor x="337" y="357" name="_R"/>
  <anchor x="500" y="0" name="center"/>
  <outline>
    <contour>
      <point x="500" y="-55" type="curve" smooth="yes"/>
      <point x="728" y="-55"/>
      <point x="912" y="129"/>
      <point x="912" y="357" type="curve" smooth="yes"/>
      <point x="912" y="584"/>
      <point x="728" y="769"/>
      <point x="500" y="769" type="curve" smooth="yes"/>
      <point x="272" y="769"/>
      <point x="88" y="584"/>
      <point x="88" y="357" type="curve" smooth="yes"/>
      <point x="88" y="129"/>
      <point x="272" y="-55"/>
    </contour>
    <contour>
      <point x="351" y="134" type="curve" smooth="yes"/>
      <point x="270" y="134"/>
      <point x="215" y="191"/>
      <point x="215" y="341" type="curve" smooth="yes"/>
      <point x="215" y="522"/>
      <point x="291" y="579"/>
      <point x="384" y="579" type="curve" smooth="yes"/>
      <point x="408" y="579"/>
      <point x="431" y="575"/>
      <point x="445" y="571" type="curve"/>
      <point x="445" y="542" type="line"/>
      <point x="429" y="549"/>
      <point x="407" y="553"/>
      <point x="383" y="553" type="curve" smooth="yes"/>
      <point x="311" y="553"/>
      <point x="246" y="515"/>
      <point x="243" y="351" type="curve"/>
      <point x="244" y="351" type="line"/>
      <point x="268" y="401"/>
      <point x="318" y="412"/>
      <point x="356" y="412" type="curve" smooth="yes"/>
      <point x="432" y="412"/>
      <point x="479" y="366"/>
      <point x="479" y="281" type="curve" smooth="yes"/>
      <point x="479" y="193"/>
      <point x="431" y="134"/>
    </contour>
    <contour>
      <point x="354" y="161" type="curve" smooth="yes"/>
      <point x="410" y="161"/>
      <point x="450" y="201"/>
      <point x="450" y="281" type="curve" smooth="yes"/>
      <point x="450" y="354"/>
      <point x="418" y="386"/>
      <point x="353" y="386" type="curve" smooth="yes"/>
      <point x="282" y="386"/>
      <point x="246" y="347"/>
      <point x="246" y="283" type="curve" smooth="yes"/>
      <point x="246" y="213"/>
      <point x="289" y="161"/>
    </contour>
    <contour>
      <point x="657" y="134" type="curve" smooth="yes"/>
      <point x="576" y="134"/>
      <point x="521" y="191"/>
      <point x="521" y="341" type="curve" smooth="yes"/>
      <point x="521" y="522"/>
      <point x="597" y="579"/>
      <point x="690" y="579" type="curve" smooth="yes"/>
      <point x="714" y="579"/>
      <point x="737" y="575"/>
      <point x="751" y="571" type="curve"/>
      <point x="751" y="542" type="line"/>
      <point x="735" y="549"/>
      <point x="713" y="553"/>
      <point x="689" y="553" type="curve" smooth="yes"/>
      <point x="617" y="553"/>
      <point x="552" y="515"/>
      <point x="549" y="351" type="curve"/>
      <point x="550" y="351" type="line"/>
      <point x="574" y="401"/>
      <point x="624" y="412"/>
      <point x="662" y="412" type="curve" smooth="yes"/>
      <point x="738" y="412"/>
      <point x="785" y="366"/>
      <point x="785" y="281" type="curve" smooth="yes"/>
      <point x="785" y="193"/>
      <point x="737" y="134"/>
    </contour>
    <contour>
      <point x="660" y="161" type="curve" smooth="yes"/>
      <point x="716" y="161"/>
      <point x="756" y="201"/>
      <point x="756" y="281" type="curve" smooth="yes"/>
      <point x="756" y="354"/>
      <point x="724" y="386"/>
      <point x="659" y="386" type="curve" smooth="yes"/>
      <point x="588" y="386"/>
      <point x="552" y="347"/>
      <point x="552" y="283" type="curve" smooth="yes"/>
      <point x="552" y="213"/>
      <point x="595" y="161"/>
    </contour>
  </outline>
</glyph>
<glyph name="circledblack78" format="2">
  <advance width="1000"/>
  <anchor x="500" y="357" name="C"/>
  <anchor x="357" y="357" name="L"/>
  <anchor x="643" y="357" name="R"/>
  <anchor x="663" y="357" name="_L"/>
  <anchor x="377" y="357" name="_R"/>
  <anchor x="500" y="0" name="center"/>
  <outline>
    <contour>
      <point x="500" y="-55" type="curve" smooth="yes"/>
      <point x="728" y="-55"/>
      <point x="912" y="129"/>
      <point x="912" y="357" type="curve" smooth="yes"/>
      <point x="912" y="584"/>
      <point x="728" y="769"/>
      <point x="500" y="769" type="curve" smooth="yes"/>
      <point x="272" y="769"/>
      <point x="88" y="584"/>
      <point x="88" y="357" type="curve" smooth="yes"/>
      <point x="88" y="129"/>
      <point x="272" y="-55"/>
    </contour>
    <contour>
      <point x="303" y="144" type="line"/>
      <point x="467" y="545" type="line"/>
      <point x="255" y="545" type="line"/>
      <point x="255" y="572" type="line"/>
      <point x="498" y="572" type="line"/>
      <point x="498" y="550" type="line"/>
      <point x="333" y="144" type="line"/>
    </contour>
    <contour>
      <point x="656" y="135" type="curve" smooth="yes"/>
      <point x="593" y="135"/>
      <point x="523" y="165"/>
      <point x="523" y="246" type="curve" smooth="yes"/>
      <point x="523" y="297"/>
      <point x="557" y="343"/>
      <point x="615" y="365" type="curve"/>
      <point x="573" y="389"/>
      <point x="537" y="421"/>
      <point x="537" y="473" type="curve" smooth="yes"/>
      <point x="537" y="537"/>
      <point x="589" y="579"/>
      <point x="658" y="579" type="curve" smooth="yes"/>
      <point x="731" y="579"/>
      <point x="770" y="534"/>
      <point x="770" y="478" type="curve" smooth="yes"/>
      <point x="770" y="436"/>
      <point x="748" y="394"/>
      <point x="686" y="365" type="curve"/>
      <point x="755" y="338"/>
      <point x="783" y="298"/>
      <point x="783" y="246" type="curve" smooth="yes"/>
      <point x="783" y="179"/>
      <point x="733" y="135"/>
    </contour>
    <contour>
      <point x="656" y="161" type="curve" smooth="yes"/>
      <point x="721" y="161"/>
      <point x="754" y="197"/>
      <point x="754" y="245" type="curve" smooth="yes"/>
      <point x="754" y="287"/>
      <point x="729" y="319"/>
      <point x="653" y="347" type="curve" smooth="yes"/>
      <point x="644" y="351" type="line"/>
      <point x="589" y="333"/>
      <point x="552" y="298"/>
      <point x="552" y="247" type="curve" smooth="yes"/>
      <point x="552" y="193"/>
      <point x="594" y="161"/>
    </contour>
    <contour>
      <point x="655" y="378" type="curve"/>
      <point x="714" y="400"/>
      <point x="741" y="434"/>
      <point x="741" y="477" type="curve" smooth="yes"/>
      <point x="741" y="521"/>
      <point x="713" y="553"/>
      <point x="658" y="553" type="curve" smooth="yes"/>
      <point x="604" y="553"/>
      <point x="565" y="520"/>
      <point x="565" y="474" type="curve" smooth="yes"/>
      <point x="565" y="436"/>
      <point x="596" y="403"/>
    </contour>
  </outline>
</glyph>
<glyph name="circledblack81" format="2">
  <advance width="1000"/>
  <anchor x="500" y="357" name="C"/>
  <anchor x="357" y="357" name="L"/>
  <anchor x="643" y="357" name="R"/>
  <anchor x="633" y="357" name="_L"/>
  <anchor x="337" y="357" name="_R"/>
  <anchor x="500" y="0" name="center"/>
  <outline>
    <contour>
      <point x="500" y="-55" type="curve" smooth="yes"/>
      <point x="728" y="-55"/>
      <point x="912" y="129"/>
      <point x="912" y="357" type="curve" smooth="yes"/>
      <point x="912" y="584"/>
      <point x="728" y="769"/>
      <point x="500" y="769" type="curve" smooth="yes"/>
      <point x="272" y="769"/>
      <point x="88" y="584"/>
      <point x="88" y="357" type="curve" smooth="yes"/>
      <point x="88" y="129"/>
      <point x="272" y="-55"/>
    </contour>
    <contour>
      <point x="350" y="135" type="curve" smooth="yes"/>
      <point x="287" y="135"/>
      <point x="217" y="165"/>
      <point x="217" y="246" type="curve" smooth="yes"/>
      <point x="217" y="297"/>
      <point x="251" y="343"/>
      <point x="309" y="365" type="curve"/>
      <point x="267" y="389"/>
      <point x="231" y="421"/>
      <point x="231" y="473" type="curve" smooth="yes"/>
      <point x="231" y="537"/>
      <point x="283" y="579"/>
      <point x="352" y="579" type="curve" smooth="yes"/>
      <point x="425" y="579"/>
      <point x="464" y="534"/>
      <point x="464" y="478" type="curve" smooth="yes"/>
      <point x="464" y="436"/>
      <point x="442" y="394"/>
      <point x="380" y="365" type="curve"/>
      <point x="449" y="338"/>
      <point x="477" y="298"/>
      <point x="477" y="246" type="curve" smooth="yes"/>
      <point x="477" y="179"/>
      <point x="427" y="135"/>
    </contour>
    <contour>
      <point x="350" y="161" type="curve" smooth="yes"/>
      <point x="415" y="161"/>
      <point x="448" y="197"/>
      <point x="448" y="245" type="curve" smooth="yes"/>
      <point x="448" y="287"/>
      <point x="423" y="319"/>
      <point x="347" y="347" type="curve" smooth="yes"/>
      <point x="338" y="351" type="line"/>
      <point x="283" y="333"/>
      <point x="246" y="298"/>
      <point x="246" y="247" type="curve" smooth="yes"/>
      <point x="246" y="193"/>
      <point x="288" y="161"/>
    </contour>
    <contour>
      <point x="349" y="378" type="curve"/>
      <point x="408" y="400"/>
      <point x="435" y="434"/>
      <point x="435" y="477" type="curve" smooth="yes"/>
      <point x="435" y="521"/>
      <point x="407" y="553"/>
      <point x="352" y="553" type="curve" smooth="yes"/>
      <point x="298" y="553"/>
      <point x="259" y="520"/>
      <point x="259" y="474" type="curve" smooth="yes"/>
      <point x="259" y="436"/>
      <point x="290" y="403"/>
    </contour>
    <contour>
      <point x="534" y="144" type="line"/>
      <point x="534" y="171" type="line"/>
      <point x="640" y="171" type="line"/>
      <point x="640" y="484" type="line" smooth="yes"/>
      <point x="640" y="505"/>
      <point x="640" y="529"/>
      <point x="641" y="550" type="curve"/>
      <point x="638" y="545"/>
      <point x="630" y="538"/>
      <point x="617" y="528" type="curve" smooth="yes"/>
      <point x="607" y="519"/>
      <point x="574" y="494"/>
      <point x="545" y="471" type="curve"/>
      <point x="529" y="494" type="line"/>
      <point x="629" y="572" type="line"/>
      <point x="666" y="572" type="line"/>
      <point x="666" y="171" type="line"/>
      <point x="772" y="171" type="line"/>
      <point x="772" y="144" type="line"/>
    </contour>
  </outline>
</glyph>
<glyph name="circledblack9" format="2">
  <advance width="1000"/>
  <anchor x="500" y="357" name="C"/>
  <anchor x="357" y="357" name="L"/>
  <anchor x="643" y="357" name="R"/>
  <anchor x="500" y="0" name="center"/>
  <outline>
    <contour>
      <point x="500" y="-55" type="curve" smooth="yes"/>
      <point x="728" y="-55"/>
      <point x="912" y="129"/>
      <point x="912" y="357" type="curve" smooth="yes"/>
      <point x="912" y="584"/>
      <point x="728" y="769"/>
      <point x="500" y="769" type="curve" smooth="yes"/>
      <point x="272" y="769"/>
      <point x="88" y="584"/>
      <point x="88" y="357" type="curve" smooth="yes"/>
      <point x="88" y="129"/>
      <point x="272" y="-55"/>
    </contour>
    <contour>
      <point x="469" y="134" type="curve" smooth="yes"/>
      <point x="441" y="134"/>
      <point x="414" y="138"/>
      <point x="399" y="143" type="curve"/>
      <point x="399" y="171" type="line"/>
      <point x="417" y="165"/>
      <point x="441" y="161"/>
      <point x="468" y="161" type="curve" smooth="yes"/>
      <point x="551" y="161"/>
      <point x="623" y="197"/>
      <point x="626" y="363" type="curve"/>
      <point x="624" y="363" type="line"/>
      <point x="597" y="313"/>
      <point x="541" y="301"/>
      <point x="500" y="301" type="curve" smooth="yes"/>
      <point x="416" y="301"/>
      <point x="360" y="351"/>
      <point x="360" y="436" type="curve" smooth="yes"/>
      <point x="360" y="520"/>
      <point x="414" y="579"/>
      <point x="508" y="579" type="curve" smooth="yes"/>
      <point x="597" y="579"/>
      <point x="656" y="527"/>
      <point x="656" y="374" type="curve" smooth="yes"/>
      <point x="656" y="189"/>
      <point x="575" y="134"/>
    </contour>
    <contour>
      <point x="506" y="328" type="curve" smooth="yes"/>
      <point x="586" y="328"/>
      <point x="623" y="368"/>
      <point x="623" y="432" type="curve" smooth="yes"/>
      <point x="623" y="506"/>
      <point x="578" y="553"/>
      <point x="505" y="553" type="curve" smooth="yes"/>
      <point x="437" y="553"/>
      <point x="391" y="513"/>
      <point x="391" y="436" type="curve" smooth="yes"/>
      <point x="391" y="363"/>
      <point x="431" y="328"/>
    </contour>
  </outline>
</glyph>
<glyph name="circledblack94" format="2">
  <advance width="1000"/>
  <anchor x="500" y="357" name="C"/>
  <anchor x="357" y="357" name="L"/>
  <anchor x="643" y="357" name="R"/>
  <anchor x="663" y="357" name="_L"/>
  <anchor x="337" y="357" name="_R"/>
  <anchor x="500" y="0" name="center"/>
  <outline>
    <contour>
      <point x="500" y="-55" type="curve" smooth="yes"/>
      <point x="728" y="-55"/>
      <point x="912" y="129"/>
      <point x="912" y="357" type="curve" smooth="yes"/>
      <point x="912" y="584"/>
      <point x="728" y="769"/>
      <point x="500" y="769" type="curve" smooth="yes"/>
      <point x="272" y="769"/>
      <point x="88" y="584"/>
      <point x="88" y="357" type="curve" smooth="yes"/>
      <point x="88" y="129"/>
      <point x="272" y="-55"/>
    </contour>
    <contour>
      <point x="314" y="134" type="curve" smooth="yes"/>
      <point x="289" y="134"/>
      <point x="262" y="138"/>
      <point x="249" y="143" type="curve"/>
      <point x="249" y="171" type="line"/>
      <point x="264" y="165"/>
      <point x="292" y="161"/>
      <point x="316" y="161" type="curve" smooth="yes"/>
      <point x="387" y="161"/>
      <point x="448" y="193"/>
      <point x="451" y="362" type="curve"/>
      <point x="449" y="362" type="line"/>
      <point x="425" y="313"/>
      <point x="373" y="301"/>
      <point x="338" y="301" type="curve" smooth="yes"/>
      <point x="263" y="301"/>
      <point x="215" y="352"/>
      <point x="215" y="437" type="curve" smooth="yes"/>
      <point x="215" y="519"/>
      <point x="260" y="579"/>
      <point x="346" y="579" type="curve" smooth="yes"/>
      <point x="427" y="579"/>
      <point x="479" y="528"/>
      <point x="479" y="372" type="curve" smooth="yes"/>
      <point x="479" y="187"/>
      <point x="407" y="134"/>
    </contour>
    <contour>
      <point x="341" y="327" type="curve" smooth="yes"/>
      <point x="408" y="327"/>
      <point x="447" y="367"/>
      <point x="447" y="430" type="curve" smooth="yes"/>
      <point x="447" y="506"/>
      <point x="408" y="553"/>
      <point x="343" y="553" type="curve" smooth="yes"/>
      <point x="282" y="553"/>
      <point x="243" y="512"/>
      <point x="243" y="436" type="curve" smooth="yes"/>
      <point x="243" y="363"/>
      <point x="277" y="327"/>
    </contour>
    <contour>
      <point x="699" y="144" type="line"/>
      <point x="699" y="251" type="line"/>
      <point x="513" y="251" type="line"/>
      <point x="513" y="273" type="line"/>
      <point x="688" y="572" type="line"/>
      <point x="725" y="572" type="line"/>
      <point x="725" y="278" type="line"/>
      <point x="795" y="278" type="line"/>
      <point x="795" y="251" type="line"/>
      <point x="725" y="251" type="line"/>
      <point x="725" y="144" type="line"/>
    </contour>
    <contour>
      <point x="546" y="278" type="line"/>
      <point x="699" y="278" type="line"/>
      <point x="699" y="464" type="line" smooth="yes"/>
      <point x="699" y="496"/>
      <point x="699" y="528"/>
      <point x="700" y="548" type="curve"/>
      <point x="699" y="548" type="line"/>
      <point x="692" y="530"/>
      <point x="678" y="504"/>
      <point x="660" y="474" type="curve" smooth="yes"/>
    </contour>
  </outline>
</glyph>
<glyph name="circledblack98" format="2">
  <advance width="1000"/>
  <anchor x="500" y="357" name="C"/>
  <anchor x="357" y="357" name="L"/>
  <anchor x="643" y="357" name="R"/>
  <anchor x="663" y="357" name="_L"/>
  <anchor x="337" y="357" name="_R"/>
  <anchor x="500" y="0" name="center"/>
  <outline>
    <contour>
      <point x="500" y="-55" type="curve" smooth="yes"/>
      <point x="728" y="-55"/>
      <point x="912" y="129"/>
      <point x="912" y="357" type="curve" smooth="yes"/>
      <point x="912" y="584"/>
      <point x="728" y="769"/>
      <point x="500" y="769" type="curve" smooth="yes"/>
      <point x="272" y="769"/>
      <point x="88" y="584"/>
      <point x="88" y="357" type="curve" smooth="yes"/>
      <point x="88" y="129"/>
      <point x="272" y="-55"/>
    </contour>
    <contour>
      <point x="314" y="134" type="curve" smooth="yes"/>
      <point x="289" y="134"/>
      <point x="262" y="138"/>
      <point x="249" y="143" type="curve"/>
      <point x="249" y="171" type="line"/>
      <point x="264" y="165"/>
      <point x="292" y="161"/>
      <point x="316" y="161" type="curve" smooth="yes"/>
      <point x="387" y="161"/>
      <point x="448" y="193"/>
      <point x="451" y="362" type="curve"/>
      <point x="449" y="362" type="line"/>
      <point x="425" y="313"/>
      <point x="373" y="301"/>
      <point x="338" y="301" type="curve" smooth="yes"/>
      <point x="263" y="301"/>
      <point x="215" y="352"/>
      <point x="215" y="437" type="curve" smooth="yes"/>
      <point x="215" y="519"/>
      <point x="260" y="579"/>
      <point x="346" y="579" type="curve" smooth="yes"/>
      <point x="427" y="579"/>
      <point x="479" y="528"/>
      <point x="479" y="372" type="curve" smooth="yes"/>
      <point x="479" y="187"/>
      <point x="407" y="134"/>
    </contour>
    <contour>
      <point x="341" y="327" type="curve" smooth="yes"/>
      <point x="408" y="327"/>
      <point x="447" y="367"/>
      <point x="447" y="430" type="curve" smooth="yes"/>
      <point x="447" y="506"/>
      <point x="408" y="553"/>
      <point x="343" y="553" type="curve" smooth="yes"/>
      <point x="282" y="553"/>
      <point x="243" y="512"/>
      <point x="243" y="436" type="curve" smooth="yes"/>
      <point x="243" y="363"/>
      <point x="277" y="327"/>
    </contour>
    <contour>
      <point x="656" y="135" type="curve" smooth="yes"/>
      <point x="593" y="135"/>
      <point x="523" y="165"/>
      <point x="523" y="246" type="curve" smooth="yes"/>
      <point x="523" y="297"/>
      <point x="557" y="343"/>
      <point x="615" y="365" type="curve"/>
      <point x="573" y="389"/>
      <point x="537" y="421"/>
      <point x="537" y="473" type="curve" smooth="yes"/>
      <point x="537" y="537"/>
      <point x="589" y="579"/>
      <point x="658" y="579" type="curve" smooth="yes"/>
      <point x="731" y="579"/>
      <point x="770" y="534"/>
      <point x="770" y="478" type="curve" smooth="yes"/>
      <point x="770" y="436"/>
      <point x="748" y="394"/>
      <point x="686" y="365" type="curve"/>
      <point x="755" y="338"/>
      <point x="783" y="298"/>
      <point x="783" y="246" type="curve" smooth="yes"/>
      <point x="783" y="179"/>
      <point x="733" y="135"/>
    </contour>
    <contour>
      <point x="656" y="161" type="curve" smooth="yes"/>
      <point x="721" y="161"/>
      <point x="754" y="197"/>
      <point x="754" y="245" type="curve" smooth="yes"/>
      <point x="754" y="287"/>
      <point x="729" y="319"/>
      <point x="653" y="347" type="curve" smooth="yes"/>
      <point x="644" y="351" type="line"/>
      <point x="589" y="333"/>
      <point x="552" y="298"/>
      <point x="552" y="247" type="curve" smooth="yes"/>
      <point x="552" y="193"/>
      <point x="594" y="161"/>
    </contour>
    <contour>
      <point x="655" y="378" type="curve"/>
      <point x="714" y="400"/>
      <point x="741" y="434"/>
      <point x="741" y="477" type="curve" smooth="yes"/>
      <point x="741" y="521"/>
      <point x="713" y="553"/>
      <point x="658" y="553" type="curve" smooth="yes"/>
      <point x="604" y="553"/>
      <point x="565" y="520"/>
      <point x="565" y="474" type="curve" smooth="yes"/>
      <point x="565" y="436"/>
      <point x="596" y="403"/>
    </contour>
  </outline>
</glyph>
<glyph name="circlednumrev10" format="2">
  <advance width="1000"/>
  <anchor x="500" y="357" name="C"/>
  <anchor x="357" y="357" name="L"/>
  <anchor x="643" y="357" name="R"/>
  <anchor x="663" y="357" name="_L"/>
  <anchor x="367" y="357" name="_R"/>
  <anchor x="500" y="0" name="center"/>
  <outline>
    <contour>
      <point x="500" y="-55" type="curve" smooth="yes"/>
      <point x="728" y="-55"/>
      <point x="912" y="129"/>
      <point x="912" y="357" type="curve" smooth="yes"/>
      <point x="912" y="584"/>
      <point x="728" y="769"/>
      <point x="500" y="769" type="curve" smooth="yes"/>
      <point x="272" y="769"/>
      <point x="88" y="584"/>
      <point x="88" y="357" type="curve" smooth="yes"/>
      <point x="88" y="129"/>
      <point x="272" y="-55"/>
    </contour>
    <contour>
      <point x="258" y="144" type="line"/>
      <point x="258" y="171" type="line"/>
      <point x="364" y="171" type="line"/>
      <point x="364" y="484" type="line" smooth="yes"/>
      <point x="364" y="505"/>
      <point x="364" y="529"/>
      <point x="365" y="550" type="curve"/>
      <point x="362" y="545"/>
      <point x="354" y="538"/>
      <point x="341" y="528" type="curve" smooth="yes"/>
      <point x="331" y="519"/>
      <point x="298" y="494"/>
      <point x="269" y="471" type="curve"/>
      <point x="253" y="494" type="line"/>
      <point x="353" y="572" type="line"/>
      <point x="390" y="572" type="line"/>
      <point x="390" y="171" type="line"/>
      <point x="496" y="171" type="line"/>
      <point x="496" y="144" type="line"/>
    </contour>
    <contour>
      <point x="653" y="135" type="curve" smooth="yes"/>
      <point x="568" y="135"/>
      <point x="521" y="204"/>
      <point x="521" y="359" type="curve" smooth="yes"/>
      <point x="521" y="512"/>
      <point x="571" y="579"/>
      <point x="653" y="579" type="curve" smooth="yes"/>
      <point x="736" y="579"/>
      <point x="785" y="512"/>
      <point x="785" y="359" type="curve" smooth="yes"/>
      <point x="785" y="204"/>
      <point x="739" y="135"/>
    </contour>
    <contour>
      <point x="653" y="161" type="curve" smooth="yes"/>
      <point x="718" y="161"/>
      <point x="757" y="226"/>
      <point x="757" y="357" type="curve" smooth="yes"/>
      <point x="757" y="488"/>
      <point x="724" y="553"/>
      <point x="653" y="553" type="curve" smooth="yes"/>
      <point x="583" y="553"/>
      <point x="550" y="488"/>
      <point x="550" y="357" type="curve" smooth="yes"/>
      <point x="550" y="226"/>
      <point x="588" y="161"/>
    </contour>
  </outline>
</glyph>
<glyph name="circlednumrev13" format="2">
  <advance width="1000"/>
  <anchor x="500" y="357" name="C"/>
  <anchor x="357" y="357" name="L"/>
  <anchor x="643" y="357" name="R"/>
  <anchor x="663" y="357" name="_L"/>
  <anchor x="367" y="357" name="_R"/>
  <anchor x="500" y="0" name="center"/>
  <outline>
    <contour>
      <point x="500" y="-55" type="curve" smooth="yes"/>
      <point x="728" y="-55"/>
      <point x="912" y="129"/>
      <point x="912" y="357" type="curve" smooth="yes"/>
      <point x="912" y="584"/>
      <point x="728" y="769"/>
      <point x="500" y="769" type="curve" smooth="yes"/>
      <point x="272" y="769"/>
      <point x="88" y="584"/>
      <point x="88" y="357" type="curve" smooth="yes"/>
      <point x="88" y="129"/>
      <point x="272" y="-55"/>
    </contour>
    <contour>
      <point x="258" y="144" type="line"/>
      <point x="258" y="171" type="line"/>
      <point x="364" y="171" type="line"/>
      <point x="364" y="484" type="line" smooth="yes"/>
      <point x="364" y="505"/>
      <point x="364" y="529"/>
      <point x="365" y="550" type="curve"/>
      <point x="362" y="545"/>
      <point x="354" y="538"/>
      <point x="341" y="528" type="curve" smooth="yes"/>
      <point x="331" y="519"/>
      <point x="298" y="494"/>
      <point x="269" y="471" type="curve"/>
      <point x="253" y="494" type="line"/>
      <point x="353" y="572" type="line"/>
      <point x="390" y="572" type="line"/>
      <point x="390" y="171" type="line"/>
      <point x="496" y="171" type="line"/>
      <point x="496" y="144" type="line"/>
    </contour>
    <contour>
      <point x="650" y="135" type="curve" smooth="yes"/>
      <point x="609" y="135"/>
      <point x="567" y="146"/>
      <point x="533" y="168" type="curve"/>
      <point x="533" y="198" type="line"/>
      <point x="583" y="171"/>
      <point x="615" y="161"/>
      <point x="648" y="161" type="curve" smooth="yes"/>
      <point x="707" y="161"/>
      <point x="760" y="196"/>
      <point x="760" y="260" type="curve" smooth="yes"/>
      <point x="760" y="326"/>
      <point x="703" y="351"/>
      <point x="643" y="351" type="curve" smooth="yes"/>
      <point x="595" y="351" type="line"/>
      <point x="595" y="376" type="line"/>
      <point x="644" y="376" type="line" smooth="yes"/>
      <point x="700" y="376"/>
      <point x="746" y="405"/>
      <point x="746" y="469" type="curve" smooth="yes"/>
      <point x="746" y="529"/>
      <point x="703" y="553"/>
      <point x="655" y="553" type="curve" smooth="yes"/>
      <point x="613" y="553"/>
      <point x="577" y="534"/>
      <point x="548" y="510" type="curve"/>
      <point x="532" y="533" type="line"/>
      <point x="572" y="568"/>
      <point x="621" y="579"/>
      <point x="658" y="579" type="curve" smooth="yes"/>
      <point x="738" y="579"/>
      <point x="775" y="528"/>
      <point x="775" y="468" type="curve" smooth="yes"/>
      <point x="775" y="412"/>
      <point x="743" y="377"/>
      <point x="681" y="359" type="curve"/>
      <point x="681" y="368" type="line"/>
      <point x="734" y="361"/>
      <point x="788" y="334"/>
      <point x="788" y="260" type="curve" smooth="yes"/>
      <point x="788" y="186"/>
      <point x="734" y="135"/>
    </contour>
  </outline>
</glyph>
<glyph name="circlednumrev16" format="2">
  <advance width="1000"/>
  <anchor x="500" y="357" name="C"/>
  <anchor x="357" y="357" name="L"/>
  <anchor x="643" y="357" name="R"/>
  <anchor x="663" y="357" name="_L"/>
  <anchor x="367" y="357" name="_R"/>
  <anchor x="500" y="0" name="center"/>
  <outline>
    <contour>
      <point x="500" y="-55" type="curve" smooth="yes"/>
      <point x="728" y="-55"/>
      <point x="912" y="129"/>
      <point x="912" y="357" type="curve" smooth="yes"/>
      <point x="912" y="584"/>
      <point x="728" y="769"/>
      <point x="500" y="769" type="curve" smooth="yes"/>
      <point x="272" y="769"/>
      <point x="88" y="584"/>
      <point x="88" y="357" type="curve" smooth="yes"/>
      <point x="88" y="129"/>
      <point x="272" y="-55"/>
    </contour>
    <contour>
      <point x="258" y="144" type="line"/>
      <point x="258" y="171" type="line"/>
      <point x="364" y="171" type="line"/>
      <point x="364" y="484" type="line" smooth="yes"/>
      <point x="364" y="505"/>
      <point x="364" y="529"/>
      <point x="365" y="550" type="curve"/>
      <point x="362" y="545"/>
      <point x="354" y="538"/>
      <point x="341" y="528" type="curve" smooth="yes"/>
      <point x="331" y="519"/>
      <point x="298" y="494"/>
      <point x="269" y="471" type="curve"/>
      <point x="253" y="494" type="line"/>
      <point x="353" y="572" type="line"/>
      <point x="390" y="572" type="line"/>
      <point x="390" y="171" type="line"/>
      <point x="496" y="171" type="line"/>
      <point x="496" y="144" type="line"/>
    </contour>
    <contour>
      <point x="657" y="134" type="curve" smooth="yes"/>
      <point x="576" y="134"/>
      <point x="521" y="191"/>
      <point x="521" y="341" type="curve" smooth="yes"/>
      <point x="521" y="522"/>
      <point x="597" y="579"/>
      <point x="690" y="579" type="curve" smooth="yes"/>
      <point x="714" y="579"/>
      <point x="737" y="575"/>
      <point x="751" y="571" type="curve"/>
      <point x="751" y="542" type="line"/>
      <point x="735" y="549"/>
      <point x="713" y="553"/>
      <point x="689" y="553" type="curve" smooth="yes"/>
      <point x="617" y="553"/>
      <point x="552" y="515"/>
      <point x="549" y="351" type="curve"/>
      <point x="550" y="351" type="line"/>
      <point x="574" y="401"/>
      <point x="624" y="412"/>
      <point x="662" y="412" type="curve" smooth="yes"/>
      <point x="738" y="412"/>
      <point x="785" y="366"/>
      <point x="785" y="281" type="curve" smooth="yes"/>
      <point x="785" y="193"/>
      <point x="737" y="134"/>
    </contour>
    <contour>
      <point x="660" y="161" type="curve" smooth="yes"/>
      <point x="716" y="161"/>
      <point x="756" y="201"/>
      <point x="756" y="281" type="curve" smooth="yes"/>
      <point x="756" y="354"/>
      <point x="724" y="386"/>
      <point x="659" y="386" type="curve" smooth="yes"/>
      <point x="588" y="386"/>
      <point x="552" y="347"/>
      <point x="552" y="283" type="curve" smooth="yes"/>
      <point x="552" y="213"/>
      <point x="595" y="161"/>
    </contour>
  </outline>
</glyph>
<glyph name="circlednumrev2" format="2">
  <advance width="1000"/>
  <anchor x="500" y="357" name="C"/>
  <anchor x="357" y="357" name="L"/>
  <anchor x="643" y="357" name="R"/>
  <anchor x="500" y="0" name="center"/>
  <outline>
    <contour>
      <point x="500" y="-55" type="curve" smooth="yes"/>
      <point x="728" y="-55"/>
      <point x="912" y="129"/>
      <point x="912" y="357" type="curve" smooth="yes"/>
      <point x="912" y="584"/>
      <point x="728" y="769"/>
      <point x="500" y="769" type="curve" smooth="yes"/>
      <point x="272" y="769"/>
      <point x="88" y="584"/>
      <point x="88" y="357" type="curve" smooth="yes"/>
      <point x="88" y="129"/>
      <point x="272" y="-55"/>
    </contour>
    <contour>
      <point x="371" y="144" type="line"/>
      <point x="371" y="166" type="line"/>
      <point x="495" y="292" type="line" smooth="yes"/>
      <point x="573" y="372"/>
      <point x="595" y="409"/>
      <point x="595" y="462" type="curve" smooth="yes"/>
      <point x="595" y="527"/>
      <point x="562" y="553"/>
      <point x="512" y="553" type="curve" smooth="yes"/>
      <point x="470" y="553"/>
      <point x="430" y="535"/>
      <point x="390" y="504" type="curve"/>
      <point x="375" y="525" type="line"/>
      <point x="423" y="566"/>
      <point x="473" y="579"/>
      <point x="512" y="579" type="curve" smooth="yes"/>
      <point x="584" y="579"/>
      <point x="625" y="536"/>
      <point x="625" y="465" type="curve" smooth="yes"/>
      <point x="625" y="396"/>
      <point x="586" y="346"/>
      <point x="530" y="289" type="curve" smooth="yes"/>
      <point x="392" y="148" type="line"/>
      <point x="392" y="171" type="line"/>
      <point x="629" y="171" type="line"/>
      <point x="629" y="144" type="line"/>
    </contour>
  </outline>
</glyph>
<glyph name="circlednumrev22" format="2">
  <advance width="1000"/>
  <anchor x="500" y="357" name="C"/>
  <anchor x="357" y="357" name="L"/>
  <anchor x="643" y="357" name="R"/>
  <anchor x="623" y="357" name="_L"/>
  <anchor x="377" y="357" name="_R"/>
  <anchor x="500" y="0" name="center"/>
  <outline>
    <contour>
      <point x="500" y="-55" type="curve" smooth="yes"/>
      <point x="728" y="-55"/>
      <point x="912" y="129"/>
      <point x="912" y="357" type="curve" smooth="yes"/>
      <point x="912" y="584"/>
      <point x="728" y="769"/>
      <point x="500" y="769" type="curve" smooth="yes"/>
      <point x="272" y="769"/>
      <point x="88" y="584"/>
      <point x="88" y="357" type="curve" smooth="yes"/>
      <point x="88" y="129"/>
      <point x="272" y="-55"/>
    </contour>
    <contour>
      <point x="248" y="144" type="line"/>
      <point x="248" y="166" type="line"/>
      <point x="367" y="297" type="line" smooth="yes"/>
      <point x="427" y="363"/>
      <point x="453" y="402"/>
      <point x="453" y="462" type="curve" smooth="yes"/>
      <point x="453" y="526"/>
      <point x="423" y="553"/>
      <point x="379" y="553" type="curve" smooth="yes"/>
      <point x="344" y="553"/>
      <point x="304" y="537"/>
      <point x="266" y="502" type="curve"/>
      <point x="252" y="525" type="line"/>
      <point x="297" y="566"/>
      <point x="345" y="579"/>
      <point x="380" y="579" type="curve" smooth="yes"/>
      <point x="448" y="579"/>
      <point x="482" y="537"/>
      <point x="482" y="466" type="curve" smooth="yes"/>
      <point x="482" y="400"/>
      <point x="451" y="354"/>
      <point x="397" y="292" type="curve" smooth="yes"/>
      <point x="267" y="146" type="line"/>
      <point x="267" y="171" type="line"/>
      <point x="486" y="171" type="line"/>
      <point x="486" y="144" type="line"/>
    </contour>
    <contour>
      <point x="514" y="144" type="line"/>
      <point x="514" y="166" type="line"/>
      <point x="633" y="297" type="line" smooth="yes"/>
      <point x="693" y="363"/>
      <point x="719" y="402"/>
      <point x="719" y="462" type="curve" smooth="yes"/>
      <point x="719" y="526"/>
      <point x="689" y="553"/>
      <point x="645" y="553" type="curve" smooth="yes"/>
      <point x="610" y="553"/>
      <point x="570" y="537"/>
      <point x="532" y="502" type="curve"/>
      <point x="518" y="525" type="line"/>
      <point x="563" y="566"/>
      <point x="611" y="579"/>
      <point x="646" y="579" type="curve" smooth="yes"/>
      <point x="714" y="579"/>
      <point x="748" y="537"/>
      <point x="748" y="466" type="curve" smooth="yes"/>
      <point x="748" y="400"/>
      <point x="717" y="354"/>
      <point x="663" y="292" type="curve" smooth="yes"/>
      <point x="533" y="146" type="line"/>
      <point x="533" y="171" type="line"/>
      <point x="752" y="171" type="line"/>
      <point x="752" y="144" type="line"/>
    </contour>
  </outline>
</glyph>
<glyph name="circlednumrev23" format="2">
  <advance width="1000"/>
  <anchor x="500" y="357" name="C"/>
  <anchor x="357" y="357" name="L"/>
  <anchor x="643" y="357" name="R"/>
  <anchor x="663" y="357" name="_L"/>
  <anchor x="377" y="357" name="_R"/>
  <anchor x="500" y="0" name="center"/>
  <outline>
    <contour>
      <point x="500" y="-55" type="curve" smooth="yes"/>
      <point x="728" y="-55"/>
      <point x="912" y="129"/>
      <point x="912" y="357" type="curve" smooth="yes"/>
      <point x="912" y="584"/>
      <point x="728" y="769"/>
      <point x="500" y="769" type="curve" smooth="yes"/>
      <point x="272" y="769"/>
      <point x="88" y="584"/>
      <point x="88" y="357" type="curve" smooth="yes"/>
      <point x="88" y="129"/>
      <point x="272" y="-55"/>
    </contour>
    <contour>
      <point x="248" y="144" type="line"/>
      <point x="248" y="166" type="line"/>
      <point x="367" y="297" type="line" smooth="yes"/>
      <point x="427" y="363"/>
      <point x="453" y="402"/>
      <point x="453" y="462" type="curve" smooth="yes"/>
      <point x="453" y="526"/>
      <point x="423" y="553"/>
      <point x="379" y="553" type="curve" smooth="yes"/>
      <point x="344" y="553"/>
      <point x="304" y="537"/>
      <point x="266" y="502" type="curve"/>
      <point x="252" y="525" type="line"/>
      <point x="297" y="566"/>
      <point x="345" y="579"/>
      <point x="380" y="579" type="curve" smooth="yes"/>
      <point x="448" y="579"/>
      <point x="482" y="537"/>
      <point x="482" y="466" type="curve" smooth="yes"/>
      <point x="482" y="400"/>
      <point x="451" y="354"/>
      <point x="397" y="292" type="curve" smooth="yes"/>
      <point x="267" y="146" type="line"/>
      <point x="267" y="171" type="line"/>
      <point x="486" y="171" type="line"/>
      <point x="486" y="144" type="line"/>
    </contour>
    <contour>
      <point x="650" y="135" type="curve" smooth="yes"/>
      <point x="609" y="135"/>
      <point x="567" y="146"/>
      <point x="533" y="168" type="curve"/>
      <point x="533" y="198" type="line"/>
      <point x="583" y="171"/>
      <point x="615" y="161"/>
      <point x="648" y="161" type="curve" smooth="yes"/>
      <point x="707" y="161"/>
      <point x="760" y="196"/>
      <point x="760" y="260" type="curve" smooth="yes"/>
      <point x="760" y="326"/>
      <point x="703" y="351"/>
      <point x="643" y="351" type="curve" smooth="yes"/>
      <point x="595" y="351" type="line"/>
      <point x="595" y="376" type="line"/>
      <point x="644" y="376" type="line" smooth="yes"/>
      <point x="700" y="376"/>
      <point x="746" y="405"/>
      <point x="746" y="469" type="curve" smooth="yes"/>
      <point x="746" y="529"/>
      <point x="703" y="553"/>
      <point x="655" y="553" type="curve" smooth="yes"/>
      <point x="613" y="553"/>
      <point x="577" y="534"/>
      <point x="548" y="510" type="curve"/>
      <point x="532" y="533" type="line"/>
      <point x="572" y="568"/>
      <point x="621" y="579"/>
      <point x="658" y="579" type="curve" smooth="yes"/>
      <point x="738" y="579"/>
      <point x="775" y="528"/>
      <point x="775" y="468" type="curve" smooth="yes"/>
      <point x="775" y="412"/>
      <point x="743" y="377"/>
      <point x="681" y="359" type="curve"/>
      <point x="681" y="368" type="line"/>
      <point x="734" y="361"/>
      <point x="788" y="334"/>
      <point x="788" y="260" type="curve" smooth="yes"/>
      <point x="788" y="186"/>
      <point x="734" y="135"/>
    </contour>
  </outline>
</glyph>
<glyph name="circlednumrev24" format="2">
  <advance width="1000"/>
  <anchor x="500" y="357" name="C"/>
  <anchor x="357" y="357" name="L"/>
  <anchor x="643" y="357" name="R"/>
  <anchor x="663" y="357" name="_L"/>
  <anchor x="377" y="357" name="_R"/>
  <anchor x="500" y="0" name="center"/>
  <outline>
    <contour>
      <point x="500" y="-55" type="curve" smooth="yes"/>
      <point x="728" y="-55"/>
      <point x="912" y="129"/>
      <point x="912" y="357" type="curve" smooth="yes"/>
      <point x="912" y="584"/>
      <point x="728" y="769"/>
      <point x="500" y="769" type="curve" smooth="yes"/>
      <point x="272" y="769"/>
      <point x="88" y="584"/>
      <point x="88" y="357" type="curve" smooth="yes"/>
      <point x="88" y="129"/>
      <point x="272" y="-55"/>
    </contour>
    <contour>
      <point x="248" y="144" type="line"/>
      <point x="248" y="166" type="line"/>
      <point x="367" y="297" type="line" smooth="yes"/>
      <point x="427" y="363"/>
      <point x="453" y="402"/>
      <point x="453" y="462" type="curve" smooth="yes"/>
      <point x="453" y="526"/>
      <point x="423" y="553"/>
      <point x="379" y="553" type="curve" smooth="yes"/>
      <point x="344" y="553"/>
      <point x="304" y="537"/>
      <point x="266" y="502" type="curve"/>
      <point x="252" y="525" type="line"/>
      <point x="297" y="566"/>
      <point x="345" y="579"/>
      <point x="380" y="579" type="curve" smooth="yes"/>
      <point x="448" y="579"/>
      <point x="482" y="537"/>
      <point x="482" y="466" type="curve" smooth="yes"/>
      <point x="482" y="400"/>
      <point x="451" y="354"/>
      <point x="397" y="292" type="curve" smooth="yes"/>
      <point x="267" y="146" type="line"/>
      <point x="267" y="171" type="line"/>
      <point x="486" y="171" type="line"/>
      <point x="486" y="144" type="line"/>
    </contour>
    <contour>
      <point x="699" y="144" type="line"/>
      <point x="699" y="251" type="line"/>
      <point x="513" y="251" type="line"/>
      <point x="513" y="273" type="line"/>
      <point x="688" y="572" type="line"/>
      <point x="725" y="572" type="line"/>
      <point x="725" y="278" type="line"/>
      <point x="795" y="278" type="line"/>
      <point x="795" y="251" type="line"/>
      <point x="725" y="251" type="line"/>
      <point x="725" y="144" type="line"/>
    </contour>
    <contour>
      <point x="546" y="278" type="line"/>
      <point x="699" y="278" type="line"/>
      <point x="699" y="464" type="line" smooth="yes"/>
      <point x="699" y="496"/>
      <point x="699" y="528"/>
      <point x="700" y="548" type="curve"/>
      <point x="699" y="548" type="line"/>
      <point x="692" y="530"/>
      <point x="678" y="504"/>
      <point x="660" y="474" type="curve" smooth="yes"/>
    </contour>
  </outline>
</glyph>
<glyph name="circlednumrev26" format="2">
  <advance width="1000"/>
  <anchor x="500" y="357" name="C"/>
  <anchor x="357" y="357" name="L"/>
  <anchor x="643" y="357" name="R"/>
  <anchor x="663" y="357" name="_L"/>
  <anchor x="377" y="357" name="_R"/>
  <anchor x="500" y="0" name="center"/>
  <outline>
    <contour>
      <point x="500" y="-55" type="curve" smooth="yes"/>
      <point x="728" y="-55"/>
      <point x="912" y="129"/>
      <point x="912" y="357" type="curve" smooth="yes"/>
      <point x="912" y="584"/>
      <point x="728" y="769"/>
      <point x="500" y="769" type="curve" smooth="yes"/>
      <point x="272" y="769"/>
      <point x="88" y="584"/>
      <point x="88" y="357" type="curve" smooth="yes"/>
      <point x="88" y="129"/>
      <point x="272" y="-55"/>
    </contour>
    <contour>
      <point x="248" y="144" type="line"/>
      <point x="248" y="166" type="line"/>
      <point x="367" y="297" type="line" smooth="yes"/>
      <point x="427" y="363"/>
      <point x="453" y="402"/>
      <point x="453" y="462" type="curve" smooth="yes"/>
      <point x="453" y="526"/>
      <point x="423" y="553"/>
      <point x="379" y="553" type="curve" smooth="yes"/>
      <point x="344" y="553"/>
      <point x="304" y="537"/>
      <point x="266" y="502" type="curve"/>
      <point x="252" y="525" type="line"/>
      <point x="297" y="566"/>
      <point x="345" y="579"/>
      <point x="380" y="579" type="curve" smooth="yes"/>
      <point x="448" y="579"/>
      <point x="482" y="537"/>
      <point x="482" y="466" type="curve" smooth="yes"/>
      <point x="482" y="400"/>
      <point x="451" y="354"/>
      <point x="397" y="292" type="curve" smooth="yes"/>
      <point x="267" y="146" type="line"/>
      <point x="267" y="171" type="line"/>
      <point x="486" y="171" type="line"/>
      <point x="486" y="144" type="line"/>
    </contour>
    <contour>
      <point x="657" y="134" type="curve" smooth="yes"/>
      <point x="576" y="134"/>
      <point x="521" y="191"/>
      <point x="521" y="341" type="curve" smooth="yes"/>
      <point x="521" y="522"/>
      <point x="597" y="579"/>
      <point x="690" y="579" type="curve" smooth="yes"/>
      <point x="714" y="579"/>
      <point x="737" y="575"/>
      <point x="751" y="571" type="curve"/>
      <point x="751" y="542" type="line"/>
      <point x="735" y="549"/>
      <point x="713" y="553"/>
      <point x="689" y="553" type="curve" smooth="yes"/>
      <point x="617" y="553"/>
      <point x="552" y="515"/>
      <point x="549" y="351" type="curve"/>
      <point x="550" y="351" type="line"/>
      <point x="574" y="401"/>
      <point x="624" y="412"/>
      <point x="662" y="412" type="curve" smooth="yes"/>
      <point x="738" y="412"/>
      <point x="785" y="366"/>
      <point x="785" y="281" type="curve" smooth="yes"/>
      <point x="785" y="193"/>
      <point x="737" y="134"/>
    </contour>
    <contour>
      <point x="660" y="161" type="curve" smooth="yes"/>
      <point x="716" y="161"/>
      <point x="756" y="201"/>
      <point x="756" y="281" type="curve" smooth="yes"/>
      <point x="756" y="354"/>
      <point x="724" y="386"/>
      <point x="659" y="386" type="curve" smooth="yes"/>
      <point x="588" y="386"/>
      <point x="552" y="347"/>
      <point x="552" y="283" type="curve" smooth="yes"/>
      <point x="552" y="213"/>
      <point x="595" y="161"/>
    </contour>
  </outline>
</glyph>
<glyph name="circlednumrev29" format="2">
  <advance width="1000"/>
  <anchor x="500" y="357" name="C"/>
  <anchor x="357" y="357" name="L"/>
  <anchor x="643" y="357" name="R"/>
  <anchor x="663" y="357" name="_L"/>
  <anchor x="377" y="357" name="_R"/>
  <anchor x="500" y="0" name="center"/>
  <outline>
    <contour>
      <point x="500" y="-55" type="curve" smooth="yes"/>
      <point x="728" y="-55"/>
      <point x="912" y="129"/>
      <point x="912" y="357" type="curve" smooth="yes"/>
      <point x="912" y="584"/>
      <point x="728" y="769"/>
      <point x="500" y="769" type="curve" smooth="yes"/>
      <point x="272" y="769"/>
      <point x="88" y="584"/>
      <point x="88" y="357" type="curve" smooth="yes"/>
      <point x="88" y="129"/>
      <point x="272" y="-55"/>
    </contour>
    <contour>
      <point x="248" y="144" type="line"/>
      <point x="248" y="166" type="line"/>
      <point x="367" y="297" type="line" smooth="yes"/>
      <point x="427" y="363"/>
      <point x="453" y="402"/>
      <point x="453" y="462" type="curve" smooth="yes"/>
      <point x="453" y="526"/>
      <point x="423" y="553"/>
      <point x="379" y="553" type="curve" smooth="yes"/>
      <point x="344" y="553"/>
      <point x="304" y="537"/>
      <point x="266" y="502" type="curve"/>
      <point x="252" y="525" type="line"/>
      <point x="297" y="566"/>
      <point x="345" y="579"/>
      <point x="380" y="579" type="curve" smooth="yes"/>
      <point x="448" y="579"/>
      <point x="482" y="537"/>
      <point x="482" y="466" type="curve" smooth="yes"/>
      <point x="482" y="400"/>
      <point x="451" y="354"/>
      <point x="397" y="292" type="curve" smooth="yes"/>
      <point x="267" y="146" type="line"/>
      <point x="267" y="171" type="line"/>
      <point x="486" y="171" type="line"/>
      <point x="486" y="144" type="line"/>
    </contour>
    <contour>
      <point x="620" y="134" type="curve" smooth="yes"/>
      <point x="595" y="134"/>
      <point x="568" y="138"/>
      <point x="555" y="143" type="curve"/>
      <point x="555" y="171" type="line"/>
      <point x="570" y="165"/>
      <point x="598" y="161"/>
      <point x="622" y="161" type="curve" smooth="yes"/>
      <point x="693" y="161"/>
      <point x="754" y="193"/>
      <point x="757" y="362" type="curve"/>
      <point x="755" y="362" type="line"/>
      <point x="731" y="313"/>
      <point x="679" y="301"/>
      <point x="644" y="301" type="curve" smooth="yes"/>
      <point x="569" y="301"/>
      <point x="521" y="352"/>
      <point x="521" y="437" type="curve" smooth="yes"/>
      <point x="521" y="519"/>
      <point x="566" y="579"/>
      <point x="652" y="579" type="curve" smooth="yes"/>
      <point x="733" y="579"/>
      <point x="785" y="528"/>
      <point x="785" y="372" type="curve" smooth="yes"/>
      <point x="785" y="187"/>
      <point x="713" y="134"/>
    </contour>
    <contour>
      <point x="647" y="327" type="curve" smooth="yes"/>
      <point x="714" y="327"/>
      <point x="753" y="367"/>
      <point x="753" y="430" type="curve" smooth="yes"/>
      <point x="753" y="506"/>
      <point x="714" y="553"/>
      <point x="649" y="553" type="curve" smooth="yes"/>
      <point x="588" y="553"/>
      <point x="549" y="512"/>
      <point x="549" y="436" type="curve" smooth="yes"/>
      <point x="549" y="363"/>
      <point x="583" y="327"/>
    </contour>
  </outline>
</glyph>
<glyph name="circlednumrev32" format="2">
  <advance width="1000"/>
  <anchor x="500" y="357" name="C"/>
  <anchor x="357" y="357" name="L"/>
  <anchor x="643" y="357" name="R"/>
  <anchor x="623" y="357" name="_L"/>
  <anchor x="337" y="357" name="_R"/>
  <anchor x="500" y="0" name="center"/>
  <outline>
    <contour>
      <point x="500" y="-55" type="curve" smooth="yes"/>
      <point x="728" y="-55"/>
      <point x="912" y="129"/>
      <point x="912" y="357" type="curve" smooth="yes"/>
      <point x="912" y="584"/>
      <point x="728" y="769"/>
      <point x="500" y="769" type="curve" smooth="yes"/>
      <point x="272" y="769"/>
      <point x="88" y="584"/>
      <point x="88" y="357" type="curve" smooth="yes"/>
      <point x="88" y="129"/>
      <point x="272" y="-55"/>
    </contour>
    <contour>
      <point x="344" y="135" type="curve" smooth="yes"/>
      <point x="303" y="135"/>
      <point x="261" y="146"/>
      <point x="227" y="168" type="curve"/>
      <point x="227" y="198" type="line"/>
      <point x="277" y="171"/>
      <point x="309" y="161"/>
      <point x="342" y="161" type="curve" smooth="yes"/>
      <point x="401" y="161"/>
      <point x="454" y="196"/>
      <point x="454" y="260" type="curve" smooth="yes"/>
      <point x="454" y="326"/>
      <point x="397" y="351"/>
      <point x="337" y="351" type="curve" smooth="yes"/>
      <point x="289" y="351" type="line"/>
      <point x="289" y="376" type="line"/>
      <point x="338" y="376" type="line" smooth="yes"/>
      <point x="394" y="376"/>
      <point x="440" y="405"/>
      <point x="440" y="469" type="curve" smooth="yes"/>
      <point x="440" y="529"/>
      <point x="397" y="553"/>
      <point x="349" y="553" type="curve" smooth="yes"/>
      <point x="307" y="553"/>
      <point x="271" y="534"/>
      <point x="242" y="510" type="curve"/>
      <point x="226" y="533" type="line"/>
      <point x="266" y="568"/>
      <point x="315" y="579"/>
      <point x="352" y="579" type="curve" smooth="yes"/>
      <point x="432" y="579"/>
      <point x="469" y="528"/>
      <point x="469" y="468" type="curve" smooth="yes"/>
      <point x="469" y="412"/>
      <point x="437" y="377"/>
      <point x="375" y="359" type="curve"/>
      <point x="375" y="368" type="line"/>
      <point x="428" y="361"/>
      <point x="482" y="334"/>
      <point x="482" y="260" type="curve" smooth="yes"/>
      <point x="482" y="186"/>
      <point x="428" y="135"/>
    </contour>
    <contour>
      <point x="514" y="144" type="line"/>
      <point x="514" y="166" type="line"/>
      <point x="633" y="297" type="line" smooth="yes"/>
      <point x="693" y="363"/>
      <point x="719" y="402"/>
      <point x="719" y="462" type="curve" smooth="yes"/>
      <point x="719" y="526"/>
      <point x="689" y="553"/>
      <point x="645" y="553" type="curve" smooth="yes"/>
      <point x="610" y="553"/>
      <point x="570" y="537"/>
      <point x="532" y="502" type="curve"/>
      <point x="518" y="525" type="line"/>
      <point x="563" y="566"/>
      <point x="611" y="579"/>
      <point x="646" y="579" type="curve" smooth="yes"/>
      <point x="714" y="579"/>
      <point x="748" y="537"/>
      <point x="748" y="466" type="curve" smooth="yes"/>
      <point x="748" y="400"/>
      <point x="717" y="354"/>
      <point x="663" y="292" type="curve" smooth="yes"/>
      <point x="533" y="146" type="line"/>
      <point x="533" y="171" type="line"/>
      <point x="752" y="171" type="line"/>
      <point x="752" y="144" type="line"/>
    </contour>
  </outline>
</glyph>
<glyph name="circlednumrev34" format="2">
  <advance width="1000"/>
  <anchor x="500" y="357" name="C"/>
  <anchor x="357" y="357" name="L"/>
  <anchor x="643" y="357" name="R"/>
  <anchor x="663" y="357" name="_L"/>
  <anchor x="337" y="357" name="_R"/>
  <anchor x="500" y="0" name="center"/>
  <outline>
    <contour>
      <point x="500" y="-55" type="curve" smooth="yes"/>
      <point x="728" y="-55"/>
      <point x="912" y="129"/>
      <point x="912" y="357" type="curve" smooth="yes"/>
      <point x="912" y="584"/>
      <point x="728" y="769"/>
      <point x="500" y="769" type="curve" smooth="yes"/>
      <point x="272" y="769"/>
      <point x="88" y="584"/>
      <point x="88" y="357" type="curve" smooth="yes"/>
      <point x="88" y="129"/>
      <point x="272" y="-55"/>
    </contour>
    <contour>
      <point x="344" y="135" type="curve" smooth="yes"/>
      <point x="303" y="135"/>
      <point x="261" y="146"/>
      <point x="227" y="168" type="curve"/>
      <point x="227" y="198" type="line"/>
      <point x="277" y="171"/>
      <point x="309" y="161"/>
      <point x="342" y="161" type="curve" smooth="yes"/>
      <point x="401" y="161"/>
      <point x="454" y="196"/>
      <point x="454" y="260" type="curve" smooth="yes"/>
      <point x="454" y="326"/>
      <point x="397" y="351"/>
      <point x="337" y="351" type="curve" smooth="yes"/>
      <point x="289" y="351" type="line"/>
      <point x="289" y="376" type="line"/>
      <point x="338" y="376" type="line" smooth="yes"/>
      <point x="394" y="376"/>
      <point x="440" y="405"/>
      <point x="440" y="469" type="curve" smooth="yes"/>
      <point x="440" y="529"/>
      <point x="397" y="553"/>
      <point x="349" y="553" type="curve" smooth="yes"/>
      <point x="307" y="553"/>
      <point x="271" y="534"/>
      <point x="242" y="510" type="curve"/>
      <point x="226" y="533" type="line"/>
      <point x="266" y="568"/>
      <point x="315" y="579"/>
      <point x="352" y="579" type="curve" smooth="yes"/>
      <point x="432" y="579"/>
      <point x="469" y="528"/>
      <point x="469" y="468" type="curve" smooth="yes"/>
      <point x="469" y="412"/>
      <point x="437" y="377"/>
      <point x="375" y="359" type="curve"/>
      <point x="375" y="368" type="line"/>
      <point x="428" y="361"/>
      <point x="482" y="334"/>
      <point x="482" y="260" type="curve" smooth="yes"/>
      <point x="482" y="186"/>
      <point x="428" y="135"/>
    </contour>
    <contour>
      <point x="699" y="144" type="line"/>
      <point x="699" y="251" type="line"/>
      <point x="513" y="251" type="line"/>
      <point x="513" y="273" type="line"/>
      <point x="688" y="572" type="line"/>
      <point x="725" y="572" type="line"/>
      <point x="725" y="278" type="line"/>
      <point x="795" y="278" type="line"/>
      <point x="795" y="251" type="line"/>
      <point x="725" y="251" type="line"/>
      <point x="725" y="144" type="line"/>
    </contour>
    <contour>
      <point x="546" y="278" type="line"/>
      <point x="699" y="278" type="line"/>
      <point x="699" y="464" type="line" smooth="yes"/>
      <point x="699" y="496"/>
      <point x="699" y="528"/>
      <point x="700" y="548" type="curve"/>
      <point x="699" y="548" type="line"/>
      <point x="692" y="530"/>
      <point x="678" y="504"/>
      <point x="660" y="474" type="curve" smooth="yes"/>
    </contour>
  </outline>
</glyph>
<glyph name="circlednumrev36" format="2">
  <advance width="1000"/>
  <anchor x="500" y="357" name="C"/>
  <anchor x="357" y="357" name="L"/>
  <anchor x="643" y="357" name="R"/>
  <anchor x="663" y="357" name="_L"/>
  <anchor x="337" y="357" name="_R"/>
  <anchor x="500" y="0" name="center"/>
  <outline>
    <contour>
      <point x="500" y="-55" type="curve" smooth="yes"/>
      <point x="728" y="-55"/>
      <point x="912" y="129"/>
      <point x="912" y="357" type="curve" smooth="yes"/>
      <point x="912" y="584"/>
      <point x="728" y="769"/>
      <point x="500" y="769" type="curve" smooth="yes"/>
      <point x="272" y="769"/>
      <point x="88" y="584"/>
      <point x="88" y="357" type="curve" smooth="yes"/>
      <point x="88" y="129"/>
      <point x="272" y="-55"/>
    </contour>
    <contour>
      <point x="344" y="135" type="curve" smooth="yes"/>
      <point x="303" y="135"/>
      <point x="261" y="146"/>
      <point x="227" y="168" type="curve"/>
      <point x="227" y="198" type="line"/>
      <point x="277" y="171"/>
      <point x="309" y="161"/>
      <point x="342" y="161" type="curve" smooth="yes"/>
      <point x="401" y="161"/>
      <point x="454" y="196"/>
      <point x="454" y="260" type="curve" smooth="yes"/>
      <point x="454" y="326"/>
      <point x="397" y="351"/>
      <point x="337" y="351" type="curve" smooth="yes"/>
      <point x="289" y="351" type="line"/>
      <point x="289" y="376" type="line"/>
      <point x="338" y="376" type="line" smooth="yes"/>
      <point x="394" y="376"/>
      <point x="440" y="405"/>
      <point x="440" y="469" type="curve" smooth="yes"/>
      <point x="440" y="529"/>
      <point x="397" y="553"/>
      <point x="349" y="553" type="curve" smooth="yes"/>
      <point x="307" y="553"/>
      <point x="271" y="534"/>
      <point x="242" y="510" type="curve"/>
      <point x="226" y="533" type="line"/>
      <point x="266" y="568"/>
      <point x="315" y="579"/>
      <point x="352" y="579" type="curve" smooth="yes"/>
      <point x="432" y="579"/>
      <point x="469" y="528"/>
      <point x="469" y="468" type="curve" smooth="yes"/>
      <point x="469" y="412"/>
      <point x="437" y="377"/>
      <point x="375" y="359" type="curve"/>
      <point x="375" y="368" type="line"/>
      <point x="428" y="361"/>
      <point x="482" y="334"/>
      <point x="482" y="260" type="curve" smooth="yes"/>
      <point x="482" y="186"/>
      <point x="428" y="135"/>
    </contour>
    <contour>
      <point x="657" y="134" type="curve" smooth="yes"/>
      <point x="576" y="134"/>
      <point x="521" y="191"/>
      <point x="521" y="341" type="curve" smooth="yes"/>
      <point x="521" y="522"/>
      <point x="597" y="579"/>
      <point x="690" y="579" type="curve" smooth="yes"/>
      <point x="714" y="579"/>
      <point x="737" y="575"/>
      <point x="751" y="571" type="curve"/>
      <point x="751" y="542" type="line"/>
      <point x="735" y="549"/>
      <point x="713" y="553"/>
      <point x="689" y="553" type="curve" smooth="yes"/>
      <point x="617" y="553"/>
      <point x="552" y="515"/>
      <point x="549" y="351" type="curve"/>
      <point x="550" y="351" type="line"/>
      <point x="574" y="401"/>
      <point x="624" y="412"/>
      <point x="662" y="412" type="curve" smooth="yes"/>
      <point x="738" y="412"/>
      <point x="785" y="366"/>
      <point x="785" y="281" type="curve" smooth="yes"/>
      <point x="785" y="193"/>
      <point x="737" y="134"/>
    </contour>
    <contour>
      <point x="660" y="161" type="curve" smooth="yes"/>
      <point x="716" y="161"/>
      <point x="756" y="201"/>
      <point x="756" y="281" type="curve" smooth="yes"/>
      <point x="756" y="354"/>
      <point x="724" y="386"/>
      <point x="659" y="386" type="curve" smooth="yes"/>
      <point x="588" y="386"/>
      <point x="552" y="347"/>
      <point x="552" y="283" type="curve" smooth="yes"/>
      <point x="552" y="213"/>
      <point x="595" y="161"/>
    </contour>
  </outline>
</glyph>
<glyph name="circlednumrev38" format="2">
  <advance width="1000"/>
  <anchor x="500" y="357" name="C"/>
  <anchor x="357" y="357" name="L"/>
  <anchor x="643" y="357" name="R"/>
  <anchor x="663" y="357" name="_L"/>
  <anchor x="337" y="357" name="_R"/>
  <anchor x="500" y="0" name="center"/>
  <outline>
    <contour>
      <point x="500" y="-55" type="curve" smooth="yes"/>
      <point x="728" y="-55"/>
      <point x="912" y="129"/>
      <point x="912" y="357" type="curve" smooth="yes"/>
      <point x="912" y="584"/>
      <point x="728" y="769"/>
      <point x="500" y="769" type="curve" smooth="yes"/>
      <point x="272" y="769"/>
      <point x="88" y="584"/>
      <point x="88" y="357" type="curve" smooth="yes"/>
      <point x="88" y="129"/>
      <point x="272" y="-55"/>
    </contour>
    <contour>
      <point x="344" y="135" type="curve" smooth="yes"/>
      <point x="303" y="135"/>
      <point x="261" y="146"/>
      <point x="227" y="168" type="curve"/>
      <point x="227" y="198" type="line"/>
      <point x="277" y="171"/>
      <point x="309" y="161"/>
      <point x="342" y="161" type="curve" smooth="yes"/>
      <point x="401" y="161"/>
      <point x="454" y="196"/>
      <point x="454" y="260" type="curve" smooth="yes"/>
      <point x="454" y="326"/>
      <point x="397" y="351"/>
      <point x="337" y="351" type="curve" smooth="yes"/>
      <point x="289" y="351" type="line"/>
      <point x="289" y="376" type="line"/>
      <point x="338" y="376" type="line" smooth="yes"/>
      <point x="394" y="376"/>
      <point x="440" y="405"/>
      <point x="440" y="469" type="curve" smooth="yes"/>
      <point x="440" y="529"/>
      <point x="397" y="553"/>
      <point x="349" y="553" type="curve" smooth="yes"/>
      <point x="307" y="553"/>
      <point x="271" y="534"/>
      <point x="242" y="510" type="curve"/>
      <point x="226" y="533" type="line"/>
      <point x="266" y="568"/>
      <point x="315" y="579"/>
      <point x="352" y="579" type="curve" smooth="yes"/>
      <point x="432" y="579"/>
      <point x="469" y="528"/>
      <point x="469" y="468" type="curve" smooth="yes"/>
      <point x="469" y="412"/>
      <point x="437" y="377"/>
      <point x="375" y="359" type="curve"/>
      <point x="375" y="368" type="line"/>
      <point x="428" y="361"/>
      <point x="482" y="334"/>
      <point x="482" y="260" type="curve" smooth="yes"/>
      <point x="482" y="186"/>
      <point x="428" y="135"/>
    </contour>
    <contour>
      <point x="656" y="135" type="curve" smooth="yes"/>
      <point x="593" y="135"/>
      <point x="523" y="165"/>
      <point x="523" y="246" type="curve" smooth="yes"/>
      <point x="523" y="297"/>
      <point x="557" y="343"/>
      <point x="615" y="365" type="curve"/>
      <point x="573" y="389"/>
      <point x="537" y="421"/>
      <point x="537" y="473" type="curve" smooth="yes"/>
      <point x="537" y="537"/>
      <point x="589" y="579"/>
      <point x="658" y="579" type="curve" smooth="yes"/>
      <point x="731" y="579"/>
      <point x="770" y="534"/>
      <point x="770" y="478" type="curve" smooth="yes"/>
      <point x="770" y="436"/>
      <point x="748" y="394"/>
      <point x="686" y="365" type="curve"/>
      <point x="755" y="338"/>
      <point x="783" y="298"/>
      <point x="783" y="246" type="curve" smooth="yes"/>
      <point x="783" y="179"/>
      <point x="733" y="135"/>
    </contour>
    <contour>
      <point x="656" y="161" type="curve" smooth="yes"/>
      <point x="721" y="161"/>
      <point x="754" y="197"/>
      <point x="754" y="245" type="curve" smooth="yes"/>
      <point x="754" y="287"/>
      <point x="729" y="319"/>
      <point x="653" y="347" type="curve" smooth="yes"/>
      <point x="644" y="351" type="line"/>
      <point x="589" y="333"/>
      <point x="552" y="298"/>
      <point x="552" y="247" type="curve" smooth="yes"/>
      <point x="552" y="193"/>
      <point x="594" y="161"/>
    </contour>
    <contour>
      <point x="655" y="378" type="curve"/>
      <point x="714" y="400"/>
      <point x="741" y="434"/>
      <point x="741" y="477" type="curve" smooth="yes"/>
      <point x="741" y="521"/>
      <point x="713" y="553"/>
      <point x="658" y="553" type="curve" smooth="yes"/>
      <point x="604" y="553"/>
      <point x="565" y="520"/>
      <point x="565" y="474" type="curve" smooth="yes"/>
      <point x="565" y="436"/>
      <point x="596" y="403"/>
    </contour>
  </outline>
</glyph>
<glyph name="circlednumrev41" format="2">
  <advance width="1000"/>
  <anchor x="500" y="357" name="C"/>
  <anchor x="357" y="357" name="L"/>
  <anchor x="643" y="357" name="R"/>
  <anchor x="633" y="357" name="_L"/>
  <anchor x="337" y="357" name="_R"/>
  <anchor x="500" y="0" name="center"/>
  <outline>
    <contour>
      <point x="500" y="-55" type="curve" smooth="yes"/>
      <point x="728" y="-55"/>
      <point x="912" y="129"/>
      <point x="912" y="357" type="curve" smooth="yes"/>
      <point x="912" y="584"/>
      <point x="728" y="769"/>
      <point x="500" y="769" type="curve" smooth="yes"/>
      <point x="272" y="769"/>
      <point x="88" y="584"/>
      <point x="88" y="357" type="curve" smooth="yes"/>
      <point x="88" y="129"/>
      <point x="272" y="-55"/>
    </contour>
    <contour>
      <point x="393" y="144" type="line"/>
      <point x="393" y="251" type="line"/>
      <point x="207" y="251" type="line"/>
      <point x="207" y="273" type="line"/>
      <point x="382" y="572" type="line"/>
      <point x="419" y="572" type="line"/>
      <point x="419" y="278" type="line"/>
      <point x="489" y="278" type="line"/>
      <point x="489" y="251" type="line"/>
      <point x="419" y="251" type="line"/>
      <point x="419" y="144" type="line"/>
    </contour>
    <contour>
      <point x="240" y="278" type="line"/>
      <point x="393" y="278" type="line"/>
      <point x="393" y="464" type="line" smooth="yes"/>
      <point x="393" y="496"/>
      <point x="393" y="528"/>
      <point x="394" y="548" type="curve"/>
      <point x="393" y="548" type="line"/>
      <point x="386" y="530"/>
      <point x="372" y="504"/>
      <point x="354" y="474" type="curve" smooth="yes"/>
    </contour>
    <contour>
      <point x="534" y="144" type="line"/>
      <point x="534" y="171" type="line"/>
      <point x="640" y="171" type="line"/>
      <point x="640" y="484" type="line" smooth="yes"/>
      <point x="640" y="505"/>
      <point x="640" y="529"/>
      <point x="641" y="550" type="curve"/>
      <point x="638" y="545"/>
      <point x="630" y="538"/>
      <point x="617" y="528" type="curve" smooth="yes"/>
      <point x="607" y="519"/>
      <point x="574" y="494"/>
      <point x="545" y="471" type="curve"/>
      <point x="529" y="494" type="line"/>
      <point x="629" y="572" type="line"/>
      <point x="666" y="572" type="line"/>
      <point x="666" y="171" type="line"/>
      <point x="772" y="171" type="line"/>
      <point x="772" y="144" type="line"/>
    </contour>
  </outline>
</glyph>
<glyph name="circlednumrev42" format="2">
  <advance width="1000"/>
  <anchor x="500" y="357" name="C"/>
  <anchor x="357" y="357" name="L"/>
  <anchor x="643" y="357" name="R"/>
  <anchor x="623" y="357" name="_L"/>
  <anchor x="337" y="357" name="_R"/>
  <anchor x="500" y="0" name="center"/>
  <outline>
    <contour>
      <point x="500" y="-55" type="curve" smooth="yes"/>
      <point x="728" y="-55"/>
      <point x="912" y="129"/>
      <point x="912" y="357" type="curve" smooth="yes"/>
      <point x="912" y="584"/>
      <point x="728" y="769"/>
      <point x="500" y="769" type="curve" smooth="yes"/>
      <point x="272" y="769"/>
      <point x="88" y="584"/>
      <point x="88" y="357" type="curve" smooth="yes"/>
      <point x="88" y="129"/>
      <point x="272" y="-55"/>
    </contour>
    <contour>
      <point x="393" y="144" type="line"/>
      <point x="393" y="251" type="line"/>
      <point x="207" y="251" type="line"/>
      <point x="207" y="273" type="line"/>
      <point x="382" y="572" type="line"/>
      <point x="419" y="572" type="line"/>
      <point x="419" y="278" type="line"/>
      <point x="489" y="278" type="line"/>
      <point x="489" y="251" type="line"/>
      <point x="419" y="251" type="line"/>
      <point x="419" y="144" type="line"/>
    </contour>
    <contour>
      <point x="240" y="278" type="line"/>
      <point x="393" y="278" type="line"/>
      <point x="393" y="464" type="line" smooth="yes"/>
      <point x="393" y="496"/>
      <point x="393" y="528"/>
      <point x="394" y="548" type="curve"/>
      <point x="393" y="548" type="line"/>
      <point x="386" y="530"/>
      <point x="372" y="504"/>
      <point x="354" y="474" type="curve" smooth="yes"/>
    </contour>
    <contour>
      <point x="514" y="144" type="line"/>
      <point x="514" y="166" type="line"/>
      <point x="633" y="297" type="line" smooth="yes"/>
      <point x="693" y="363"/>
      <point x="719" y="402"/>
      <point x="719" y="462" type="curve" smooth="yes"/>
      <point x="719" y="526"/>
      <point x="689" y="553"/>
      <point x="645" y="553" type="curve" smooth="yes"/>
      <point x="610" y="553"/>
      <point x="570" y="537"/>
      <point x="532" y="502" type="curve"/>
      <point x="518" y="525" type="line"/>
      <point x="563" y="566"/>
      <point x="611" y="579"/>
      <point x="646" y="579" type="curve" smooth="yes"/>
      <point x="714" y="579"/>
      <point x="748" y="537"/>
      <point x="748" y="466" type="curve" smooth="yes"/>
      <point x="748" y="400"/>
      <point x="717" y="354"/>
      <point x="663" y="292" type="curve" smooth="yes"/>
      <point x="533" y="146" type="line"/>
      <point x="533" y="171" type="line"/>
      <point x="752" y="171" type="line"/>
      <point x="752" y="144" type="line"/>
    </contour>
  </outline>
</glyph>
<glyph name="circlednumrev44" format="2">
  <advance width="1000"/>
  <anchor x="500" y="357" name="C"/>
  <anchor x="357" y="357" name="L"/>
  <anchor x="643" y="357" name="R"/>
  <anchor x="663" y="357" name="_L"/>
  <anchor x="337" y="357" name="_R"/>
  <anchor x="500" y="0" name="center"/>
  <outline>
    <contour>
      <point x="500" y="-55" type="curve" smooth="yes"/>
      <point x="728" y="-55"/>
      <point x="912" y="129"/>
      <point x="912" y="357" type="curve" smooth="yes"/>
      <point x="912" y="584"/>
      <point x="728" y="769"/>
      <point x="500" y="769" type="curve" smooth="yes"/>
      <point x="272" y="769"/>
      <point x="88" y="584"/>
      <point x="88" y="357" type="curve" smooth="yes"/>
      <point x="88" y="129"/>
      <point x="272" y="-55"/>
    </contour>
    <contour>
      <point x="393" y="144" type="line"/>
      <point x="393" y="251" type="line"/>
      <point x="207" y="251" type="line"/>
      <point x="207" y="273" type="line"/>
      <point x="382" y="572" type="line"/>
      <point x="419" y="572" type="line"/>
      <point x="419" y="278" type="line"/>
      <point x="489" y="278" type="line"/>
      <point x="489" y="251" type="line"/>
      <point x="419" y="251" type="line"/>
      <point x="419" y="144" type="line"/>
    </contour>
    <contour>
      <point x="240" y="278" type="line"/>
      <point x="393" y="278" type="line"/>
      <point x="393" y="464" type="line" smooth="yes"/>
      <point x="393" y="496"/>
      <point x="393" y="528"/>
      <point x="394" y="548" type="curve"/>
      <point x="393" y="548" type="line"/>
      <point x="386" y="530"/>
      <point x="372" y="504"/>
      <point x="354" y="474" type="curve" smooth="yes"/>
    </contour>
    <contour>
      <point x="699" y="144" type="line"/>
      <point x="699" y="251" type="line"/>
      <point x="513" y="251" type="line"/>
      <point x="513" y="273" type="line"/>
      <point x="688" y="572" type="line"/>
      <point x="725" y="572" type="line"/>
      <point x="725" y="278" type="line"/>
      <point x="795" y="278" type="line"/>
      <point x="795" y="251" type="line"/>
      <point x="725" y="251" type="line"/>
      <point x="725" y="144" type="line"/>
    </contour>
    <contour>
      <point x="546" y="278" type="line"/>
      <point x="699" y="278" type="line"/>
      <point x="699" y="464" type="line" smooth="yes"/>
      <point x="699" y="496"/>
      <point x="699" y="528"/>
      <point x="700" y="548" type="curve"/>
      <point x="699" y="548" type="line"/>
      <point x="692" y="530"/>
      <point x="678" y="504"/>
      <point x="660" y="474" type="curve" smooth="yes"/>
    </contour>
  </outline>
</glyph>
<glyph name="circlednumrev45" format="2">
  <advance width="1000"/>
  <anchor x="500" y="357" name="C"/>
  <anchor x="357" y="357" name="L"/>
  <anchor x="643" y="357" name="R"/>
  <anchor x="663" y="357" name="_L"/>
  <anchor x="337" y="357" name="_R"/>
  <anchor x="500" y="0" name="center"/>
  <outline>
    <contour>
      <point x="500" y="-55" type="curve" smooth="yes"/>
      <point x="728" y="-55"/>
      <point x="912" y="129"/>
      <point x="912" y="357" type="curve" smooth="yes"/>
      <point x="912" y="584"/>
      <point x="728" y="769"/>
      <point x="500" y="769" type="curve" smooth="yes"/>
      <point x="272" y="769"/>
      <point x="88" y="584"/>
      <point x="88" y="357" type="curve" smooth="yes"/>
      <point x="88" y="129"/>
      <point x="272" y="-55"/>
    </contour>
    <contour>
      <point x="393" y="144" type="line"/>
      <point x="393" y="251" type="line"/>
      <point x="207" y="251" type="line"/>
      <point x="207" y="273" type="line"/>
      <point x="382" y="572" type="line"/>
      <point x="419" y="572" type="line"/>
      <point x="419" y="278" type="line"/>
      <point x="489" y="278" type="line"/>
      <point x="489" y="251" type="line"/>
      <point x="419" y="251" type="line"/>
      <point x="419" y="144" type="line"/>
    </contour>
    <contour>
      <point x="240" y="278" type="line"/>
      <point x="393" y="278" type="line"/>
      <point x="393" y="464" type="line" smooth="yes"/>
      <point x="393" y="496"/>
      <point x="393" y="528"/>
      <point x="394" y="548" type="curve"/>
      <point x="393" y="548" type="line"/>
      <point x="386" y="530"/>
      <point x="372" y="504"/>
      <point x="354" y="474" type="curve" smooth="yes"/>
    </contour>
    <contour>
      <point x="649" y="135" type="curve" smooth="yes"/>
      <point x="600" y="135"/>
      <point x="560" y="152"/>
      <point x="538" y="165" type="curve"/>
      <point x="538" y="196" type="line"/>
      <point x="575" y="173"/>
      <point x="612" y="161"/>
      <point x="649" y="161" type="curve" smooth="yes"/>
      <point x="715" y="161"/>
      <point x="754" y="201"/>
      <point x="754" y="271" type="curve" smooth="yes"/>
      <point x="754" y="343"/>
      <point x="712" y="379"/>
      <point x="644" y="379" type="curve" smooth="yes"/>
      <point x="621" y="379"/>
      <point x="593" y="375"/>
      <point x="567" y="362" type="curve"/>
      <point x="547" y="375" type="line"/>
      <point x="561" y="572" type="line"/>
      <point x="763" y="572" type="line"/>
      <point x="763" y="545" type="line"/>
      <point x="586" y="545" type="line"/>
      <point x="576" y="393" type="line"/>
      <point x="593" y="400"/>
      <point x="621" y="406"/>
      <point x="648" y="406" type="curve" smooth="yes"/>
      <point x="718" y="406"/>
      <point x="784" y="373"/>
      <point x="784" y="274" type="curve" smooth="yes"/>
      <point x="784" y="184"/>
      <point x="732" y="135"/>
    </contour>
  </outline>
</glyph>
<glyph name="circlednumrev47" format="2">
  <advance width="1000"/>
  <anchor x="500" y="357" name="C"/>
  <anchor x="357" y="357" name="L"/>
  <anchor x="643" y="357" name="R"/>
  <anchor x="623" y="357" name="_L"/>
  <anchor x="337" y="357" name="_R"/>
  <anchor x="500" y="0" name="center"/>
  <outline>
    <contour>
      <point x="500" y="-55" type="curve" smooth="yes"/>
      <point x="728" y="-55"/>
      <point x="912" y="129"/>
      <point x="912" y="357" type="curve" smooth="yes"/>
      <point x="912" y="584"/>
      <point x="728" y="769"/>
      <point x="500" y="769" type="curve" smooth="yes"/>
      <point x="272" y="769"/>
      <point x="88" y="584"/>
      <point x="88" y="357" type="curve" smooth="yes"/>
      <point x="88" y="129"/>
      <point x="272" y="-55"/>
    </contour>
    <contour>
      <point x="393" y="144" type="line"/>
      <point x="393" y="251" type="line"/>
      <point x="207" y="251" type="line"/>
      <point x="207" y="273" type="line"/>
      <point x="382" y="572" type="line"/>
      <point x="419" y="572" type="line"/>
      <point x="419" y="278" type="line"/>
      <point x="489" y="278" type="line"/>
      <point x="489" y="251" type="line"/>
      <point x="419" y="251" type="line"/>
      <point x="419" y="144" type="line"/>
    </contour>
    <contour>
      <point x="240" y="278" type="line"/>
      <point x="393" y="278" type="line"/>
      <point x="393" y="464" type="line" smooth="yes"/>
      <point x="393" y="496"/>
      <point x="393" y="528"/>
      <point x="394" y="548" type="curve"/>
      <point x="393" y="548" type="line"/>
      <point x="386" y="530"/>
      <point x="372" y="504"/>
      <point x="354" y="474" type="curve" smooth="yes"/>
    </contour>
    <contour>
      <point x="569" y="144" type="line"/>
      <point x="733" y="545" type="line"/>
      <point x="521" y="545" type="line"/>
      <point x="521" y="572" type="line"/>
      <point x="764" y="572" type="line"/>
      <point x="764" y="550" type="line"/>
      <point x="599" y="144" type="line"/>
    </contour>
  </outline>
</glyph>
<glyph name="circlednumrev5" format="2">
  <advance width="1000"/>
  <anchor x="500" y="357" name="C"/>
  <anchor x="357" y="357" name="L"/>
  <anchor x="643" y="357" name="R"/>
  <anchor x="500" y="0" name="center"/>
  <outline>
    <contour>
      <point x="500" y="-55" type="curve" smooth="yes"/>
      <point x="728" y="-55"/>
      <point x="912" y="129"/>
      <point x="912" y="357" type="curve" smooth="yes"/>
      <point x="912" y="584"/>
      <point x="728" y="769"/>
      <point x="500" y="769" type="curve" smooth="yes"/>
      <point x="272" y="769"/>
      <point x="88" y="584"/>
      <point x="88" y="357" type="curve" smooth="yes"/>
      <point x="88" y="129"/>
      <point x="272" y="-55"/>
    </contour>
    <contour>
      <point x="500" y="135" type="curve" smooth="yes"/>
      <point x="444" y="135"/>
      <point x="396" y="152"/>
      <point x="372" y="165" type="curve"/>
      <point x="372" y="196" type="line"/>
      <point x="411" y="173"/>
      <point x="457" y="161"/>
      <point x="499" y="161" type="curve" smooth="yes"/>
      <point x="572" y="161"/>
      <point x="614" y="199"/>
      <point x="614" y="269" type="curve" smooth="yes"/>
      <point x="614" y="341"/>
      <point x="570" y="379"/>
      <point x="491" y="379" type="curve" smooth="yes"/>
      <point x="464" y="379"/>
      <point x="435" y="375"/>
      <point x="407" y="362" type="curve"/>
      <point x="387" y="375" type="line"/>
      <point x="401" y="572" type="line"/>
      <point x="630" y="572" type="line"/>
      <point x="630" y="545" type="line"/>
      <point x="427" y="545" type="line"/>
      <point x="417" y="393" type="line"/>
      <point x="435" y="400"/>
      <point x="466" y="406"/>
      <point x="497" y="406" type="curve" smooth="yes"/>
      <point x="577" y="406"/>
      <point x="645" y="371"/>
      <point x="645" y="272" type="curve" smooth="yes"/>
      <point x="645" y="182"/>
      <point x="590" y="135"/>
    </contour>
  </outline>
</glyph>
<glyph name="circlednumrev50" format="2">
  <advance width="1000"/>
  <anchor x="500" y="357" name="C"/>
  <anchor x="357" y="357" name="L"/>
  <anchor x="643" y="357" name="R"/>
  <anchor x="663" y="357" name="_L"/>
  <anchor x="337" y="357" name="_R"/>
  <anchor x="500" y="0" name="center"/>
  <outline>
    <contour>
      <point x="500" y="-55" type="curve" smooth="yes"/>
      <point x="728" y="-55"/>
      <point x="912" y="129"/>
      <point x="912" y="357" type="curve" smooth="yes"/>
      <point x="912" y="584"/>
      <point x="728" y="769"/>
      <point x="500" y="769" type="curve" smooth="yes"/>
      <point x="272" y="769"/>
      <point x="88" y="584"/>
      <point x="88" y="357" type="curve" smooth="yes"/>
      <point x="88" y="129"/>
      <point x="272" y="-55"/>
    </contour>
    <contour>
      <point x="343" y="135" type="curve" smooth="yes"/>
      <point x="294" y="135"/>
      <point x="254" y="152"/>
      <point x="232" y="165" type="curve"/>
      <point x="232" y="196" type="line"/>
      <point x="269" y="173"/>
      <point x="306" y="161"/>
      <point x="343" y="161" type="curve" smooth="yes"/>
      <point x="409" y="161"/>
      <point x="448" y="201"/>
      <point x="448" y="271" type="curve" smooth="yes"/>
      <point x="448" y="343"/>
      <point x="406" y="379"/>
      <point x="338" y="379" type="curve" smooth="yes"/>
      <point x="315" y="379"/>
      <point x="287" y="375"/>
      <point x="261" y="362" type="curve"/>
      <point x="241" y="375" type="line"/>
      <point x="255" y="572" type="line"/>
      <point x="457" y="572" type="line"/>
      <point x="457" y="545" type="line"/>
      <point x="280" y="545" type="line"/>
      <point x="270" y="393" type="line"/>
      <point x="287" y="400"/>
      <point x="315" y="406"/>
      <point x="342" y="406" type="curve" smooth="yes"/>
      <point x="412" y="406"/>
      <point x="478" y="373"/>
      <point x="478" y="274" type="curve" smooth="yes"/>
      <point x="478" y="184"/>
      <point x="426" y="135"/>
    </contour>
    <contour>
      <point x="653" y="135" type="curve" smooth="yes"/>
      <point x="568" y="135"/>
      <point x="521" y="204"/>
      <point x="521" y="359" type="curve" smooth="yes"/>
      <point x="521" y="512"/>
      <point x="571" y="579"/>
      <point x="653" y="579" type="curve" smooth="yes"/>
      <point x="736" y="579"/>
      <point x="785" y="512"/>
      <point x="785" y="359" type="curve" smooth="yes"/>
      <point x="785" y="204"/>
      <point x="739" y="135"/>
    </contour>
    <contour>
      <point x="653" y="161" type="curve" smooth="yes"/>
      <point x="718" y="161"/>
      <point x="757" y="226"/>
      <point x="757" y="357" type="curve" smooth="yes"/>
      <point x="757" y="488"/>
      <point x="724" y="553"/>
      <point x="653" y="553" type="curve" smooth="yes"/>
      <point x="583" y="553"/>
      <point x="550" y="488"/>
      <point x="550" y="357" type="curve" smooth="yes"/>
      <point x="550" y="226"/>
      <point x="588" y="161"/>
    </contour>
  </outline>
</glyph>
<glyph name="circlednumrev51" format="2">
  <advance width="1000"/>
  <anchor x="500" y="357" name="C"/>
  <anchor x="357" y="357" name="L"/>
  <anchor x="643" y="357" name="R"/>
  <anchor x="633" y="357" name="_L"/>
  <anchor x="337" y="357" name="_R"/>
  <anchor x="500" y="0" name="center"/>
  <outline>
    <contour>
      <point x="500" y="-55" type="curve" smooth="yes"/>
      <point x="728" y="-55"/>
      <point x="912" y="129"/>
      <point x="912" y="357" type="curve" smooth="yes"/>
      <point x="912" y="584"/>
      <point x="728" y="769"/>
      <point x="500" y="769" type="curve" smooth="yes"/>
      <point x="272" y="769"/>
      <point x="88" y="584"/>
      <point x="88" y="357" type="curve" smooth="yes"/>
      <point x="88" y="129"/>
      <point x="272" y="-55"/>
    </contour>
    <contour>
      <point x="343" y="135" type="curve" smooth="yes"/>
      <point x="294" y="135"/>
      <point x="254" y="152"/>
      <point x="232" y="165" type="curve"/>
      <point x="232" y="196" type="line"/>
      <point x="269" y="173"/>
      <point x="306" y="161"/>
      <point x="343" y="161" type="curve" smooth="yes"/>
      <point x="409" y="161"/>
      <point x="448" y="201"/>
      <point x="448" y="271" type="curve" smooth="yes"/>
      <point x="448" y="343"/>
      <point x="406" y="379"/>
      <point x="338" y="379" type="curve" smooth="yes"/>
      <point x="315" y="379"/>
      <point x="287" y="375"/>
      <point x="261" y="362" type="curve"/>
      <point x="241" y="375" type="line"/>
      <point x="255" y="572" type="line"/>
      <point x="457" y="572" type="line"/>
      <point x="457" y="545" type="line"/>
      <point x="280" y="545" type="line"/>
      <point x="270" y="393" type="line"/>
      <point x="287" y="400"/>
      <point x="315" y="406"/>
      <point x="342" y="406" type="curve" smooth="yes"/>
      <point x="412" y="406"/>
      <point x="478" y="373"/>
      <point x="478" y="274" type="curve" smooth="yes"/>
      <point x="478" y="184"/>
      <point x="426" y="135"/>
    </contour>
    <contour>
      <point x="534" y="144" type="line"/>
      <point x="534" y="171" type="line"/>
      <point x="640" y="171" type="line"/>
      <point x="640" y="484" type="line" smooth="yes"/>
      <point x="640" y="505"/>
      <point x="640" y="529"/>
      <point x="641" y="550" type="curve"/>
      <point x="638" y="545"/>
      <point x="630" y="538"/>
      <point x="617" y="528" type="curve" smooth="yes"/>
      <point x="607" y="519"/>
      <point x="574" y="494"/>
      <point x="545" y="471" type="curve"/>
      <point x="529" y="494" type="line"/>
      <point x="629" y="572" type="line"/>
      <point x="666" y="572" type="line"/>
      <point x="666" y="171" type="line"/>
      <point x="772" y="171" type="line"/>
      <point x="772" y="144" type="line"/>
    </contour>
  </outline>
</glyph>
<glyph name="circlednumrev56" format="2">
  <advance width="1000"/>
  <anchor x="500" y="357" name="C"/>
  <anchor x="357" y="357" name="L"/>
  <anchor x="643" y="357" name="R"/>
  <anchor x="663" y="357" name="_L"/>
  <anchor x="337" y="357" name="_R"/>
  <anchor x="500" y="0" name="center"/>
  <outline>
    <contour>
      <point x="500" y="-55" type="curve" smooth="yes"/>
      <point x="728" y="-55"/>
      <point x="912" y="129"/>
      <point x="912" y="357" type="curve" smooth="yes"/>
      <point x="912" y="584"/>
      <point x="728" y="769"/>
      <point x="500" y="769" type="curve" smooth="yes"/>
      <point x="272" y="769"/>
      <point x="88" y="584"/>
      <point x="88" y="357" type="curve" smooth="yes"/>
      <point x="88" y="129"/>
      <point x="272" y="-55"/>
    </contour>
    <contour>
      <point x="343" y="135" type="curve" smooth="yes"/>
      <point x="294" y="135"/>
      <point x="254" y="152"/>
      <point x="232" y="165" type="curve"/>
      <point x="232" y="196" type="line"/>
      <point x="269" y="173"/>
      <point x="306" y="161"/>
      <point x="343" y="161" type="curve" smooth="yes"/>
      <point x="409" y="161"/>
      <point x="448" y="201"/>
      <point x="448" y="271" type="curve" smooth="yes"/>
      <point x="448" y="343"/>
      <point x="406" y="379"/>
      <point x="338" y="379" type="curve" smooth="yes"/>
      <point x="315" y="379"/>
      <point x="287" y="375"/>
      <point x="261" y="362" type="curve"/>
      <point x="241" y="375" type="line"/>
      <point x="255" y="572" type="line"/>
      <point x="457" y="572" type="line"/>
      <point x="457" y="545" type="line"/>
      <point x="280" y="545" type="line"/>
      <point x="270" y="393" type="line"/>
      <point x="287" y="400"/>
      <point x="315" y="406"/>
      <point x="342" y="406" type="curve" smooth="yes"/>
      <point x="412" y="406"/>
      <point x="478" y="373"/>
      <point x="478" y="274" type="curve" smooth="yes"/>
      <point x="478" y="184"/>
      <point x="426" y="135"/>
    </contour>
    <contour>
      <point x="657" y="134" type="curve" smooth="yes"/>
      <point x="576" y="134"/>
      <point x="521" y="191"/>
      <point x="521" y="341" type="curve" smooth="yes"/>
      <point x="521" y="522"/>
      <point x="597" y="579"/>
      <point x="690" y="579" type="curve" smooth="yes"/>
      <point x="714" y="579"/>
      <point x="737" y="575"/>
      <point x="751" y="571" type="curve"/>
      <point x="751" y="542" type="line"/>
      <point x="735" y="549"/>
      <point x="713" y="553"/>
      <point x="689" y="553" type="curve" smooth="yes"/>
      <point x="617" y="553"/>
      <point x="552" y="515"/>
      <point x="549" y="351" type="curve"/>
      <point x="550" y="351" type="line"/>
      <point x="574" y="401"/>
      <point x="624" y="412"/>
      <point x="662" y="412" type="curve" smooth="yes"/>
      <point x="738" y="412"/>
      <point x="785" y="366"/>
      <point x="785" y="281" type="curve" smooth="yes"/>
      <point x="785" y="193"/>
      <point x="737" y="134"/>
    </contour>
    <contour>
      <point x="660" y="161" type="curve" smooth="yes"/>
      <point x="716" y="161"/>
      <point x="756" y="201"/>
      <point x="756" y="281" type="curve" smooth="yes"/>
      <point x="756" y="354"/>
      <point x="724" y="386"/>
      <point x="659" y="386" type="curve" smooth="yes"/>
      <point x="588" y="386"/>
      <point x="552" y="347"/>
      <point x="552" y="283" type="curve" smooth="yes"/>
      <point x="552" y="213"/>
      <point x="595" y="161"/>
    </contour>
  </outline>
</glyph>
<glyph name="circlednumrev58" format="2">
  <advance width="1000"/>
  <anchor x="500" y="357" name="C"/>
  <anchor x="357" y="357" name="L"/>
  <anchor x="643" y="357" name="R"/>
  <anchor x="663" y="357" name="_L"/>
  <anchor x="337" y="357" name="_R"/>
  <anchor x="500" y="0" name="center"/>
  <outline>
    <contour>
      <point x="500" y="-55" type="curve" smooth="yes"/>
      <point x="728" y="-55"/>
      <point x="912" y="129"/>
      <point x="912" y="357" type="curve" smooth="yes"/>
      <point x="912" y="584"/>
      <point x="728" y="769"/>
      <point x="500" y="769" type="curve" smooth="yes"/>
      <point x="272" y="769"/>
      <point x="88" y="584"/>
      <point x="88" y="357" type="curve" smooth="yes"/>
      <point x="88" y="129"/>
      <point x="272" y="-55"/>
    </contour>
    <contour>
      <point x="343" y="135" type="curve" smooth="yes"/>
      <point x="294" y="135"/>
      <point x="254" y="152"/>
      <point x="232" y="165" type="curve"/>
      <point x="232" y="196" type="line"/>
      <point x="269" y="173"/>
      <point x="306" y="161"/>
      <point x="343" y="161" type="curve" smooth="yes"/>
      <point x="409" y="161"/>
      <point x="448" y="201"/>
      <point x="448" y="271" type="curve" smooth="yes"/>
      <point x="448" y="343"/>
      <point x="406" y="379"/>
      <point x="338" y="379" type="curve" smooth="yes"/>
      <point x="315" y="379"/>
      <point x="287" y="375"/>
      <point x="261" y="362" type="curve"/>
      <point x="241" y="375" type="line"/>
      <point x="255" y="572" type="line"/>
      <point x="457" y="572" type="line"/>
      <point x="457" y="545" type="line"/>
      <point x="280" y="545" type="line"/>
      <point x="270" y="393" type="line"/>
      <point x="287" y="400"/>
      <point x="315" y="406"/>
      <point x="342" y="406" type="curve" smooth="yes"/>
      <point x="412" y="406"/>
      <point x="478" y="373"/>
      <point x="478" y="274" type="curve" smooth="yes"/>
      <point x="478" y="184"/>
      <point x="426" y="135"/>
    </contour>
    <contour>
      <point x="656" y="135" type="curve" smooth="yes"/>
      <point x="593" y="135"/>
      <point x="523" y="165"/>
      <point x="523" y="246" type="curve" smooth="yes"/>
      <point x="523" y="297"/>
      <point x="557" y="343"/>
      <point x="615" y="365" type="curve"/>
      <point x="573" y="389"/>
      <point x="537" y="421"/>
      <point x="537" y="473" type="curve" smooth="yes"/>
      <point x="537" y="537"/>
      <point x="589" y="579"/>
      <point x="658" y="579" type="curve" smooth="yes"/>
      <point x="731" y="579"/>
      <point x="770" y="534"/>
      <point x="770" y="478" type="curve" smooth="yes"/>
      <point x="770" y="436"/>
      <point x="748" y="394"/>
      <point x="686" y="365" type="curve"/>
      <point x="755" y="338"/>
      <point x="783" y="298"/>
      <point x="783" y="246" type="curve" smooth="yes"/>
      <point x="783" y="179"/>
      <point x="733" y="135"/>
    </contour>
    <contour>
      <point x="656" y="161" type="curve" smooth="yes"/>
      <point x="721" y="161"/>
      <point x="754" y="197"/>
      <point x="754" y="245" type="curve" smooth="yes"/>
      <point x="754" y="287"/>
      <point x="729" y="319"/>
      <point x="653" y="347" type="curve" smooth="yes"/>
      <point x="644" y="351" type="line"/>
      <point x="589" y="333"/>
      <point x="552" y="298"/>
      <point x="552" y="247" type="curve" smooth="yes"/>
      <point x="552" y="193"/>
      <point x="594" y="161"/>
    </contour>
    <contour>
      <point x="655" y="378" type="curve"/>
      <point x="714" y="400"/>
      <point x="741" y="434"/>
      <point x="741" y="477" type="curve" smooth="yes"/>
      <point x="741" y="521"/>
      <point x="713" y="553"/>
      <point x="658" y="553" type="curve" smooth="yes"/>
      <point x="604" y="553"/>
      <point x="565" y="520"/>
      <point x="565" y="474" type="curve" smooth="yes"/>
      <point x="565" y="436"/>
      <point x="596" y="403"/>
    </contour>
  </outline>
</glyph>
<glyph name="circlednumrev60" format="2">
  <advance width="1000"/>
  <anchor x="500" y="357" name="C"/>
  <anchor x="357" y="357" name="L"/>
  <anchor x="643" y="357" name="R"/>
  <anchor x="663" y="357" name="_L"/>
  <anchor x="337" y="357" name="_R"/>
  <anchor x="500" y="0" name="center"/>
  <outline>
    <contour>
      <point x="500" y="-55" type="curve" smooth="yes"/>
      <point x="728" y="-55"/>
      <point x="912" y="129"/>
      <point x="912" y="357" type="curve" smooth="yes"/>
      <point x="912" y="584"/>
      <point x="728" y="769"/>
      <point x="500" y="769" type="curve" smooth="yes"/>
      <point x="272" y="769"/>
      <point x="88" y="584"/>
      <point x="88" y="357" type="curve" smooth="yes"/>
      <point x="88" y="129"/>
      <point x="272" y="-55"/>
    </contour>
    <contour>
      <point x="351" y="134" type="curve" smooth="yes"/>
      <point x="270" y="134"/>
      <point x="215" y="191"/>
      <point x="215" y="341" type="curve" smooth="yes"/>
      <point x="215" y="522"/>
      <point x="291" y="579"/>
      <point x="384" y="579" type="curve" smooth="yes"/>
      <point x="408" y="579"/>
      <point x="431" y="575"/>
      <point x="445" y="571" type="curve"/>
      <point x="445" y="542" type="line"/>
      <point x="429" y="549"/>
      <point x="407" y="553"/>
      <point x="383" y="553" type="curve" smooth="yes"/>
      <point x="311" y="553"/>
      <point x="246" y="515"/>
      <point x="243" y="351" type="curve"/>
      <point x="244" y="351" type="line"/>
      <point x="268" y="401"/>
      <point x="318" y="412"/>
      <point x="356" y="412" type="curve" smooth="yes"/>
      <point x="432" y="412"/>
      <point x="479" y="366"/>
      <point x="479" y="281" type="curve" smooth="yes"/>
      <point x="479" y="193"/>
      <point x="431" y="134"/>
    </contour>
    <contour>
      <point x="354" y="161" type="curve" smooth="yes"/>
      <point x="410" y="161"/>
      <point x="450" y="201"/>
      <point x="450" y="281" type="curve" smooth="yes"/>
      <point x="450" y="354"/>
      <point x="418" y="386"/>
      <point x="353" y="386" type="curve" smooth="yes"/>
      <point x="282" y="386"/>
      <point x="246" y="347"/>
      <point x="246" y="283" type="curve" smooth="yes"/>
      <point x="246" y="213"/>
      <point x="289" y="161"/>
    </contour>
    <contour>
      <point x="653" y="135" type="curve" smooth="yes"/>
      <point x="568" y="135"/>
      <point x="521" y="204"/>
      <point x="521" y="359" type="curve" smooth="yes"/>
      <point x="521" y="512"/>
      <point x="571" y="579"/>
      <point x="653" y="579" type="curve" smooth="yes"/>
      <point x="736" y="579"/>
      <point x="785" y="512"/>
      <point x="785" y="359" type="curve" smooth="yes"/>
      <point x="785" y="204"/>
      <point x="739" y="135"/>
    </contour>
    <contour>
      <point x="653" y="161" type="curve" smooth="yes"/>
      <point x="718" y="161"/>
      <point x="757" y="226"/>
      <point x="757" y="357" type="curve" smooth="yes"/>
      <point x="757" y="488"/>
      <point x="724" y="553"/>
      <point x="653" y="553" type="curve" smooth="yes"/>
      <point x="583" y="553"/>
      <point x="550" y="488"/>
      <point x="550" y="357" type="curve" smooth="yes"/>
      <point x="550" y="226"/>
      <point x="588" y="161"/>
    </contour>
  </outline>
</glyph>
